<svg width="247" height="149" viewBox="0 0 247 149" version="1.1" xmlns="http://www.w3.org/2000/svg" xmlns:xlink="http://www.w3.org/1999/xlink">
<title>Group</title>
<desc>Created using Figma</desc>
<g id="Canvas" transform="translate(-6103 -1782)">
<g id="Group">
<g id="Vector">
<use xlink:href="#path0_stroke" transform="matrix(-0.988081 -0.153933 -0.153933 0.988081 6368.52 1836.77)" fill="#F9F6EF"/>
</g>
<g id="Group">
<g id="Vector">
<use xlink:href="#path1_fill" transform="matrix(-0.988081 -0.153933 -0.153933 0.988081 6170.73 1811.86)" fill="url(#paint1_linear)"/>
</g>
<g id="Vector">
<use xlink:href="#path2_fill" transform="matrix(-0.988081 -0.153933 -0.153933 0.988081 6171.93 1804.69)" fill="url(#paint2_linear)"/>
</g>
<g id="Vector">
<use xlink:href="#path3_fill" transform="matrix(-0.988081 -0.153933 -0.153933 0.988081 6167.14 1811.75)" fill="url(#paint3_linear)"/>
</g>
<g id="Vector">
<use xlink:href="#path4_fill" transform="matrix(-0.988081 -0.153933 -0.153933 0.988081 6165.48 1783.34)" fill="url(#paint4_linear)"/>
</g>
<g id="Vector">
<use xlink:href="#path5_fill" transform="matrix(-0.988081 -0.153933 -0.153933 0.988081 6165.95 1819.38)" fill="url(#paint5_linear)"/>
</g>
<g id="Vector">
<use xlink:href="#path6_fill" transform="matrix(-0.988081 -0.153933 -0.153933 0.988081 6145.53 1810.91)" fill="url(#paint6_linear)"/>
</g>
<g id="Vector">
<use xlink:href="#path7_fill" transform="matrix(-0.988081 -0.153933 -0.153933 0.988081 6165.18 1783.3)" fill="url(#paint7_linear)"/>
</g>
<g id="Group" opacity="0.7">
<g id="Vector" opacity="0.7">
<use xlink:href="#path8_fill" transform="matrix(-0.988081 -0.153933 -0.153933 0.988081 6162.38 1803.2)" fill="#FFFFFF"/>
</g>
</g>
<g id="Group" opacity="0.7">
<g id="Vector" opacity="0.7">
<use xlink:href="#path9_fill" transform="matrix(-0.988081 -0.153933 -0.153933 0.988081 6162.2 1810.98)" fill="#FFFFFF"/>
</g>
</g>
<g id="Vector">
<use xlink:href="#path10_stroke" transform="matrix(-0.988081 -0.153933 -0.153933 0.988081 6175.02 1784.83)" fill="#FFFFFF"/>
</g>
</g>
</g>
</g>
<defs>
<linearGradient id="paint1_linear" x1="0" y1="0" x2="1" y2="0" gradientUnits="userSpaceOnUse" gradientTransform="matrix(-2.29042 3.58523 3.58523 2.29042 4.03559 -1.17639)">
<stop offset="0" stop-color="#DADADA"/>
<stop offset="1" stop-color="#FFFFFF"/>
</linearGradient>
<linearGradient id="paint2_linear" x1="0" y1="0" x2="1" y2="0" gradientUnits="userSpaceOnUse" gradientTransform="matrix(0.509232 -11.0876 -11.0876 -0.509232 20.2025 11.1769)">
<stop offset="0" stop-color="#DADADA"/>
<stop offset="1" stop-color="#FFFFFF"/>
</linearGradient>
<linearGradient id="paint3_linear" x1="0" y1="0" x2="1" y2="0" gradientUnits="userSpaceOnUse" gradientTransform="matrix(-8.51174 -21.1335 -21.1335 8.51174 24.846 16.5681)">
<stop offset="0" stop-color="#EDEDED"/>
<stop offset="1" stop-color="#FFFFFF"/>
</linearGradient>
<linearGradient id="paint4_linear" x1="0" y1="0" x2="1" y2="0" gradientUnits="userSpaceOnUse" gradientTransform="matrix(-11.5253 6.50733 6.50733 11.5253 7.98802 8.72216)">
<stop offset="0" stop-color="#EDEDED"/>
<stop offset="1" stop-color="#FFFFFF"/>
</linearGradient>
<linearGradient id="paint5_linear" x1="0" y1="0" x2="1" y2="0" gradientUnits="userSpaceOnUse" gradientTransform="matrix(0.711712 -15.9868 -15.9868 -0.711712 37.9799 18.9271)">
<stop offset="0" stop-color="#EDEDED"/>
<stop offset="1" stop-color="#FFFFFF"/>
</linearGradient>
<linearGradient id="paint6_linear" x1="0" y1="0" x2="1" y2="0" gradientUnits="userSpaceOnUse" gradientTransform="matrix(-14.9105 -9.22976 -9.22977 14.9105 12.7399 -3.52823)">
<stop offset="0" stop-color="#DADADA"/>
<stop offset="1" stop-color="#FFFFFF"/>
</linearGradient>
<linearGradient id="paint7_linear" x1="0" y1="0" x2="1" y2="0" gradientUnits="userSpaceOnUse" gradientTransform="matrix(-16.4877 -30.5149 -30.5149 16.4877 47.8133 26.3336)">
<stop offset="0" stop-color="#EDEDED"/>
<stop offset="1" stop-color="#FFFFFF"/>
</linearGradient>
<path id="path0_stroke" d="M 30.0193 35.6108L 30.3693 35.9679L 30.3693 35.9679L 30.0193 35.6108ZM 142.533 25.4455L 142.928 25.1392L 142.533 25.4455ZM 131.581 70.8324L 131.548 71.3313L 131.581 70.8324ZM 103.105 35.1837L 102.606 35.1576L 102.606 35.1576L 103.105 35.1837ZM 184.445 2.9349L 184.545 2.4451L 184.545 2.4451L 184.445 2.9349ZM 0.648809 94.8561C 0.619871 94.3703 0.595294 93.8913 0.574834 93.4148L -0.424245 93.4577C -0.403597 93.9384 -0.378596 94.4257 -0.349422 94.9156L 0.648809 94.8561ZM 0.502048 90.5551C 0.494877 89.5825 0.506365 88.6344 0.536322 87.6998L -0.463165 87.6678C -0.493392 88.6124 -0.50512 89.5802 -0.497925 90.5625L 0.502048 90.5551ZM 0.68916 84.8416C 0.762513 83.8716 0.856398 82.9276 0.971601 81.9963L -0.0208399 81.8735C -0.137439 82.8167 -0.233677 83.7844 -0.30799 84.7662L 0.68916 84.8416ZM 1.39306 79.1761C 1.56081 78.2229 1.75027 77.2959 1.96372 76.3797L 0.98979 76.1528C 0.773343 77.0823 0.578413 78.0361 0.408206 79.0027L 1.39306 79.1761ZM 2.68922 73.6212C 2.96011 72.6992 3.25296 71.8013 3.57174 70.9116L 2.63033 70.5743C 2.3068 71.4776 2.00493 72.4031 1.72979 73.3392L 2.68922 73.6212ZM 4.61134 68.2556C 4.98493 67.3768 5.37975 66.5179 5.80108 65.6639L 4.90428 65.2215C 4.47696 66.0878 4.0704 66.9723 3.69106 67.8643L 4.61134 68.2556ZM 7.13203 63.1398C 7.59722 62.3111 8.08209 61.4968 8.59238 60.6842L 7.74548 60.1524C 7.22897 60.9751 6.73154 61.8105 6.26004 62.6503L 7.13203 63.1398ZM 10.1655 58.2997C 10.7043 57.5202 11.2609 56.7492 11.8405 55.977L 11.0407 55.3767C 10.4556 56.1564 9.88759 56.9432 9.34289 57.7311L 10.1655 58.2997ZM 13.5971 53.7184C 14.1898 52.9814 14.7982 52.248 15.4265 51.5108L 14.6654 50.8622C 14.0328 51.6044 13.4153 52.3488 12.8178 53.0916L 13.5971 53.7184ZM 17.3157 49.3482C 17.9451 48.6442 18.5882 47.9396 19.2481 47.2294L 18.5156 46.5487C 17.8527 47.2622 17.203 47.9738 16.5702 48.6817L 17.3157 49.3482ZM 21.2207 45.14C 21.876 44.4561 22.5434 43.7685 23.2249 43.0738L 22.511 42.3735C 21.8277 43.0701 21.1561 43.7619 20.4987 44.4481L 21.2207 45.14ZM 25.2487 41.0298C 25.9169 40.3604 26.5959 39.6851 27.2865 39.0016L 26.5831 38.2909C 25.8916 38.9752 25.2105 39.6526 24.541 40.3233L 25.2487 41.0298ZM 29.3362 36.9815C 29.6781 36.6456 30.0225 36.3079 30.3693 35.9679L 29.6694 35.2537C 29.3224 35.5938 28.9776 35.932 28.6355 36.2681L 29.3362 36.9815ZM 30.3693 35.9679C 30.7176 35.6266 31.07 35.2882 31.4303 34.9493L 30.745 34.221C 30.3811 34.5634 30.0213 34.9088 29.6694 35.2537L 30.3693 35.9679ZM 33.6348 32.955C 34.3754 32.3101 35.1335 31.6737 35.9147 31.0408L 35.2852 30.2638C 34.4972 30.9022 33.7255 31.55 32.9781 32.2008L 33.6348 32.955ZM 38.2561 29.2077C 39.0386 28.6153 39.835 28.0319 40.6505 27.4535L 40.0719 26.6379C 39.2502 27.2207 38.4414 27.8133 37.6526 28.4103L 38.2561 29.2077ZM 43.1009 25.7694C 43.922 25.2226 44.7542 24.6852 45.6025 24.1542L 45.0719 23.3066C 44.2177 23.8414 43.3736 24.3864 42.5466 24.9371L 43.1009 25.7694ZM 48.1507 22.6072C 49.0006 22.1068 49.8591 21.6166 50.7313 21.1336L 50.2468 20.2588C 49.3689 20.7449 48.4989 21.2418 47.6434 21.7454L 48.1507 22.6072ZM 53.3524 19.7263C 54.2305 19.2693 55.1153 18.8231 56.0117 18.3852L 55.5728 17.4867C 54.6707 17.9273 53.7745 18.3793 52.8907 18.8393L 53.3524 19.7263ZM 58.7053 17.1115C 59.6054 16.6997 60.5103 16.2994 61.425 15.9084L 61.032 14.9889C 60.1115 15.3823 59.1951 15.7878 58.2893 16.2022L 58.7053 17.1115ZM 64.1768 14.7731C 65.0988 14.4063 66.0239 14.0517 66.9573 13.7076L 66.6114 12.7694C 65.672 13.1157 64.735 13.4748 63.8071 13.844L 64.1768 14.7731ZM 69.7628 12.7142C 70.7032 12.3949 71.6448 12.0887 72.5933 11.7941L 72.2967 10.8391C 71.3419 11.1356 70.3878 11.4459 69.4413 11.7673L 69.7628 12.7142ZM 75.4473 10.9495C 76.4037 10.6804 77.3598 10.4254 78.3214 10.1833L 78.0772 9.21361C 77.1089 9.45742 76.1395 9.71594 75.1764 9.98686L 75.4473 10.9495ZM 81.2172 9.49775C 82.1887 9.28238 83.1579 9.08227 84.1314 8.89645L 83.9439 7.91419C 82.9631 8.10143 81.9793 8.30454 81.0008 8.52145L 81.2172 9.49775ZM 87.06 8.38353C 88.0421 8.22711 89.02 8.08711 90.001 7.96295L 89.8754 6.97087C 88.8864 7.09608 87.8926 7.23835 86.9027 7.39598L 87.06 8.38353ZM 92.9585 7.63852C 93.9502 7.54668 94.9355 7.47262 95.9226 7.41624L 95.8656 6.41787C 94.8695 6.4748 93.8666 6.55018 92.8663 6.64278L 92.9585 7.63852ZM 98.8891 7.30142C 99.8838 7.28154 100.87 7.28078 101.856 7.29976L 101.876 6.29994C 100.879 6.28083 99.8734 6.28159 98.8692 6.30162L 98.8891 7.30142ZM 104.826 7.41786C 105.819 7.47823 106.802 7.55918 107.783 7.66228L 107.888 6.66774C 106.895 6.56354 105.891 6.48078 104.886 6.41971L 104.826 7.41786ZM 110.723 8.03957C 111.705 8.18903 112.673 8.3604 113.639 8.55648L 113.838 7.57647C 112.86 7.37797 111.868 7.20231 110.874 7.05096L 110.723 8.03957ZM 116.529 9.22123C 117.49 9.46911 118.435 9.74011 119.376 10.0387L 119.678 9.08558C 118.724 8.78283 117.753 8.50424 116.778 8.25291L 116.529 9.22123ZM 122.169 11.0142C 123.094 11.3674 123.999 11.7445 124.899 12.152L 125.312 11.2411C 124.398 10.8274 123.464 10.4387 122.526 10.08L 122.169 11.0142ZM 127.554 13.4555C 128.426 13.9178 129.276 14.4043 130.119 14.9236L 130.643 14.0722C 129.787 13.5445 128.908 13.042 128.023 12.5721L 127.554 13.4555ZM 132.581 16.5543C 133.382 17.1238 134.161 17.7169 134.931 18.3445L 135.563 17.5696C 134.78 16.9315 133.975 16.3182 133.16 15.7392L 132.581 16.5543ZM 137.16 20.2895C 137.877 20.9579 138.572 21.6492 139.255 22.3755L 139.983 21.6903C 139.289 20.9521 138.571 20.2378 137.842 19.5581L 137.16 20.2895ZM 141.205 24.5868C 141.521 24.9691 141.83 25.3554 142.138 25.7519L 142.928 25.1392C 142.616 24.7364 142.297 24.3379 141.976 23.9495L 141.205 24.5868ZM 142.138 25.7519C 142.434 26.1336 142.723 26.5271 143.012 26.9409L 143.832 26.3683C 143.536 25.9446 143.232 25.5311 142.928 25.1392L 142.138 25.7519ZM 144.602 29.439C 145.089 30.2769 145.555 31.1485 146.005 32.0613L 146.902 31.6197C 146.445 30.6917 145.962 29.7896 145.466 28.9362L 144.602 29.439ZM 147.236 34.7736C 147.615 35.6816 147.969 36.6058 148.301 37.5536L 149.245 37.2232C 148.908 36.2615 148.543 35.31 148.158 34.3884L 147.236 34.7736ZM 149.203 40.3933C 149.476 41.3496 149.72 42.3087 149.935 43.2794L 150.912 43.063C 150.693 42.0772 150.442 41.0889 150.164 40.1184L 149.203 40.3933ZM 150.486 46.202C 150.639 47.1931 150.756 48.1735 150.836 49.1548L 151.833 49.0737C 151.751 48.0736 151.63 47.0574 151.474 46.0492L 150.486 46.202ZM 150.957 52.1149C 150.956 53.1231 150.909 54.103 150.812 55.0719L 151.807 55.1718C 151.906 54.1769 151.956 53.1478 151.957 52.1164L 150.957 52.1149ZM 150.349 57.9815C 150.131 58.961 149.856 59.8874 149.51 60.787L 150.444 61.1456C 150.803 60.209 151.099 59.2122 151.325 58.1993L 150.349 57.9815ZM 148.233 63.4066C 147.724 64.2448 147.153 65.0042 146.484 65.7162L 147.213 66.4006C 147.918 65.6479 148.552 64.8057 149.087 63.9261L 148.233 63.4066ZM 144.289 67.5948C 143.51 68.1281 142.675 68.5829 141.737 68.9753L 142.123 69.8977C 143.108 69.4843 144.032 68.981 144.853 68.4204L 144.289 67.5948ZM 138.96 69.8583C 138.047 70.0678 137.091 70.2176 136.055 70.3082L 136.142 71.3044C 137.212 71.2102 138.237 71.0497 139.184 70.833L 138.96 69.8583ZM 133.118 70.4001C 132.627 70.39 132.129 70.3681 131.614 70.3335L 131.548 71.3313C 132.074 71.3665 132.594 71.3894 133.097 71.3999L 133.118 70.4001ZM 131.614 70.3335C 131.101 70.2992 130.6 70.2485 130.095 70.1806L 129.962 71.1717C 130.483 71.2417 131.017 71.2957 131.548 71.3313L 131.614 70.3335ZM 127.103 69.5754C 126.113 69.3072 125.157 68.9809 124.21 68.5918L 123.83 69.5169C 124.806 69.9171 125.82 70.2635 126.842 70.5406L 127.103 69.5754ZM 121.451 67.2656C 120.557 66.7707 119.698 66.2312 118.854 65.6382L 118.279 66.4565C 119.144 67.064 120.049 67.6319 120.967 68.1405L 121.451 67.2656ZM 116.432 63.7508C 115.656 63.083 114.916 62.3833 114.197 61.6411L 113.479 62.3369C 114.213 63.0947 114.986 63.8256 115.78 64.5089L 116.432 63.7508ZM 112.153 59.3416C 111.503 58.5454 110.89 57.7284 110.304 56.8794L 109.481 57.4474C 110.078 58.3125 110.715 59.1618 111.378 59.974L 112.153 59.3416ZM 108.655 54.2775C 108.136 53.3845 107.657 52.4811 107.212 51.5552L 106.311 51.9891C 106.765 52.9323 107.262 53.8697 107.79 54.7796L 108.655 54.2775ZM 105.984 48.7298C 105.608 47.7632 105.276 46.797 104.984 45.8173L 104.026 46.1031C 104.324 47.1023 104.669 48.1068 105.052 49.0921L 105.984 48.7298ZM 104.231 42.8345C 104.02 41.8156 103.86 40.81 103.749 39.8005L 102.755 39.9101C 102.869 40.9436 103.037 41.9955 103.252 43.0368L 104.231 42.8345ZM 103.569 36.7399C 103.566 36.2234 103.578 35.7179 103.605 35.2098L 102.606 35.1576C 102.579 35.6803 102.566 36.2146 102.569 36.7451L 103.569 36.7399ZM 103.605 35.2098C 103.631 34.7113 103.665 34.2238 103.707 33.7385L 102.71 33.652C 102.668 34.1459 102.632 34.6505 102.606 35.1576L 103.605 35.2098ZM 104.06 30.8715C 104.216 29.8969 104.406 28.961 104.63 28.0436L 103.659 27.8061C 103.43 28.7431 103.232 29.7182 103.072 30.7127L 104.06 30.8715ZM 105.435 25.2742C 105.751 24.343 106.099 23.4549 106.487 22.5872L 105.574 22.1792C 105.177 23.0681 104.811 23.9996 104.488 24.9529L 105.435 25.2742ZM 107.791 20.0131C 108.273 19.1658 108.785 18.3624 109.339 17.5809L 108.523 17.0027C 107.956 17.8042 107.417 18.6493 106.922 19.5183L 107.791 20.0131ZM 111.12 15.3126C 111.754 14.5816 112.413 13.8915 113.112 13.2241L 112.421 12.5009C 111.706 13.1843 111.014 13.9085 110.365 14.6575L 111.12 15.3126ZM 115.289 11.3246C 116.041 10.7237 116.814 10.1585 117.622 9.61566L 117.064 8.78572C 116.24 9.33977 115.434 9.92923 114.665 10.5431L 115.289 11.3246ZM 120.085 8.09261C 120.921 7.61697 121.773 7.17133 122.653 6.74683L 122.219 5.8461C 121.324 6.2778 120.442 6.73914 119.59 7.22332L 120.085 8.09261ZM 125.305 5.56782C 126.197 5.20315 127.099 4.86354 128.024 4.54321L 127.696 3.59832C 126.759 3.92305 125.831 4.27234 124.927 4.6423L 125.305 5.56782ZM 130.794 3.66066C 131.72 3.3901 132.655 3.14062 133.605 2.9085L 133.368 1.93703C 132.407 2.17177 131.451 2.42701 130.514 2.70075L 130.794 3.66066ZM 136.449 2.27594C 137.397 2.08455 138.351 1.91114 139.316 1.75325L 139.155 0.76636C 138.181 0.925725 137.209 1.10244 136.251 1.29567L 136.449 2.27594ZM 142.203 1.33174C 143.166 1.20743 144.131 1.09864 145.103 1.00373L 145.006 0.00845472C 144.026 0.104121 143.046 0.214658 142.075 0.339965L 142.203 1.33174ZM 148.014 0.762437C 148.985 0.695761 149.956 0.642626 150.93 0.601919L 150.889 -0.397209C 149.907 -0.356211 148.924 -0.302342 147.945 -0.235217L 148.014 0.762437ZM 153.85 0.516965C 154.826 0.500666 155.799 0.496284 156.772 0.503042L 156.779 -0.496934C 155.8 -0.503715 154.816 -0.499278 153.833 -0.482896L 153.85 0.516965ZM 159.695 0.556361C 160.674 0.585113 161.647 0.624427 162.617 0.67374L 162.668 -0.324971C 161.693 -0.374534 160.709 -0.414279 159.724 -0.443208L 159.695 0.556361ZM 165.536 0.852536C 166.517 0.922696 167.488 1.00221 168.452 1.09065L 168.543 0.094833C 167.574 0.00595945 166.594 -0.0743728 165.608 -0.144914L 165.536 0.852536ZM 171.362 1.38656C 172.343 1.49607 173.31 1.61379 174.265 1.73937L 174.396 0.747894C 173.436 0.621702 172.459 0.502803 171.473 0.392733L 171.362 1.38656ZM 177.162 2.1489C 178.143 2.29761 179.105 2.45337 180.049 2.61583L 180.219 1.63031C 179.27 1.46703 178.298 1.30967 177.311 1.16017L 177.162 2.1489ZM 182.926 3.14189C 183.406 3.23485 183.878 3.32899 184.344 3.42469L 184.545 2.4451C 184.076 2.34886 183.599 2.25364 183.117 2.16016L 182.926 3.14189ZM 184.344 3.42469C 184.891 3.53702 185.438 3.65016 185.985 3.76435L 186.19 2.78544C 185.642 2.67107 185.093 2.5576 184.545 2.4451L 184.344 3.42469ZM 189.264 4.46151C 190.356 4.69826 191.446 4.93928 192.536 5.18569L 192.756 4.21031C 191.664 3.96338 190.57 3.7214 189.476 3.48421L 189.264 4.46151ZM 195.8 5.94073C 196.888 6.19808 197.972 6.46089 199.056 6.73044L 199.297 5.75999C 198.21 5.48972 197.12 5.22559 196.031 4.96762L 195.8 5.94073ZM 202.301 7.55861C 203.382 7.84161 204.459 8.13122 205.535 8.42896L 205.802 7.46515C 204.722 7.16646 203.638 6.87508 202.555 6.59124L 202.301 7.55861ZM 208.755 9.34518C 209.291 9.50198 209.825 9.66057 210.36 9.82161L 210.648 8.86411C 210.112 8.70249 209.574 8.54278 209.036 8.38543L 208.755 9.34518Z"/>
<path id="path1_fill" d="M 9.03106 -1.18816e-08L -1.5331e-09 0.760465L 8.04122 4.8361L 9.03106 -1.18816e-08Z"/>
<path id="path2_fill" d="M 9.66051 -5.17425e-09L 29.4731 10.2091L 25.1222 13.887L 8.64743 7.71421L 6.89901e-09 8.2431L 9.66051 -5.17425e-09Z"/>
<path id="path3_fill" d="M 4.99881 -1.5791e-08L 25.5961 7.71774L 2.11569e-08 26.5751L 4.99881 -1.5791e-08Z"/>
<path id="path4_fill" d="M 0.301735 2.95124e-08L -3.43417e-08 20.0981L 19.8126 30.3072L 0.301735 2.95124e-08Z"/>
<path id="path5_fill" d="M 60.2139 12.8751L 2.11569e-08 18.8573L 25.5961 -4.36937e-09L 60.2139 12.8751Z"/>
<path id="path6_fill" d="M -1.99305e-08 3.6779L 4.3509 9.58194e-09L 38.7403 18.098L -1.99305e-08 3.6779Z"/>
<path id="path7_fill" d="M 53.9003 48.4051L 19.5109 30.3072L -2.33033e-08 2.95124e-08L 53.9003 48.4051Z"/>
<path id="path8_fill" d="M 54.202 28.3071C 54.202 28.3071 53.361 27.8535 51.8892 27.0602C 51.1525 26.665 50.2575 26.1856 49.2311 25.6358C 48.2048 25.0854 47.0469 24.4645 45.7799 23.7945C 44.5136 23.1231 43.1422 22.3953 41.6915 21.6255C 40.2401 20.8579 38.709 20.0482 37.1256 19.2105C 35.5398 18.3765 33.9015 17.515 32.2365 16.6396C 30.5703 15.7669 28.8776 14.8802 27.1845 13.9941C 25.4898 13.1109 23.7951 12.2282 22.1268 11.3591C 20.4569 10.4931 18.8137 9.64048 17.2235 8.81557C 15.6338 7.98949 14.0931 7.19919 12.6325 6.44862C 11.1719 5.69797 9.79064 4.98822 8.51643 4.33302C 7.24244 3.67586 6.07098 3.08 5.03335 2.55259C 3.9951 2.02455 3.09034 1.56417 2.34566 1.18504C 0.852937 0.430861 -3.43417e-08 -5.17425e-09 -3.43417e-08 -5.17425e-09C -3.43417e-08 -5.17425e-09 0.840983 0.453547 2.31301 1.24721C 3.04984 1.64228 3.9447 2.12134 4.97133 2.67151C 5.99712 3.222 7.15522 3.8429 8.42253 4.51285C 9.68811 5.18438 11.0598 5.91219 12.5105 6.68144C 13.9613 7.45117 15.4902 8.26453 17.0766 9.09745C 18.6622 9.93107 20.3007 10.7924 21.9655 11.6675C 23.6317 12.5401 25.325 13.4265 27.0179 14.3128C 28.7126 15.1959 30.4072 16.0787 32.0755 16.9477C 33.7455 17.8137 35.3886 18.6659 36.979 19.4908C 38.5712 20.3117 40.1103 21.105 41.5701 21.8577C 43.0306 22.6088 44.4116 23.3182 45.6864 23.9737C 46.9598 24.6311 48.1309 25.2261 49.1694 25.7541C 50.207 26.2819 51.1119 26.7427 51.857 27.1217C 53.3491 27.8762 54.202 28.3071 54.202 28.3071Z"/>
<path id="path9_fill" d="M 55.2151 20.5928C 55.2151 20.5928 54.3569 20.2594 52.855 19.6756C 52.1031 19.3856 51.1902 19.0334 50.1427 18.63C 49.0959 18.2259 47.9149 17.7695 46.6231 17.2804C 45.3325 16.7894 43.9336 16.2572 42.4548 15.694C 40.9753 15.1315 39.4166 14.5358 37.8004 13.9289C 36.1843 13.3206 34.5147 12.6926 32.8176 12.0541C 31.1201 11.4186 29.3953 10.7731 27.6706 10.1279C 25.9447 9.48631 24.2181 8.84422 22.5191 8.21249C 20.8185 7.58406 19.1455 6.96575 17.5262 6.36699C 15.9068 5.76697 14.3389 5.19607 12.8522 4.65344C 11.3659 4.1097 9.96046 3.59618 8.66313 3.12254C 7.36679 2.64662 6.1754 2.21733 5.11901 1.83773C 4.06301 1.45703 3.14273 1.12523 2.38492 0.852146C 0.867382 0.309587 4.69131e-08 -9.42863e-08 4.69131e-08 -9.42863e-08C 4.69131e-08 -9.42863e-08 0.858423 0.333841 2.36037 0.917531C 3.11267 1.20749 4.02542 1.55923 5.07237 1.96324C 6.11941 2.36726 7.30046 2.82316 8.59227 3.31281C 9.88272 3.80388 11.2813 4.33663 12.7605 4.89928C 14.2395 5.46241 15.7989 6.0578 17.4151 6.66464C 19.0312 7.27251 20.7009 7.90047 22.3976 8.53903C 24.0954 9.17445 25.8201 9.81968 27.5449 10.4653C 29.2707 11.1068 30.9973 11.7485 32.6965 12.3801C 34.3968 13.0086 36.0703 13.6268 37.6895 14.2255C 39.3083 14.8255 40.8771 15.396 42.3634 15.9393C 43.8499 16.4828 45.2551 16.996 46.5524 17.4697C 47.8489 17.9459 49.0405 18.3751 50.0962 18.755C 51.1521 19.1357 52.0725 19.4675 52.8304 19.741C 54.348 20.2832 55.2151 20.5928 55.2151 20.5928Z"/>
<path id="path10_stroke" d="M 63.8625 48.4051L 63.912 48.9027L 65.04 48.7906L 64.1966 48.0332L 63.8625 48.4051ZM 63.6466 48.2112L 63.8208 47.7425L 61.3566 46.8264L 63.3125 48.5832L 63.6466 48.2112ZM 63.8087 48.2715L 63.6345 48.7401L 64.0416 47.829L 63.8087 48.2715ZM 63.5794 48.1507L 63.2453 48.5228L 63.2915 48.5643L 63.3465 48.5932L 63.5794 48.1507ZM 9.96224 2.95124e-08L 10.2963 -0.372008L 9.47879 -1.10619L 9.4623 -0.00750569L 9.96224 2.95124e-08ZM 9.66051 20.0981L 9.98505 20.4784L 10.1571 20.3317L 10.1604 20.1056L 9.66051 20.0981ZM 6.89901e-09 28.3412L -0.324548 27.9608L -0.913996 28.4638L -0.21283 28.7936L 6.89901e-09 28.3412ZM 7.8533 32.0354L 8.34468 32.1279L 8.4162 31.7477L 8.06613 31.583L 7.8533 32.0354ZM 3.64862 54.3874L 3.15724 54.2949L 3.03385 54.9509L 3.69806 54.8849L 3.64862 54.3874ZM 64.1966 48.0332L 63.9807 47.8392L 63.3125 48.5832L 63.5284 48.7771L 64.1966 48.0332ZM 63.4723 48.6798L 63.6345 48.7401L 63.983 47.8028L 63.8208 47.7425L 63.4723 48.6798ZM 64.0416 47.829L 63.8123 47.7083L 63.3465 48.5932L 63.5758 48.7139L 64.0416 47.829ZM 63.9135 47.7787L 10.2963 -0.372008L 9.62816 0.372008L 63.2453 48.5228L 63.9135 47.7787ZM 9.4623 -0.00750569L 9.16056 20.0906L 10.1604 20.1056L 10.4622 0.00750575L 9.4623 -0.00750569ZM 9.33596 19.7177L -0.324548 27.9608L 0.324548 28.7216L 9.98505 20.4784L 9.33596 19.7177ZM -0.21283 28.7936L 7.64047 32.4879L 8.06613 31.583L 0.21283 27.8888L -0.21283 28.7936ZM 7.36192 31.943L 3.15724 54.2949L 4.14001 54.4798L 8.34468 32.1279L 7.36192 31.943ZM 3.69806 54.8849L 63.912 48.9027L 63.8131 47.9076L 3.59919 53.8898L 3.69806 54.8849Z"/>
</defs>
</svg>
