<svg width="207" height="287" viewBox="0 0 207 287" version="1.1" xmlns="http://www.w3.org/2000/svg" xmlns:xlink="http://www.w3.org/1999/xlink">
<title>Group</title>
<desc>Created using Figma</desc>
<g id="Canvas" transform="translate(-4990 -1244)">
<g id="Group">
<g id="Group">
<g id="Group">
<g id="Group">
<g id="Vector">
<use xlink:href="#path0_stroke" transform="matrix(0.941724 0.336385 -0.336385 0.941724 4860.01 1245.18)" fill="#F9F6EF"/>
</g>
<g id="Vector">
<use xlink:href="#path1_stroke" transform="matrix(0.941724 0.336385 -0.336385 0.941724 5129.88 1400.96)" fill="#FFFFFF"/>
</g>
</g>
</g>
<g id="Group">
<g id="Vector">
<use xlink:href="#path2_fill" transform="matrix(0.941724 0.336385 -0.336385 0.941724 5138.28 1368.91)" fill="url(#paint2_linear)"/>
</g>
<g id="Vector">
<use xlink:href="#path3_fill" transform="matrix(0.941724 0.336385 -0.336385 0.941724 5145.03 1373.55)" fill="url(#paint3_linear)"/>
</g>
<g id="Vector">
<use xlink:href="#path4_fill" transform="matrix(0.941724 0.336385 -0.336385 0.941724 5136.18 1390.93)" fill="url(#paint4_linear)"/>
</g>
<g id="Vector">
<use xlink:href="#path5_fill" transform="matrix(0.941724 0.336385 -0.336385 0.941724 5118.09 1361.7)" fill="url(#paint5_linear)"/>
</g>
<g id="Vector">
<use xlink:href="#path6_fill" transform="matrix(0.941724 0.336385 -0.336385 0.941724 5170.64 1348.11)" fill="url(#paint6_linear)"/>
</g>
<g id="Vector">
<use xlink:href="#path7_fill" transform="matrix(0.941724 0.336385 -0.336385 0.941724 5165.44 1346.25)" fill="url(#paint7_linear)"/>
</g>
<g id="Vector">
<use xlink:href="#path8_fill" transform="matrix(0.941724 0.336385 -0.336385 0.941724 5128.34 1333)" fill="url(#paint8_linear)"/>
</g>
<g id="Group" opacity="0.7">
<g id="Vector" opacity="0.7">
<use xlink:href="#path9_fill" transform="matrix(0.941724 0.336385 -0.336385 0.941724 5148.54 1340.22)" fill="#FFFFFF"/>
</g>
</g>
<g id="Group" opacity="0.7">
<g id="Vector" opacity="0.7">
<use xlink:href="#path10_fill" transform="matrix(0.941724 0.336385 -0.336385 0.941724 5155.99 1342.88)" fill="#FFFFFF"/>
</g>
</g>
</g>
<g id="Vector">
<use xlink:href="#path11_stroke" transform="matrix(0.941724 0.336385 -0.336385 0.941724 5128.34 1333)" fill="#FFFFFF"/>
</g>
</g>
</g>
</g>
<defs>
<linearGradient id="paint2_linear" x1="0" y1="0" x2="1" y2="0" gradientUnits="userSpaceOnUse" gradientTransform="matrix(-11.7067 -4.46709 -4.46709 11.7067 15.7112 10.283)">
<stop offset="0" stop-color="#DADADA"/>
<stop offset="1" stop-color="#FFFFFF"/>
</linearGradient>
<linearGradient id="paint3_linear" x1="0" y1="0" x2="1" y2="0" gradientUnits="userSpaceOnUse" gradientTransform="matrix(-25.671 1.65154 1.65154 25.671 24.785 3.93319)">
<stop offset="0" stop-color="#EDEDED"/>
<stop offset="1" stop-color="#FFFFFF"/>
</linearGradient>
<linearGradient id="paint4_linear" x1="0" y1="0" x2="1" y2="0" gradientUnits="userSpaceOnUse" gradientTransform="matrix(0.418083 6.49852 6.49852 -0.418083 -0.13139 2.20788)">
<stop offset="0" stop-color="#DADADA"/>
<stop offset="1" stop-color="#FFFFFF"/>
</linearGradient>
<linearGradient id="paint5_linear" x1="0" y1="0" x2="1" y2="0" gradientUnits="userSpaceOnUse" gradientTransform="matrix(2.90107 14.6607 14.6607 -2.90107 12.0685 5.04386)">
<stop offset="0" stop-color="#EDEDED"/>
<stop offset="1" stop-color="#FFFFFF"/>
</linearGradient>
<linearGradient id="paint6_linear" x1="0" y1="0" x2="1" y2="0" gradientUnits="userSpaceOnUse" gradientTransform="matrix(-16.8909 -6.41815 -6.41814 16.8909 24.6762 25.9801)">
<stop offset="0" stop-color="#EDEDED"/>
<stop offset="1" stop-color="#FFFFFF"/>
</linearGradient>
<linearGradient id="paint7_linear" x1="0" y1="0" x2="1" y2="0" gradientUnits="userSpaceOnUse" gradientTransform="matrix(-15.1694 12.7222 12.7222 15.1694 -0.816565 20.2296)">
<stop offset="0" stop-color="#DADADA"/>
<stop offset="1" stop-color="#FFFFFF"/>
</linearGradient>
<linearGradient id="paint8_linear" x1="0" y1="0" x2="1" y2="0" gradientUnits="userSpaceOnUse" gradientTransform="matrix(-38.5479 6.8848 6.8848 38.5479 45.1434 -1.27639)">
<stop offset="0" stop-color="#EDEDED"/>
<stop offset="1" stop-color="#FFFFFF"/>
</linearGradient>
<path id="path0_stroke" d="M 111.883 192.588L 111.945 193.084L 111.883 192.588ZM 178.703 143.067L 179.194 143.16L 178.703 143.067ZM 176.758 112.002L 177.212 111.793L 177.212 111.793L 176.758 112.002ZM 151.793 99.0455L 151.79 98.5455L 151.79 98.5455L 151.793 99.0455ZM 126.349 112.817L 126.766 113.092L 126.349 112.817ZM 134.913 151.371L 134.692 151.82L 134.692 151.82L 134.913 151.371ZM 174.664 154.92L 174.503 154.446L 174.664 154.92ZM 246.796 103.2L 247.233 103.443L 246.796 103.2ZM 255.197 69.4262L 254.697 69.414L 255.197 69.4262ZM 251.726 32.6904L 252.215 32.5865L 251.726 32.6904ZM 191.528 4.59453L 191.748 5.04397L 191.748 5.04397L 191.528 4.59453ZM 164.822 47.5695L 164.322 47.5642L 164.822 47.5695ZM 248.904 95.3309L 248.837 94.8355L 248.904 95.3309ZM -0.384846 153.354C -0.0678372 153.736 0.25231 154.116 0.57313 154.491L 1.33316 153.841C 1.01476 153.469 0.699443 153.095 0.384846 152.715L -0.384846 153.354ZM 2.52281 156.704C 3.18817 157.436 3.86342 158.158 4.54304 158.863L 5.26288 158.168C 4.58838 157.469 3.92336 156.759 3.26311 156.031L 2.52281 156.704ZM 6.61689 160.95C 7.32562 161.643 8.04387 162.323 8.76579 162.988L 9.44296 162.252C 8.72646 161.593 8.01905 160.922 7.31574 160.235L 6.61689 160.95ZM 10.9627 164.95C 11.7097 165.598 12.4655 166.234 13.2243 166.854L 13.8569 166.079C 13.1037 165.464 12.3591 164.838 11.6179 164.195L 10.9627 164.95ZM 15.5371 168.687C 16.3182 169.288 17.1076 169.878 17.899 170.451L 18.4858 169.641C 17.7001 169.072 16.9222 168.491 16.1469 167.895L 15.5371 168.687ZM 20.3175 172.152C 21.131 172.707 21.9521 173.25 22.7743 173.778L 23.3145 172.936C 22.4981 172.412 21.6887 171.877 20.881 171.326L 20.3175 172.152ZM 25.2824 175.339C 26.1268 175.849 26.9779 176.347 27.8292 176.831L 28.3228 175.961C 27.4773 175.481 26.6379 174.99 25.7993 174.483L 25.2824 175.339ZM 30.4101 178.25C 31.2821 178.715 32.1596 179.168 33.0365 179.607L 33.4838 178.713C 32.6127 178.277 31.7467 177.83 30.8806 177.368L 30.4101 178.25ZM 35.6893 180.892C 36.5821 181.311 37.4794 181.718 38.3749 182.111L 38.7769 181.195C 37.8869 180.804 37.0009 180.403 36.1138 179.987L 35.6893 180.892ZM 41.0931 183.265C 42.0044 183.639 42.919 184.001 43.8307 184.35L 44.1884 183.417C 43.282 183.069 42.3785 182.711 41.4728 182.34L 41.0931 183.265ZM 46.5989 185.374C 47.5293 185.706 48.4615 186.026 49.3898 186.334L 49.7044 185.385C 48.7814 185.079 47.8598 184.762 46.9349 184.432L 46.5989 185.374ZM 52.1934 187.229C 53.1385 187.519 54.0841 187.798 55.0244 188.065L 55.2974 187.103C 54.3622 186.838 53.4269 186.561 52.487 186.273L 52.1934 187.229ZM 57.8717 188.84C 58.8263 189.09 59.7797 189.328 60.7263 189.555L 60.9591 188.582C 60.0173 188.357 59.0739 188.121 58.1244 187.873L 57.8717 188.84ZM 63.6009 190.212C 64.5694 190.424 65.535 190.624 66.4919 190.813L 66.6858 189.832C 65.7336 189.644 64.7777 189.445 63.8141 189.235L 63.6009 190.212ZM 69.3863 191.356C 70.3589 191.529 71.3263 191.692 72.283 191.843L 72.4394 190.855C 71.4872 190.705 70.5291 190.544 69.5613 190.372L 69.3863 191.356ZM 75.208 192.278C 76.1933 192.415 77.1706 192.542 78.1344 192.658L 78.2542 191.666C 77.2948 191.55 76.3265 191.424 75.346 191.288L 75.208 192.278ZM 81.0611 192.985C 82.0498 193.086 83.0271 193.177 83.9874 193.258L 84.0714 192.261C 83.1153 192.181 82.1469 192.09 81.1629 191.99L 81.0611 192.985ZM 86.9227 193.478C 87.9242 193.545 88.9093 193.601 89.8721 193.648L 89.9204 192.649C 88.9619 192.602 87.9857 192.547 86.9889 192.481L 86.9227 193.478ZM 92.8212 193.764C 93.8299 193.794 94.8149 193.815 95.7697 193.826L 95.7818 192.826C 94.8314 192.815 93.8555 192.795 92.8515 192.764L 92.8212 193.764ZM 98.7172 193.834C 99.7378 193.827 100.722 193.811 101.661 193.786L 101.634 192.786C 100.7 192.811 99.7259 192.827 98.7105 192.834L 98.7172 193.834ZM 104.591 193.678C 105.654 193.628 106.648 193.567 107.561 193.502L 107.489 192.504C 106.582 192.57 105.6 192.629 104.544 192.679L 104.591 193.678ZM 110.477 193.25C 111.013 193.195 111.505 193.139 111.945 193.084L 111.821 192.092C 111.386 192.146 110.905 192.201 110.375 192.255L 110.477 193.25ZM 111.945 193.084C 112.429 193.024 112.915 192.959 113.398 192.889L 113.255 191.899C 112.777 191.968 112.301 192.032 111.821 192.092L 111.945 193.084ZM 116.29 192.415C 117.25 192.239 118.211 192.044 119.162 191.833L 118.946 190.857C 118.003 191.066 117.061 191.257 116.11 191.431L 116.29 192.415ZM 122.011 191.147C 122.955 190.902 123.899 190.639 124.833 190.362L 124.548 189.403C 123.622 189.678 122.695 189.936 121.759 190.179L 122.011 191.147ZM 127.625 189.48C 128.551 189.171 129.474 188.846 130.387 188.507L 130.039 187.569C 129.134 187.905 128.226 188.225 127.309 188.532L 127.625 189.48ZM 133.116 187.445C 134.02 187.076 134.92 186.692 135.809 186.297L 135.403 185.383C 134.521 185.775 133.635 186.153 132.738 186.519L 133.116 187.445ZM 138.466 185.066C 139.346 184.642 140.221 184.204 141.083 183.756L 140.622 182.868C 139.766 183.313 138.905 183.744 138.031 184.165L 138.466 185.066ZM 143.66 182.367C 144.515 181.891 145.362 181.401 146.195 180.904L 145.683 180.045C 144.855 180.539 144.021 181.021 143.173 181.494L 143.66 182.367ZM 148.686 179.366C 149.512 178.839 150.329 178.301 151.131 177.756L 150.569 176.929C 149.773 177.47 148.968 178 148.148 178.523L 148.686 179.366ZM 153.527 176.075C 154.322 175.5 155.106 174.914 155.872 174.323L 155.262 173.531C 154.501 174.117 153.729 174.694 152.941 175.265L 153.527 176.075ZM 158.164 172.501C 158.924 171.878 159.671 171.245 160.398 170.609L 159.74 169.857C 159.019 170.487 158.284 171.11 157.53 171.728L 158.164 172.501ZM 162.572 168.647C 163.292 167.974 163.997 167.294 164.679 166.613L 163.972 165.905C 163.296 166.581 162.604 167.249 161.889 167.916L 162.572 168.647ZM 166.714 164.506C 167.387 163.783 168.041 163.054 168.669 162.326L 167.911 161.673C 167.29 162.393 166.649 163.109 165.982 163.825L 166.714 164.506ZM 170.537 160.065C 171.155 159.284 171.748 158.499 172.309 157.719L 171.497 157.135C 170.943 157.906 170.364 158.673 169.753 159.445L 170.537 160.065ZM 173.963 155.288C 174.503 154.447 175.011 153.604 175.478 152.772L 174.606 152.282C 174.147 153.101 173.654 153.919 173.122 154.748L 173.963 155.288ZM 176.832 150.154C 177.264 149.239 177.651 148.323 177.983 147.43L 177.046 147.081C 176.722 147.954 176.351 148.83 175.928 149.727L 176.832 150.154ZM 178.872 144.606C 178.996 144.122 179.104 143.634 179.194 143.16L 178.211 142.974C 178.125 143.433 178.023 143.889 177.903 144.359L 178.872 144.606ZM 179.194 143.16C 179.291 142.648 179.384 142.125 179.472 141.597L 178.486 141.432C 178.398 141.954 178.307 142.467 178.211 142.974L 179.194 143.16ZM 179.931 138.45C 180.061 137.416 180.171 136.357 180.259 135.289L 179.263 135.207C 179.176 136.263 179.067 137.302 178.939 138.326L 179.931 138.45ZM 180.452 132.115C 180.492 131.062 180.509 129.995 180.499 128.934L 179.499 128.943C 179.509 129.992 179.493 131.034 179.453 132.077L 180.452 132.115ZM 180.387 125.751C 180.321 124.689 180.224 123.624 180.095 122.577L 179.102 122.699C 179.23 123.73 179.324 124.765 179.389 125.814L 180.387 125.751ZM 179.597 119.424C 179.391 118.37 179.145 117.324 178.86 116.312L 177.897 116.584C 178.177 117.575 178.414 118.58 178.615 119.615L 179.597 119.424ZM 177.841 113.271C 177.645 112.772 177.434 112.275 177.212 111.793L 176.304 112.211C 176.519 112.679 176.719 113.15 176.91 113.637L 177.841 113.271ZM 177.212 111.793C 177.002 111.336 176.761 110.878 176.504 110.444L 175.643 110.953C 175.888 111.366 176.105 111.778 176.304 112.211L 177.212 111.793ZM 174.722 107.989C 174.073 107.245 173.344 106.53 172.573 105.871L 171.924 106.632C 172.669 107.268 173.346 107.931 173.967 108.646L 174.722 107.989ZM 170.171 104.067C 169.348 103.522 168.477 103.01 167.59 102.544L 167.125 103.43C 167.991 103.884 168.819 104.37 169.618 104.9L 170.171 104.067ZM 164.882 101.277C 163.963 100.895 163.018 100.549 162.078 100.246L 161.772 101.198C 162.693 101.494 163.599 101.826 164.498 102.2L 164.882 101.277ZM 159.202 99.4453C 158.217 99.2136 157.228 99.0241 156.268 98.8816L 156.121 99.8708C 157.061 100.01 158.008 100.192 158.972 100.419L 159.202 99.4453ZM 153.289 98.5806C 152.782 98.5547 152.277 98.5428 151.79 98.5455L 151.796 99.5455C 152.268 99.5428 152.744 99.554 153.238 99.5793L 153.289 98.5806ZM 151.79 98.5455C 151.282 98.5485 150.767 98.565 150.261 98.5943L 150.318 99.5926C 150.812 99.564 151.301 99.5483 151.796 99.5455L 151.79 98.5455ZM 147.221 98.9267C 146.218 99.088 145.212 99.3019 144.23 99.5608L 144.485 100.528C 145.444 100.275 146.402 100.071 147.379 99.914L 147.221 98.9267ZM 141.317 100.482C 140.365 100.834 139.419 101.236 138.505 101.677L 138.939 102.578C 139.832 102.147 140.734 101.764 141.664 101.42L 141.317 100.482ZM 135.819 103.131C 134.95 103.655 134.096 104.227 133.281 104.832L 133.876 105.635C 134.672 105.045 135.487 104.499 136.335 103.987L 135.819 103.131ZM 130.916 106.767C 130.162 107.447 129.433 108.172 128.75 108.923L 129.49 109.596C 130.156 108.864 130.85 108.173 131.586 107.509L 130.916 106.767ZM 126.809 111.287C 126.507 111.695 126.212 112.117 125.932 112.541L 126.766 113.092C 127.039 112.679 127.319 112.279 127.613 111.881L 126.809 111.287ZM 125.932 112.541C 125.632 112.994 125.342 113.458 125.068 113.921L 125.93 114.43C 126.197 113.977 126.473 113.535 126.766 113.092L 125.932 112.541ZM 123.56 116.806C 123.105 117.797 122.701 118.816 122.359 119.832L 123.306 120.152C 123.64 119.16 124.025 118.19 124.469 117.223L 123.56 116.806ZM 121.486 122.97C 121.251 124.034 121.074 125.116 120.959 126.185L 121.954 126.291C 122.065 125.25 122.233 124.222 122.462 123.185L 121.486 122.97ZM 120.797 129.441C 120.806 130.53 120.88 131.627 121.016 132.696L 122.008 132.569C 121.875 131.53 121.805 130.493 121.797 129.434L 120.797 129.441ZM 121.631 135.903C 121.902 136.954 122.244 138.002 122.648 139.008L 123.576 138.635C 123.184 137.66 122.862 136.674 122.599 135.653L 121.631 135.903ZM 124.068 141.953C 124.602 142.89 125.21 143.811 125.876 144.678L 126.669 144.07C 126.024 143.23 125.454 142.367 124.937 141.458L 124.068 141.953ZM 128.04 147.13C 128.8 147.88 129.634 148.601 130.516 149.264L 131.117 148.465C 130.262 147.822 129.479 147.145 128.742 146.418L 128.04 147.13ZM 133.249 151.056C 133.714 151.321 134.2 151.578 134.692 151.82L 135.133 150.923C 134.655 150.688 134.196 150.444 133.743 150.187L 133.249 151.056ZM 134.692 151.82C 135.13 152.036 135.576 152.247 136.023 152.452L 136.439 151.542C 135.999 151.341 135.565 151.135 135.133 150.923L 134.692 151.82ZM 138.734 153.606C 139.641 153.964 140.568 154.303 141.5 154.616L 141.819 153.669C 140.899 153.359 139.996 153.029 139.101 152.675L 138.734 153.606ZM 144.314 155.486C 145.255 155.751 146.21 155.995 147.167 156.214L 147.39 155.24C 146.446 155.023 145.514 154.785 144.585 154.523L 144.314 155.486ZM 150.052 156.801C 151.017 156.973 151.992 157.121 152.963 157.244L 153.089 156.252C 152.13 156.131 151.179 155.986 150.227 155.817L 150.052 156.801ZM 155.893 157.54C 156.873 157.613 157.859 157.661 158.836 157.683L 158.858 156.683C 157.894 156.662 156.935 156.615 155.968 156.542L 155.893 157.54ZM 161.783 157.667C 162.767 157.635 163.754 157.574 164.726 157.486L 164.635 156.49C 163.678 156.577 162.72 156.636 161.75 156.668L 161.783 157.667ZM 167.654 157.128C 168.63 156.978 169.603 156.795 170.557 156.584L 170.34 155.607C 169.403 155.816 168.462 155.992 167.502 156.139L 167.654 157.128ZM 173.416 155.842C 173.888 155.701 174.361 155.551 174.825 155.393L 174.503 154.446C 174.048 154.601 173.594 154.745 173.131 154.883L 173.416 155.842ZM 174.825 155.393C 175.319 155.225 175.81 155.058 176.297 154.891L 175.972 153.945C 175.487 154.112 174.997 154.279 174.503 154.446L 174.825 155.393ZM 179.17 153.895C 180.154 153.551 181.121 153.208 182.072 152.868L 181.735 151.926C 180.786 152.266 179.821 152.608 178.839 152.952L 179.17 153.895ZM 184.938 151.829C 185.909 151.472 186.862 151.118 187.797 150.766L 187.444 149.83C 186.512 150.181 185.562 150.534 184.594 150.89L 184.938 151.829ZM 190.669 149.668C 191.637 149.293 192.586 148.919 193.514 148.548L 193.143 147.619C 192.217 147.99 191.273 148.361 190.308 148.735L 190.669 149.668ZM 196.336 147.4C 197.298 147.002 198.239 146.605 199.159 146.211L 198.764 145.292C 197.848 145.685 196.912 146.079 195.953 146.476L 196.336 147.4ZM 201.972 144.979C 202.924 144.553 203.855 144.128 204.76 143.706L 204.337 142.799C 203.436 143.22 202.513 143.642 201.564 144.066L 201.972 144.979ZM 207.524 142.384C 208.461 141.925 209.375 141.466 210.261 141.008L 209.802 140.12C 208.921 140.575 208.017 141.029 207.084 141.486L 207.524 142.384ZM 212.968 139.57C 213.886 139.068 214.777 138.565 215.639 138.063L 215.136 137.199C 214.28 137.697 213.4 138.194 212.488 138.693L 212.968 139.57ZM 218.268 136.479C 219.156 135.925 220.016 135.367 220.844 134.811L 220.286 133.981C 219.465 134.533 218.619 135.081 217.738 135.63L 218.268 136.479ZM 223.358 133.051C 224.202 132.435 225.018 131.813 225.801 131.191L 225.179 130.408C 224.404 131.024 223.605 131.634 222.768 132.243L 223.358 133.051ZM 228.17 129.218C 228.955 128.533 229.713 127.838 230.439 127.141L 229.746 126.42C 229.028 127.109 228.288 127.788 227.512 128.465L 228.17 129.218ZM 232.604 124.956C 233.314 124.204 234.001 123.437 234.662 122.666L 233.902 122.015C 233.249 122.778 232.578 123.526 231.876 124.27L 232.604 124.956ZM 236.607 120.284C 237.236 119.476 237.85 118.653 238.446 117.82L 237.632 117.238C 237.042 118.063 236.441 118.87 235.818 119.669L 236.607 120.284ZM 240.188 115.289C 240.748 114.445 241.3 113.584 241.845 112.709L 240.996 112.18C 240.455 113.049 239.91 113.899 239.355 114.736L 240.188 115.289ZM 243.436 110.09C 243.95 109.223 244.464 108.34 244.979 107.441L 244.111 106.944C 243.598 107.84 243.088 108.717 242.576 109.58L 243.436 110.09ZM 246.484 104.784C 246.732 104.341 246.982 103.894 247.233 103.443L 246.36 102.956C 246.109 103.407 245.859 103.853 245.612 104.295L 246.484 104.784ZM 247.233 103.443C 247.472 103.014 247.707 102.579 247.935 102.143L 247.049 101.68C 246.824 102.11 246.595 102.533 246.36 102.956L 247.233 103.443ZM 249.236 99.4919C 249.646 98.6008 250.036 97.6928 250.403 96.7805L 249.475 96.4072C 249.113 97.3086 248.732 98.1944 248.327 99.0742L 249.236 99.4919ZM 251.441 94.0183C 251.765 93.0931 252.071 92.1543 252.355 91.2136L 251.398 90.9243C 251.116 91.8549 250.818 92.7731 250.497 93.6878L 251.441 94.0183ZM 253.149 88.374C 253.394 87.4248 253.621 86.4651 253.828 85.5058L 252.851 85.2942C 252.645 86.2442 252.423 87.1849 252.181 88.1244L 253.149 88.374ZM 254.397 82.6145C 254.569 81.6488 254.724 80.6757 254.861 79.7052L 253.87 79.5655C 253.735 80.5274 253.583 81.4829 253.413 82.4396L 254.397 82.6145ZM 255.221 76.7821C 255.325 75.8058 255.412 74.825 255.483 73.8492L 254.486 73.7767C 254.416 74.7444 254.33 75.7087 254.227 76.6765L 255.221 76.7821ZM 255.649 70.9094C 255.669 70.4191 255.685 69.9274 255.697 69.4385L 254.697 69.414C 254.685 69.8991 254.669 70.3829 254.65 70.8692L 255.649 70.9094ZM 255.697 69.4385C 255.709 68.9262 255.719 68.4101 255.725 67.8931L 254.725 67.8801C 254.719 68.3943 254.709 68.9047 254.697 69.414L 255.697 69.4385ZM 255.732 64.8001C 255.723 63.7771 255.703 62.7445 255.673 61.709L 254.673 61.7383C 254.703 62.7686 254.723 63.791 254.732 64.8089L 255.732 64.8001ZM 255.552 58.6202C 255.502 57.5953 255.442 56.5645 255.372 55.5341L 254.374 55.6017C 254.444 56.6274 254.503 57.6488 254.553 58.6689L 255.552 58.6202ZM 255.135 52.4525C 255.047 51.4276 254.949 50.4 254.842 49.3758L 253.847 49.4797C 253.954 50.4994 254.051 51.518 254.139 52.5384L 255.135 52.4525ZM 254.493 46.3049C 254.367 45.281 254.232 44.2575 254.088 43.2406L 253.098 43.3806C 253.241 44.393 253.375 45.4075 253.5 46.4268L 254.493 46.3049ZM 253.627 40.1843C 253.463 39.1628 253.289 38.145 253.107 37.1372L 252.123 37.3148C 252.304 38.3178 252.476 39.3261 252.639 40.3428L 253.627 40.1843ZM 252.528 34.0998C 252.426 33.5933 252.322 33.088 252.215 32.5865L 251.237 32.7942C 251.343 33.293 251.446 33.7932 251.548 34.2972L 252.528 34.0998ZM 252.215 32.5865C 252.111 32.0961 251.998 31.6062 251.879 31.125L 250.909 31.3651C 251.026 31.8382 251.135 32.3119 251.237 32.7942L 252.215 32.5865ZM 251.065 28.2529C 250.759 27.2987 250.42 26.3567 250.055 25.4438L 249.127 25.8148C 249.485 26.7117 249.812 27.6209 250.113 28.5584L 251.065 28.2529ZM 248.848 22.7102C 248.411 21.809 247.941 20.9227 247.447 20.0681L 246.581 20.5686C 247.066 21.4075 247.52 22.2617 247.949 23.1465L 248.848 22.7102ZM 245.857 17.5364C 245.295 16.7108 244.701 15.9032 244.086 15.129L 243.303 15.7509C 243.906 16.5107 244.479 17.2886 245.03 18.0989L 245.857 17.5364ZM 242.142 12.8588C 241.466 12.1259 240.759 11.414 240.035 10.7369L 239.352 11.4672C 240.062 12.1317 240.744 12.8174 241.407 13.5368L 242.142 12.8588ZM 237.778 8.77639C 237.004 8.152 236.2 7.5515 235.385 6.98649L 234.815 7.80863C 235.616 8.36318 236.39 8.94184 237.151 9.55485L 237.778 8.77639ZM 232.867 5.37507C 232.012 4.87018 231.13 4.39183 230.241 3.94929L 229.795 4.84468C 230.669 5.27912 231.519 5.74034 232.359 6.23623L 232.867 5.37507ZM 227.519 2.7148C 226.602 2.33736 225.661 1.98886 224.717 1.6761L 224.403 2.62543C 225.331 2.9325 226.238 3.26873 227.139 3.63958L 227.519 2.7148ZM 221.85 0.837271C 220.89 0.592583 219.911 0.378861 218.931 0.200479L 218.752 1.18431C 219.715 1.35942 220.66 1.56573 221.603 1.80627L 221.85 0.837271ZM 215.975 -0.2326C 214.991 -0.34212 213.992 -0.418934 212.996 -0.461083L 212.954 0.538026C 213.932 0.579299 214.898 0.653482 215.864 0.761253L 215.975 -0.2326ZM 210.01 -0.485158C 209.022 -0.459388 208.023 -0.399633 207.03 -0.306295L 207.123 0.689311C 208.099 0.597424 209.065 0.539694 210.036 0.514504L 210.01 -0.485158ZM 204.067 0.0733305C 203.092 0.231702 202.109 0.424957 201.136 0.650454L 201.361 1.62465C 202.319 1.40281 203.269 1.21598 204.227 1.06039L 204.067 0.0733305ZM 198.251 1.41975C 197.308 1.70464 196.361 2.02465 195.425 2.37511L 195.775 3.31161C 196.696 2.96674 197.613 2.65711 198.54 2.377L 198.251 1.41975ZM 192.665 3.51025C 192.213 3.7133 191.759 3.92601 191.309 4.14509L 191.748 5.04397C 192.19 4.82832 192.63 4.6223 193.075 4.4225L 192.665 3.51025ZM 191.309 4.14509C 190.863 4.36256 190.417 4.59012 189.979 4.82347L 190.449 5.70603C 190.88 5.47683 191.31 5.25743 191.748 5.04397L 191.309 4.14509ZM 187.396 6.31868C 186.556 6.84455 185.727 7.40437 184.922 7.98686L 185.509 8.79677C 186.3 8.22389 187.101 7.68291 187.927 7.16624L 187.396 6.31868ZM 182.565 9.81433C 181.803 10.4459 181.053 11.1078 180.33 11.788L 181.015 12.5165C 181.727 11.8469 182.453 11.2057 183.203 10.5844L 182.565 9.81433ZM 178.222 13.8951C 177.544 14.6156 176.881 15.3631 176.245 16.1245L 177.012 16.7656C 177.639 16.0154 178.282 15.2902 178.95 14.5806L 178.222 13.8951ZM 174.402 18.4657C 173.813 19.2611 173.242 20.08 172.698 20.909L 173.534 21.4575C 174.07 20.6404 174.625 19.8449 175.206 19.0612L 174.402 18.4657ZM 171.136 23.4451C 170.64 24.3029 170.166 25.1811 169.72 26.0655L 170.613 26.5158C 171.052 25.644 171.513 24.7907 172.002 23.9452L 171.136 23.4451ZM 168.455 28.7622C 168.059 29.6714 167.687 30.598 167.345 31.5269L 168.284 31.8724C 168.621 30.957 168.982 30.0571 169.372 29.161L 168.455 28.7622ZM 166.398 34.3515C 166.11 35.3012 165.849 36.2654 165.618 37.228L 166.591 37.4605C 166.818 36.5125 167.071 35.5771 167.355 34.6416L 166.398 34.3515ZM 165.014 40.1471C 164.843 41.1252 164.702 42.115 164.593 43.099L 165.587 43.2086C 165.694 42.2406 165.831 41.2821 165.999 40.3195L 165.014 40.1471ZM 164.363 46.0728C 164.341 46.5685 164.327 47.0685 164.322 47.5642L 165.322 47.5747C 165.327 47.0876 165.341 46.6044 165.362 46.117L 164.363 46.0728ZM 164.322 47.5642C 164.317 48.0817 164.321 48.599 164.333 49.1074L 165.333 49.0821C 165.32 48.5827 165.317 48.0833 165.322 47.5747L 164.322 47.5642ZM 164.522 52.1465C 164.624 53.1687 164.766 54.181 164.942 55.1642L 165.927 54.9874C 165.753 54.0234 165.617 53.0498 165.517 52.0471L 164.522 52.1465ZM 165.602 58.1421C 165.865 59.1335 166.169 60.1135 166.507 61.0624L 167.449 60.7271C 167.118 59.7975 166.826 58.8572 166.569 57.8861L 165.602 58.1421ZM 167.651 63.8964C 168.071 64.8246 168.532 65.74 169.023 66.6246L 169.898 66.1391C 169.416 65.2721 168.973 64.3933 168.562 63.484L 167.651 63.8964ZM 170.61 69.2318C 171.171 70.0757 171.769 70.9057 172.393 71.7067L 173.182 71.0923C 172.569 70.3059 171.993 69.5066 171.443 68.6786L 170.61 69.2318ZM 174.351 74.0426C 175.026 74.7925 175.735 75.5277 176.465 76.2366L 177.162 75.5196C 176.444 74.822 175.758 74.1108 175.095 73.3736L 174.351 74.0426ZM 178.713 78.2892C 179.477 78.9448 180.27 79.5857 181.078 80.2031L 181.685 79.4083C 180.888 78.7994 180.117 78.1765 179.364 77.5304L 178.713 78.2892ZM 183.544 81.9831C 184.375 82.5503 185.23 83.1029 186.097 83.6345L 186.62 82.782C 185.763 82.2567 184.929 81.7174 184.108 81.1572L 183.544 81.9831ZM 188.724 85.1631C 189.603 85.6487 190.502 86.1201 191.409 86.5727L 191.855 85.6778C 190.957 85.2299 190.077 84.7682 189.207 84.2878L 188.724 85.1631ZM 194.149 87.8718C 195.066 88.2849 195.998 88.6841 196.936 89.066L 197.313 88.1398C 196.383 87.7613 195.468 87.3693 194.56 86.9601L 194.149 87.8718ZM 199.764 90.1601C 200.709 90.5072 201.666 90.8408 202.626 91.1584L 202.94 90.209C 201.988 89.894 201.046 89.5657 200.109 89.2214L 199.764 90.1601ZM 205.518 92.0649C 206.484 92.3514 207.46 92.6247 208.435 92.8828L 208.691 91.9161C 207.722 91.6598 206.762 91.3906 205.803 91.1062L 205.518 92.0649ZM 211.374 93.6154C 212.357 93.8456 213.345 94.0627 214.332 94.2653L 214.533 93.2857C 213.553 93.0845 212.578 92.8704 211.602 92.6417L 211.374 93.6154ZM 217.307 94.8341C 218.303 95.0106 219.301 95.1739 220.295 95.3231L 220.444 94.3342C 219.456 94.186 218.471 94.0248 217.482 93.8494L 217.307 94.8341ZM 223.294 95.733C 224.299 95.857 225.303 95.9675 226.3 96.064L 226.397 95.0687C 225.406 94.9728 224.414 94.8637 223.416 94.7405L 223.294 95.733ZM 229.319 96.3162C 230.334 96.3873 231.345 96.4445 232.345 96.4876L 232.388 95.4885C 231.395 95.4458 230.397 95.3893 229.389 95.3186L 229.319 96.3162ZM 235.374 96.5761C 236.394 96.5915 237.408 96.5922 238.405 96.5783L 238.391 95.5784C 237.401 95.5922 236.402 95.5916 235.389 95.5762L 235.374 96.5761ZM 241.435 96.4898C 242.458 96.4439 243.471 96.3818 244.461 96.3043L 244.383 95.3073C 243.401 95.3842 242.405 95.4453 241.39 95.4908L 241.435 96.4898ZM 247.48 96.0131C 247.982 95.9552 248.481 95.8928 248.971 95.8264L 248.837 94.8355C 248.352 94.9012 247.863 94.9624 247.366 95.0197L 247.48 96.0131ZM 248.971 95.8264C 249.455 95.761 249.938 95.6911 250.416 95.6175L 250.264 94.6291C 249.79 94.702 249.316 94.7706 248.837 94.8355L 248.971 95.8264ZM 253.286 95.1217C 254.245 94.9375 255.199 94.7357 256.138 94.5184L 255.912 93.5441C 254.982 93.7594 254.047 93.9573 253.097 94.1396L 253.286 95.1217ZM 258.965 93.8064C 259.906 93.5501 260.841 93.2754 261.761 92.9857L 261.461 92.0319C 260.55 92.3187 259.633 92.5879 258.702 92.8416L 258.965 93.8064ZM 264.523 92.0556C 265.441 91.7264 266.352 91.3787 267.248 91.0164L 266.873 90.0893C 265.986 90.448 265.093 90.7886 264.186 91.1143L 264.523 92.0556ZM 269.928 89.8705C 270.815 89.4705 271.695 89.0519 272.561 88.6194L 272.114 87.7248C 271.257 88.153 270.394 88.5631 269.517 88.959L 269.928 89.8705ZM 275.143 87.266C 275.994 86.7985 276.839 86.3128 277.67 85.8139L 277.155 84.9566C 276.332 85.4506 275.504 85.9267 274.662 86.3895L 275.143 87.266ZM 280.14 84.2668C 280.952 83.7368 281.757 83.189 282.55 82.6292L 281.973 81.8125C 281.188 82.3671 280.397 82.9046 279.593 83.4295L 280.14 84.2668ZM 284.899 80.9053C 285.669 80.3187 286.433 79.7152 287.184 79.1006L 286.551 78.3265C 285.807 78.9357 285.056 79.5285 284.293 80.1097L 284.899 80.9053ZM 289.408 77.2192C 290.135 76.5822 290.857 75.9293 291.568 75.2662L 290.885 74.5353C 290.181 75.193 289.471 75.8351 288.749 76.4667L 289.408 77.2192ZM 293.664 73.2473C 294.349 72.5663 295.029 71.8705 295.698 71.1656L 294.973 70.4772C 294.309 71.1769 293.639 71.8621 292.959 72.5377L 293.664 73.2473ZM 297.671 69.0264C 298.315 68.3078 298.954 67.5755 299.583 66.8349L 298.821 66.1877C 298.196 66.9232 297.566 67.6453 296.926 68.3588L 297.671 69.0264ZM 301.437 64.5934C 302.042 63.8419 302.643 63.0777 303.234 62.3062L 302.44 61.698C 301.852 62.4648 301.26 63.2193 300.658 63.966L 301.437 64.5934ZM 304.974 59.9787C 305.259 59.5881 305.543 59.194 305.825 58.7987L 305.011 58.2183C 304.731 58.6113 304.45 59.0008 304.166 59.3892L 304.974 59.9787Z"/>
<path id="path1_stroke" d="M 0.411372 1.25743C 0.635128 0.933554 0.858346 0.607399 1.07996 0.280656L 0.252353 -0.280656C 0.0319236 0.0443481 -0.188865 0.366953 -0.411372 0.689018L 0.411372 1.25743Z"/>
<path id="path2_fill" d="M 9.21323e-10 17.6334L 17.952 2.94821e-08L 20.357 5.96561L 7.913 21.4473L 5.42235 30.9063L 9.21323e-10 17.6334Z"/>
<path id="path3_fill" d="M 3.34745e-08 19.3556L 15.5582 -5.98855e-09L 26.7266 34.1123L 3.34745e-08 19.3556Z"/>
<path id="path4_fill" d="M -1.96548e-08 9.45896L 2.49065 -8.44535e-10L 6.73796 2.34481L -1.96548e-08 9.45896Z"/>
<path id="path5_fill" d="M -3.00963e-08 10.2032L 21.4427 17.6334L 39.3947 2.94821e-08L -3.00963e-08 10.2032Z"/>
<path id="path6_fill" d="M 26.0457 3.72749e-08L 11.1684 66.6774L 2.82537e-08 32.5651L 26.0457 3.72749e-08Z"/>
<path id="path7_fill" d="M 2.40504 36.439L -6.14215e-10 30.4734L 31.5649 3.72749e-08L 2.40504 36.439Z"/>
<path id="path8_fill" d="M 70.9596 3.72749e-08L 39.3947 30.4734L -3.00963e-08 40.6767L 70.9596 3.72749e-08Z"/>
<path id="path9_fill" d="M 49.5169 3.72749e-08C 49.5169 3.72749e-08 48.7332 0.741455 47.3622 2.03906C 46.678 2.68916 45.8474 3.47928 44.895 4.38544C 43.9421 5.29113 42.8668 6.31318 41.7004 7.43484C 40.5329 8.55508 39.2675 9.76817 37.9292 11.0515C 36.593 12.3362 35.1833 13.6916 33.7252 15.0931C 32.2702 16.4984 30.7673 17.9505 29.24 19.4262C 27.7151 20.9042 26.1658 22.4055 24.6171 23.9075C 23.0708 25.4124 21.5252 26.9174 20.0034 28.3987C 18.4844 29.8831 16.9892 31.3435 15.5423 32.7567C 14.0946 34.1691 12.7024 35.5417 11.3811 36.8423C 10.0598 38.1429 8.81035 39.3731 7.65724 40.5075C 6.50219 41.6412 5.44908 42.6866 4.51673 43.6125C 3.58337 44.5391 2.76983 45.3464 2.09998 46.0108C 0.763541 47.3447 -7.76977e-08 48.1069 -7.76977e-08 48.1069C -7.76977e-08 48.1069 0.78367 47.3654 2.15511 46.0678C 2.83933 45.4175 3.66938 44.6273 4.62225 43.7212C 5.57518 42.816 6.65046 41.7937 7.81693 40.6718C 8.98448 39.5523 10.2499 38.3389 11.5876 37.0555C 12.9259 35.772 14.3387 34.4202 15.7926 33.014C 17.2471 31.6087 18.75 30.1563 20.2769 28.6807C 21.8017 27.2028 23.351 25.7007 24.8998 24.1988C 26.4459 22.694 27.9916 21.1892 29.5134 19.7076C 31.0325 18.2233 32.5273 16.763 33.9739 15.3495C 35.4171 13.9325 36.8119 12.5628 38.1352 11.2637C 39.457 9.96322 40.7059 8.73339 41.8596 7.59836C 43.0146 6.46547 44.0668 5.42015 45.0001 4.49339C 45.933 3.56757 46.747 2.76023 47.4168 2.09535C 48.7533 0.76229 49.5169 3.72749e-08 49.5169 3.72749e-08Z"/>
<path id="path10_fill" d="M 41.6039 3.72749e-08C 41.6039 3.72749e-08 40.9429 0.802307 39.786 2.20628C 39.2091 2.90992 38.5087 3.76428 37.7058 4.74465C 36.9023 5.72417 35.9955 6.82916 35.0141 8.0413C 34.0313 9.25133 32.966 10.5632 31.8392 11.9496C 30.713 13.337 29.5231 14.7977 28.3009 16.3159C 27.0773 17.8337 25.8136 19.4018 24.5289 20.9956C 23.2473 22.591 21.9451 24.2121 20.6435 25.8332C 19.3454 27.4569 18.0463 29.0812 16.7683 30.6795C 15.4932 32.2806 14.2386 33.8558 13.0241 35.3803C 11.8081 36.9046 10.6415 38.3837 9.53404 39.786C 8.42543 41.1874 7.37792 42.5126 6.4113 43.7361C 5.44263 44.9579 4.56116 46.0835 3.78054 47.082C 2.99891 48.0795 2.31776 48.949 1.75705 49.665C 0.638635 51.1002 1.12093e-07 51.9207 1.12093e-07 51.9207C 1.12093e-07 51.9207 0.6615 51.1184 1.81845 49.7144C 2.39535 49.0103 3.09531 48.1561 3.89863 47.1763C 4.70205 46.1965 5.60844 45.0914 6.59031 43.8795C 7.57312 42.6694 8.6389 41.3583 9.76518 39.9711C 10.8919 38.5845 12.0818 37.1231 13.304 35.6047C 14.5271 34.0868 15.7908 32.5187 17.0755 30.9252C 18.3571 29.3294 19.6587 27.7084 20.9608 26.0873C 22.259 24.4636 23.5575 22.8394 24.8356 21.2408C 26.1107 19.64 27.3652 18.0643 28.5798 16.5397C 29.7954 15.0162 30.9619 13.5359 32.0699 12.1343C 33.1784 10.7327 34.2255 9.40739 35.1921 8.18392C 36.1612 6.96226 37.0427 5.83636 37.8233 4.83884C 38.605 3.84124 39.2861 2.9718 39.8474 2.25574C 40.9653 0.82031 41.6039 3.72749e-08 41.6039 3.72749e-08Z"/>
<path id="path11_stroke" d="M 70.9596 3.72749e-08L 71.4476 0.108884L 71.6945 -0.99795L 70.7108 -0.433723L 70.9596 3.72749e-08ZM 70.6753 0.163057L 70.2847 -0.149059L 68.6436 1.90474L 70.9241 0.596779L 70.6753 0.163057ZM 70.7972 0.0104578L 71.1878 0.322573L 70.45 -0.349282L 70.7972 0.0104578ZM 70.5867 0.213687L 70.8354 0.64747L 70.8892 0.616574L 70.9339 0.573427L 70.5867 0.213687ZM -3.00963e-08 40.6767L -0.248661 40.2429L -1.20195 40.7893L -0.163707 41.1491L -3.00963e-08 40.6767ZM 21.4427 48.1069L 21.9056 47.9178L 21.82 47.7084L 21.6064 47.6344L 21.4427 48.1069ZM 26.865 61.3797L 26.4022 61.5688L 26.6952 62.2861L 27.2281 61.7235L 26.865 61.3797ZM 33.603 54.2656L 33.8447 53.8278L 33.506 53.6409L 33.24 53.9217L 33.603 54.2656ZM 56.0823 66.6774L 55.8406 67.1152L 56.4249 67.4378L 56.5703 66.7863L 56.0823 66.6774ZM 70.7108 -0.433723L 70.4265 -0.270666L 70.9241 0.596779L 71.2083 0.433723L 70.7108 -0.433723ZM 71.0659 0.475172L 71.1878 0.322573L 70.4066 -0.301657L 70.2847 -0.149059L 71.0659 0.475172ZM 70.45 -0.349282L 70.2394 -0.146053L 70.9339 0.573427L 71.1445 0.370198L 70.45 -0.349282ZM 70.338 -0.220096L -0.248661 40.2429L 0.248661 41.1104L 70.8354 0.64747L 70.338 -0.220096ZM -0.163707 41.1491L 21.279 48.5793L 21.6064 47.6344L 0.163707 40.2042L -0.163707 41.1491ZM 20.9798 48.296L 26.4022 61.5688L 27.3279 61.1906L 21.9056 47.9178L 20.9798 48.296ZM 27.2281 61.7235L 33.966 54.6094L 33.24 53.9217L 26.502 61.0359L 27.2281 61.7235ZM 33.3613 54.7033L 55.8406 67.1152L 56.324 66.2397L 33.8447 53.8278L 33.3613 54.7033ZM 56.5703 66.7863L 71.4476 0.108884L 70.4716 -0.108884L 55.5943 66.5686L 56.5703 66.7863Z"/>
</defs>
</svg>
