<svg width="152" height="152" viewBox="0 0 152 152" version="1.1" xmlns="http://www.w3.org/2000/svg" xmlns:xlink="http://www.w3.org/1999/xlink">
<title>Group</title>
<desc>Created using Figma</desc>
<g id="Canvas" transform="translate(-5490 -1511)">
<g id="Group">
<g id="Vector">
<use xlink:href="#path0_fill" transform="translate(5531.3 1613.12)" fill="#EAEAEA"/>
</g>
<g id="Vector">
<use xlink:href="#path1_fill" transform="translate(5596.33 1630.04)" fill="#EAEAEA"/>
</g>
<g id="Vector">
<use xlink:href="#path2_fill" transform="translate(5490 1511)" fill="#F8DD3F"/>
</g>
<g id="Vector">
<use xlink:href="#path3_fill" transform="translate(5530.11 1544.28)" fill="#3AD0F9"/>
</g>
<g id="Vector">
<use xlink:href="#path4_fill" transform="translate(5528.59 1543.09)" fill="#0C508E"/>
</g>
<g id="Vector">
<use xlink:href="#path5_fill" transform="translate(5531.3 1613.12)" fill="#FFFFFF"/>
</g>
<g id="Vector">
<use xlink:href="#path6_fill" transform="translate(5539.61 1539.5)" fill="#EAEAEA"/>
</g>
<g id="Vector">
<use xlink:href="#path7_fill" transform="translate(5542.39 1540.69)" fill="#D4D6D6"/>
</g>
<g id="Vector">
<use xlink:href="#path8_fill" transform="translate(5538.43 1538.31)" fill="#0C508E"/>
</g>
<g id="Vector">
<use xlink:href="#path9_fill" transform="translate(5530.11 1611.94)" fill="#0C508E"/>
</g>
<g id="Vector">
<use xlink:href="#path10_fill" transform="translate(5529.72 1531.31)" fill="#3AD0F9"/>
</g>
<g id="Vector">
<use xlink:href="#path11_fill" transform="translate(5529.72 1539.51)" fill="#00B3F9"/>
</g>
<g id="Vector">
<use xlink:href="#path12_fill" transform="translate(5528.59 1530.12)" fill="#0C508E"/>
</g>
<g id="Vector">
<use xlink:href="#path13_fill" transform="translate(5561.71 1550.79)" fill="#FFFFFF"/>
</g>
<g id="Vector">
<use xlink:href="#path14_fill" transform="translate(5556.4 1564.9)" fill="#FFFFFF"/>
</g>
<g id="Vector">
<use xlink:href="#path15_fill" transform="translate(5552.54 1554.97)" fill="#FFFFFF"/>
</g>
<g id="Vector">
<use xlink:href="#path16_fill" transform="translate(5548.63 1565.37)" fill="#FFFFFF"/>
</g>
<g id="Vector">
<use xlink:href="#path17_fill" transform="translate(5550.65 1580.82)" fill="#FFFFFF"/>
</g>
<g id="Vector">
<use xlink:href="#path18_fill" transform="translate(5565.72 1587.41)" fill="#FFFFFF"/>
</g>
<g id="Vector">
<use xlink:href="#path19_fill" transform="translate(5550.65 1589.87)" fill="#FFFFFF"/>
</g>
<g id="Vector" opacity="0.5">
<use xlink:href="#path20_fill" transform="translate(5563.06 1535.16)" fill="#FFFFFF"/>
</g>
<g id="Vector" opacity="0.5">
<use xlink:href="#path21_fill" transform="translate(5542.58 1541.06)" fill="#FFFFFF"/>
</g>
<g id="Vector">
<use xlink:href="#path22_fill" transform="translate(5614.93 1561.96)" fill="#FFFFFF"/>
</g>
<g id="Vector">
<use xlink:href="#path23_fill" transform="translate(5548.14 1517.31)" fill="#FFFFFF"/>
</g>
<g id="Vector">
<use xlink:href="#path24_fill" transform="translate(5508.69 1597.39)" fill="#FFFFFF"/>
</g>
<g id="Vector">
<use xlink:href="#path25_fill" transform="translate(5506.03 1565.06)" fill="#FFFFFF"/>
</g>
<g id="Vector">
<use xlink:href="#path26_fill" transform="translate(5614.09 1603.03)" fill="#FFFFFF"/>
</g>
<g id="Vector">
<use xlink:href="#path27_fill" transform="translate(5546.41 1617.28)" fill="#0C508E"/>
</g>
<g id="Vector">
<use xlink:href="#path28_fill" transform="translate(5559.47 1622.03)" fill="#0C508E"/>
</g>
<g id="Vector">
<use xlink:href="#path29_fill" transform="translate(5537.24 1622.03)" fill="#0C508E"/>
</g>
</g>
</g>
<defs>
<path id="path0_fill" d="M 9.5 5.9375C 9.5 5.9375 53.0815 5.97467 65.7323 6.03025C 66.3214 3.76081 67.5101 1.72437 69.1359 0.122907C 68.6628 0.0498747 9.5 0 9.5 0C 4.27452 0 -2.18597e-08 4.27453 -2.18597e-08 9.5C -2.18597e-08 10.5367 0.173968 11.5329 0.484737 12.4688C 1.73945 8.68704 5.31121 5.9375 9.5 5.9375Z"/>
<path id="path1_fill" d="M 0.195939 -2.4469e-08C 0.137982 0.651697 0.0637636 1.28725 -1.4032e-08 1.90416C 0.892899 1.89251 1.41585 1.881 1.47392 1.86817C 0.833738 1.30459 0.436044 0.678415 0.195939 -2.4469e-08Z"/>
<path id="path2_fill" d="M 76 152C 117.974 152 152 117.974 152 76C 152 34.0264 117.974 0 76 0C 34.0264 0 0 34.0264 0 76C 0 117.974 34.0264 152 76 152Z"/>
<path id="path3_fill" d="M 70.0625 91.412L 9.5 91.412C 4.27452 91.412 -2.18597e-08 87.1375 -2.18597e-08 81.912L -2.18597e-08 9.4745C -2.18597e-08 4.24903 4.27452 -0.0138594 9.5 3.39039e-05L 70.0625 0.148471L 70.0625 91.412Z"/>
<path id="path4_fill" d="M 72.4375 94.3807L 10.6875 94.3807C 4.79463 94.3807 0 89.5867 0 83.6932L 0 11.2557C 0 5.57567 4.82135 4.01245e-08 10.9948 4.01245e-08L 72.4375 0.568219C 73.0926 0.569882 73.625 1.10105 73.625 1.75572L 73.625 93.1932C 73.625 93.8495 73.0938 94.3807 72.4375 94.3807ZM 11.0174 2.375C 6.17284 2.375 2.375 6.91861 2.375 11.2557L 2.375 83.6932C 2.375 88.2763 6.10385 92.0057 10.6875 92.0057L 71.25 92.0057L 70.6562 2.52047L 11.0174 2.375Z"/>
<path id="path5_fill" d="M 65.3125 9.20894C 65.3125 5.66153 66.7806 2.4434 69.1359 0.122907C 68.6628 0.0498747 9.5 0 9.5 0C 4.27452 0 -2.18597e-08 4.27453 -2.18597e-08 9.5C -2.18597e-08 14.7255 4.27452 19 9.5 19C 9.5 19 65.8576 18.9234 66.5 18.7854C 63.8327 16.4406 65.3125 13.0173 65.3125 9.20894Z"/>
<path id="path6_fill" d="M -2.18597e-08 9.5C -2.18597e-08 4.27452 4.27452 0 9.5 0L 51.0625 0C 56.288 0 60.5625 4.27452 60.5625 9.5L 60.5625 73.625L 9.5 73.625C 4.27452 73.625 -2.18597e-08 69.3505 -2.18597e-08 64.125L -2.18597e-08 9.5Z"/>
<path id="path7_fill" d="M 54.2284 57.6285L 54.2284 3.24128C 54.2284 2.22193 54.0637 1.26979 53.768 0.40007C 52.9086 0.142619 52.0018 0 51.0625 0L 18.7623 0L 2.75999 2.82376C 1.0564 4.54242 1.82648e-08 6.90353 1.82648e-08 9.5L 1.82648e-08 64.125C 1.82648e-08 69.3505 4.73254 73.0312 9.95804 73.0312L 19.458 73.0312C 32.074 70.5832 44.8732 68.7799 44.8732 68.7799C 50.0188 67.8719 54.2284 62.854 54.2284 57.6285Z"/>
<path id="path8_fill" d="M 62.6047 75.4062L 10.3547 75.4062C 4.46179 75.4062 -2.18597e-08 71.2059 -2.18597e-08 65.3125L -2.18597e-08 10.6875C -2.18597e-08 4.79465 4.79465 0 10.6875 0L 52.25 0C 58.1851 0 63.1984 4.8944 63.1984 10.6875L 63.1984 74.8125C 63.1984 75.4688 63.261 75.4062 62.6047 75.4062ZM 10.6875 2.375C 6.10387 2.375 2.375 6.10387 2.375 10.6875L 2.375 65.3125C 2.375 69.8955 6.10387 73.625 10.6875 73.625L 61.4172 73.0312L 61.4172 11.2812C 61.4172 6.7754 56.8968 2.375 52.25 2.375L 10.6875 2.375Z"/>
<path id="path9_fill" d="M 68.5422 21.9688L 10.3547 21.9688C 4.46179 21.9688 -2.18597e-08 16.5809 -2.18597e-08 10.6875C -2.18597e-08 4.79406 4.79465 0 10.6875 0C 50.006 0.0336032 70.1309 0.0788484 70.5042 0.136796C 70.9485 0.205316 71.315 0.518344 71.4529 0.945129C 71.5909 1.37311 71.4761 1.84157 71.1571 2.15579C 68.9191 4.36038 67.3547 8.17213 67.3547 11.2812C 67.3547 17.0285 69.8433 19.4998 69.8654 19.5322C 70.1042 19.8976 69.9372 20.3975 69.7297 20.7812C 69.5221 21.1652 68.9782 21.9688 68.5422 21.9688ZM 10.3547 1.78125C 5.7722 1.78125 2.375 6.10447 2.375 10.6875C 2.375 15.2705 5.77101 19.5938 10.3547 19.5938L 67.3547 19.5938C 66.6193 17.8485 64.9797 15.2078 64.9797 11.2812C 64.9797 8.40988 66.9256 4.09937 68.5422 1.78125C 59.7832 1.74182 11.8042 1.78125 10.3547 1.78125Z"/>
<path id="path10_fill" d="M 65.9688 62.3782C 65.9688 67.6037 63.0813 72.6216 57.9359 73.5297C 57.9359 73.5297 9.64725 82.7339 7.38354 83.4923C 5.11991 84.2508 -1.79748e-09 86.0877 -1.79748e-09 91.4325C -1.79748e-09 97.9638 -1.79748e-09 19.8659 -1.79748e-09 19.8659C -1.79748e-09 14.6405 4.20957 9.62269 9.35501 8.71461L 57.9359 0.142402C 63.0813 -0.765679 67.1563 2.76547 67.1563 7.99095L 65.9688 62.3782Z"/>
<path id="path11_fill" d="M 5.40635 10.6039C 5.40635 6.30159 8.54786 2.13952 12.2843 3.4819e-08L 9.35501 0.517158C 4.20957 1.42524 -1.79748e-09 6.44302 -1.79748e-09 11.6685C -1.79748e-09 11.6685 -1.79748e-09 77.6188 -1.79748e-09 83.2351C -1.79748e-09 78.8817 2.9235 76.8569 5.40635 75.8446C 5.40635 54.2632 5.40635 10.6039 5.40635 10.6039Z"/>
<path id="path12_fill" d="M 2.375 94.2845C 1.71924 94.2845 1.1875 94.9397 1.1875 94.2845L 0 20.6595C 0 15.0207 4.38292 9.77253 10.2735 8.73287L 58.8543 0.160668C 59.4573 0.0545045 60.05 1.84387e-08 60.6158 1.84387e-08C 65.2731 1.84387e-08 68.875 3.20886 68.875 8.78453L 68.875 63.4095C 68.875 69.7274 64.5749 74.9506 59.2672 75.8864C 39.9041 79.5776 10.4909 85.2681 8.88592 85.8063C 5.33672 86.9938 1.78125 88.7111 1.78125 92.6204L 1.78125 93.0089C 1.78125 93.6641 3.03072 94.2845 2.375 94.2845ZM 60.6158 2.375C 60.1879 2.375 59.7344 2.41739 59.2672 2.49969L 10.6863 11.072C 5.94271 11.9092 2.375 16.1792 2.375 20.6595L 1.78125 87.0006C 3.81874 84.9979 6.64309 84.0528 8.06145 83.5773C 10.4051 82.7923 53.8874 74.4948 58.8381 73.5508C 63.6994 72.6927 66.5 67.618 66.5 63.4095L 66.5 8.78453C 66.5 4.52449 63.9291 2.375 60.6158 2.375Z"/>
<path id="path13_fill" d="M 4.08921 12.6173C 2.93592 12.6173 1.89282 12.1581 1.15063 11.3243C 0.245517 10.3072 -0.145884 8.83092 0.0488676 7.16748C 0.431617 3.88499 2.96489 0.792144 5.81596 0.127146C 7.37574 -0.238842 8.87864 0.196613 9.8493 1.28733C 10.755 2.30431 11.1458 3.7812 10.9521 5.44596C 10.5694 8.72892 8.03551 11.8218 5.18444 12.4869C 4.81513 12.5732 4.44641 12.6173 4.08921 12.6173ZM 6.91418 2.37104C 6.73782 2.37104 6.55114 2.3942 6.35746 2.43944C 4.48121 2.87728 2.67324 5.16879 2.40771 7.44286C 2.29455 8.40996 2.483 9.24904 2.92487 9.74589C 3.32613 10.1964 3.92392 10.342 4.64473 10.1745C 6.51993 9.73663 8.32776 7.44571 8.59331 5.17105C 8.70586 4.20336 8.51681 3.36308 8.07494 2.86623C 7.7827 2.53741 7.39189 2.37104 6.91418 2.37104Z"/>
<path id="path14_fill" d="M 5.4158 12.8761L 5.41521 12.8761C 3.72551 12.8761 2.13557 12.5374 0.689552 11.8695C 0.185101 11.6364 -0.0903973 11.0844 0.0268061 10.5411C 1.1053 5.54414 4.97156 1.19587 9.22067 0.202647C 11.5388 -0.339448 13.6877 0.218321 15.1801 1.72882C 16.4987 3.06416 17.2096 5.05881 17.1818 7.34451C 17.1772 7.69292 17.0205 8.02174 16.7526 8.2438C 14.1771 10.3799 11.3579 11.8498 8.59676 12.4952C 7.51649 12.748 6.44608 12.8761 5.4158 12.8761ZM 2.60475 10.0726C 3.48433 10.3573 4.42602 10.5011 5.41521 10.5011L 5.4158 10.5011C 6.26463 10.5011 7.15288 10.3939 8.05573 10.1828C 10.3072 9.65633 12.6265 8.48154 14.7952 6.77225C 14.7175 5.36376 14.2617 4.17923 13.4894 3.39761C 12.5849 2.48086 11.2582 2.16832 9.76098 2.51507C 6.73713 3.22246 3.74238 6.44225 2.60475 10.0726Z"/>
<path id="path15_fill" d="M 3.32365 9.91827C 2.38481 9.91827 1.53363 9.54313 0.927751 8.86246C 0.200644 8.04605 -0.115352 6.87126 0.0377197 5.55503C 0.33281 3.01652 2.30313 0.621802 4.52326 0.102864C 5.78213 -0.195198 7.00549 0.164376 7.79651 1.05322C 8.52359 1.86963 8.83959 3.04442 8.68652 4.36064C 8.39249 6.89738 6.42338 9.29328 4.20323 9.81388C 3.90576 9.883 3.61067 9.91827 3.32365 9.91827ZM 5.40284 2.37289C 5.29739 2.37289 5.18375 2.38738 5.06429 2.41528C 3.82109 2.70575 2.57446 4.30151 2.39645 5.82994C 2.32401 6.45433 2.43528 6.98371 2.7014 7.28297C 2.92002 7.52878 3.24824 7.60014 3.66163 7.50158C 4.90421 7.20993 6.15026 5.61417 6.32767 4.08633C 6.40022 3.46124 6.28943 2.93125 6.02272 2.63212C 5.86787 2.45815 5.66495 2.37289 5.40284 2.37289Z"/>
<path id="path16_fill" d="M 4.30713 10.1034C 3.0176 10.104 1.79412 9.84591 0.688919 9.33505C 0.185061 9.10194 -0.090319 8.55058 0.0267712 8.0073C 0.842108 4.21573 3.78701 0.914127 7.02946 0.158046C 8.5846 -0.207227 10.0702 0.0653039 11.2101 0.927426C 11.7336 1.32286 11.8368 2.06743 11.4408 2.5904C 11.0453 3.11409 10.3003 3.21728 9.77794 2.82125C 9.20329 2.38746 8.43902 2.26455 7.57108 2.47046C 5.52478 2.9476 3.49831 5.06978 2.63024 7.51782C 3.70529 7.80198 4.9119 7.79973 6.17244 7.50511C 6.81202 7.35845 7.44926 7.75389 7.59888 8.39229C 7.74732 9.03128 7.35008 9.66968 6.71168 9.8186C 5.89409 10.0088 5.08873 10.1034 4.30713 10.1034Z"/>
<path id="path17_fill" d="M 1.18648 6.53152C 0.625741 6.53152 0.127111 6.13323 0.0204712 5.56264C -0.100175 4.91794 0.32483 4.29748 0.969048 4.17683L 23.1854 0.0205756C 23.829 -0.100551 24.4494 0.325645 24.5712 0.96927C 24.6917 1.61396 24.2661 2.23443 23.6214 2.35508L 1.40617 6.51133C 1.33195 6.52522 1.25892 6.53152 1.18648 6.53152Z"/>
<path id="path18_fill" d="M 1.18648 3.71185C 0.625855 3.71185 0.127107 3.31404 0.0204717 2.74238C -0.100179 2.09756 0.324848 1.47721 0.969044 1.35657L 8.1109 0.0212205C 8.75453 -0.102275 9.37488 0.326168 9.49672 0.970391C 9.61725 1.6152 9.19165 2.23555 8.54696 2.3562L 1.40628 3.69214C 1.33207 3.70497 1.25903 3.71185 1.18648 3.71185Z"/>
<path id="path19_fill" d="M 1.18648 4.08001C 0.625741 4.08001 0.127111 3.6822 0.0204712 3.11054C -0.100175 2.46572 0.32483 1.84537 0.969048 1.72473L 10.0921 0.0176956C 10.7398 -0.0925092 11.3573 0.322643 11.4779 0.967455C 11.5986 1.61227 11.1735 2.23262 10.5294 2.35327L 1.40617 4.0603C 1.33195 4.07313 1.25892 4.08001 1.18648 4.08001Z"/>
<path id="path20_fill" d="M 27.8728 58.5C 27.2165 58.5 26.6853 57.9688 26.6853 57.3125L 26.6853 9.23949C 26.6853 6.97006 26.6853 3.1722 25.9164 2.54187C 25.5268 2.22184 24.2709 2.42122 23.095 2.65611C 21.3276 3.01034 14.0311 4.40316 1.40864 6.79609C 0.763829 6.92137 0.142768 6.49459 0.0210484 5.85037C -0.101265 5.20627 0.32196 4.58521 0.966776 4.46289C 13.581 2.07162 20.8684 0.679994 22.6288 0.327543C 24.5353 -0.0523385 26.2122 -0.288295 27.4217 0.705525C 28.833 1.86179 29.0603 4.16828 29.0603 9.23949L 29.0603 57.3125C 29.0603 57.9688 28.5291 58.5 27.8728 58.5Z"/>
<path id="path21_fill" d="M 1.18631 4.78934C 0.62676 4.78934 0.12813 4.39224 0.0208972 3.82224C -0.10094 3.17802 0.322406 2.55708 0.9671 2.43524L 13.7252 0.0220016C 14.3729 -0.103872 14.991 0.323508 15.1127 0.967727C 15.2351 1.61194 14.8112 2.23348 14.167 2.3552L 1.40778 4.76856C 1.33356 4.78305 1.25934 4.78934 1.18631 4.78934Z"/>
<path id="path22_fill" d="M 12.1811 6.08939C 12.1811 5.62555 11.6535 5.16515 11.0075 5.06659L 8.79721 4.73255C 8.15133 4.63398 7.54358 4.02515 7.4462 3.38034L 7.11227 1.17349C 7.01478 0.528795 6.55439 1.3858e-08 6.09055 1.3858e-08C 5.62671 1.3858e-08 5.16631 0.528795 5.06894 1.17349L 4.7349 3.38034C 4.63752 4.02515 4.02988 4.63398 3.38387 4.73255L 1.17358 5.06659C 0.527585 5.16515 -1.38812e-07 5.62555 -1.38812e-07 6.08939C -1.38812e-07 6.55322 0.528772 7.01361 1.17477 7.11099L 3.38269 7.44503C 4.02869 7.54241 4.63752 8.15124 4.7349 8.79605L 5.06894 11.0041C 5.16631 11.6488 5.62671 12.1776 6.09055 12.1776C 6.55439 12.1776 7.00908 11.6488 7.10064 11.0017L 7.45783 8.45393C 7.54939 7.80687 8.15596 7.23746 8.80769 7.18877L 10.9972 7.02288C 11.6489 6.97419 12.1811 6.55322 12.1811 6.08939Z"/>
<path id="path23_fill" d="M 12.1811 6.08938C 12.1811 5.62543 11.6523 5.16515 11.0075 5.06659L 8.79724 4.73254C 8.15242 4.63398 7.54371 4.02515 7.44622 3.38034L 7.11229 1.17349C 7.0148 0.528793 6.55441 -2.27665e-07 6.09057 -2.27665e-07C 5.62673 -2.27665e-07 5.16634 0.528793 5.06896 1.17349L 4.73492 3.38034C 4.63754 4.02515 4.02871 4.63398 3.3839 4.73254L 1.17361 5.06659C 0.528795 5.16515 -6.54053e-08 5.62543 -6.54053e-08 6.08938C -6.54053e-08 6.55322 0.528795 7.01361 1.17479 7.11099L 3.38271 7.44503C 4.02871 7.54241 4.63754 8.15124 4.73492 8.79605L 5.06896 11.004C 5.16634 11.6488 5.62673 12.1776 6.09057 12.1776C 6.55441 12.1776 7.0091 11.6488 7.10066 11.0017L 7.45786 8.45393C 7.54941 7.80674 8.15599 7.23746 8.80769 7.18865L 10.9972 7.02288C 11.6489 6.97419 12.1811 6.55322 12.1811 6.08938Z"/>
<path id="path24_fill" d="M 12.1812 6.08938C 12.1812 5.62554 11.6523 5.16515 11.0075 5.06659L 8.79724 4.73266C 8.15242 4.6341 7.54359 4.02527 7.44622 3.38045L 7.11217 1.1736C 7.0148 0.52879 6.55441 -8.46557e-08 6.09057 -8.46557e-08C 5.62673 -8.46557e-08 5.16634 0.52879 5.06884 1.1736L 4.73492 3.38045C 4.63754 4.02527 4.02871 4.6341 3.3839 4.73266L 1.17361 5.06659C 0.528794 5.16515 -7.24648e-08 5.62554 -7.24648e-08 6.08938C -7.24648e-08 6.55334 0.528794 7.01373 1.17361 7.1111L 3.3839 7.44503C 4.02871 7.54253 4.63754 8.15135 4.73492 8.79605L 5.06884 11.0041C 5.16634 11.6489 5.62673 12.1777 6.09057 12.1777C 6.55441 12.1777 7.00898 11.6489 7.10066 11.0018L 7.45786 8.45405C 7.54941 7.80686 8.15599 7.23745 8.80769 7.18876L 10.9971 7.02299C 11.6489 6.97431 12.1812 6.55334 12.1812 6.08938Z"/>
<path id="path25_fill" d="M 4.73383 9.46984C 2.12335 9.46984 0 7.34647 0 4.73599C 0 2.12456 2.12335 -5.41565e-08 4.73383 -5.41565e-08C 7.34491 -5.41565e-08 9.46887 2.12456 9.46887 4.73599C 9.46887 7.34647 7.34491 9.46984 4.73383 9.46984ZM 4.73383 2.21647C 3.34588 2.21647 2.21645 3.34697 2.21645 4.73599C 2.21645 6.12406 3.34588 7.25337 4.73383 7.25337C 6.12237 7.25337 7.25228 6.12406 7.25228 4.73599C 7.25228 3.34697 6.12237 2.21647 4.73383 2.21647Z"/>
<path id="path26_fill" d="M 4.74952 9.50119C 2.13051 9.50119 -4.85901e-08 7.37081 -4.85901e-08 4.75166C -4.85901e-08 2.13156 2.13051 5.85632e-08 4.74952 5.85632e-08C 7.36868 5.85632e-08 9.50014 2.13156 9.50014 4.75166C 9.50014 7.37081 7.36868 9.50119 4.74952 9.50119ZM 4.74952 2.22383C 3.35647 2.22383 2.22383 3.35742 2.22383 4.75166C 2.22383 6.14484 3.35647 7.27735 4.74952 7.27735C 6.1427 7.27735 7.27628 6.14484 7.27628 4.75166C 7.27628 3.35742 6.1427 2.22383 4.74952 2.22383Z"/>
<path id="path27_fill" d="M 38 2.375L 1.1875 2.375C 0.531626 2.375 0 1.84383 0 1.1875C 0 0.531173 0.531626 0 1.1875 0L 38 0C 38.6563 0 39.1875 0.531173 39.1875 1.1875C 39.1875 1.84383 38.6563 2.375 38 2.375Z"/>
<path id="path28_fill" d="M 30.875 2.375L 1.1875 2.375C 0.531626 2.375 0 1.84383 0 1.1875C 0 0.531173 0.531626 0 1.1875 0L 30.875 0C 31.5313 0 32.0625 0.531173 32.0625 1.1875C 32.0625 1.84383 31.5313 2.375 30.875 2.375Z"/>
<path id="path29_fill" d="M 15.4375 2.375L 1.1875 2.375C 0.531663 2.375 -2.18597e-08 1.84383 -2.18597e-08 1.1875C -2.18597e-08 0.531173 0.531663 0 1.1875 0L 15.4375 0C 16.0932 0 16.625 0.531173 16.625 1.1875C 16.625 1.84383 16.0932 2.375 15.4375 2.375Z"/>
</defs>
</svg>
