<svg width="152" height="152" viewBox="0 0 152 152" version="1.1" xmlns="http://www.w3.org/2000/svg" xmlns:xlink="http://www.w3.org/1999/xlink">
<title>Group</title>
<desc>Created using Figma</desc>
<g id="Canvas" transform="translate(-5906 -1511)">
<g id="Group">
<g id="Vector">
<use xlink:href="#path0_fill" transform="translate(5906 1511)" fill="#D6D6D6"/>
</g>
<g id="Vector">
<use xlink:href="#path1_fill" transform="translate(5946.43 1577.5)" fill="#415E6D"/>
</g>
<g id="Vector">
<use xlink:href="#path2_fill" transform="translate(5946.38 1579.88)" fill="#2D4552"/>
</g>
<g id="Vector">
<use xlink:href="#path3_fill" transform="translate(5945.19 1576.31)" fill="#233E49"/>
</g>
<g id="Vector">
<use xlink:href="#path4_fill" transform="translate(5921.62 1551.74)" fill="#415E6D"/>
</g>
<g id="Vector">
<use xlink:href="#path5_fill" transform="translate(5920.25 1550.19)" fill="#233E49"/>
</g>
<g id="Vector">
<use xlink:href="#path6_fill" transform="translate(5933.31 1571.35)" fill="#7C4119"/>
</g>
<g id="Vector">
<use xlink:href="#path7_fill" transform="translate(5929.75 1602.44)" fill="#7C4119"/>
</g>
<g id="Vector">
<use xlink:href="#path7_fill" transform="translate(5933.31 1607.19)" fill="#7C4119"/>
</g>
<g id="Vector">
<use xlink:href="#path7_fill" transform="translate(5936.88 1604.81)" fill="#7C4119"/>
</g>
<g id="Vector">
<use xlink:href="#path8_fill" transform="translate(5930.94 1600.06)" fill="#FBD000"/>
</g>
<g id="Vector">
<use xlink:href="#path9_fill" transform="translate(5928.56 1597.69)" fill="#7C4119"/>
</g>
<g id="Vector" opacity="0.5">
<use xlink:href="#path10_fill" transform="translate(5999.92 1561.25)" fill="#FFFFFF"/>
</g>
<g id="Vector" opacity="0.5">
<use xlink:href="#path11_fill" transform="translate(5984.13 1556.2)" fill="#FFFFFF"/>
</g>
<g id="Vector" opacity="0.5">
<use xlink:href="#path12_fill" transform="translate(6015.25 1596.5)" fill="#FFFFFF"/>
</g>
<g id="Vector" opacity="0.5">
<use xlink:href="#path13_fill" transform="translate(5970.17 1526.91)" fill="#FFFFFF"/>
</g>
<g id="Vector" opacity="0.5">
<use xlink:href="#path14_fill" transform="translate(6033.77 1596.29)" fill="#FFFFFF"/>
</g>
<g id="Vector" opacity="0.5">
<use xlink:href="#path15_fill" transform="translate(5998.57 1633.5)" fill="#FFFFFF"/>
</g>
<g id="Vector" opacity="0.5">
<use xlink:href="#path16_fill" transform="translate(6022.38 1544.25)" fill="#FFFFFF"/>
</g>
<g id="Vector" opacity="0.5">
<use xlink:href="#path17_fill" transform="translate(5940.44 1543.06)" fill="#FFFFFF"/>
</g>
<g id="Vector" opacity="0.5">
<use xlink:href="#path18_fill" transform="translate(5957.06 1634.5)" fill="#FFFFFF"/>
</g>
</g>
</g>
<defs>
<path id="path0_fill" d="M 76 152C 117.974 152 152 117.974 152 76C 152 34.0264 117.974 0 76 0C 34.0264 0 0 34.0264 0 76C 0 117.974 34.0264 152 76 152Z"/>
<path id="path1_fill" d="M -2.58606e-08 0L 0.321223 36.5551C 0.831491 42.8115 17.3405 47.7076 37.677 47.7076C 58.0152 47.7076 74.7608 42.5541 74.7608 36.2976L 74.7608 0L -2.58606e-08 0Z"/>
<path id="path2_fill" d="M 0 11.3404L 38.2365 24.026L 74.8125 11.8913L 74.8125 0L 0 0L 0 11.3404Z"/>
<path id="path3_fill" d="M 38.8906 49.875C 19.7735 49.875 0 45.2182 0 37.426L 0 1.1856C 0 0.530933 0.531758 0 1.1875 0L 76 0C 76.6563 0 77.1875 0.530933 77.1875 1.1856L 77.1875 37.426C 77.1875 43.4606 63.7655 49.875 38.8906 49.875ZM 2.375 2.3712L 2.375 37.426C 2.375 42.1834 17.9911 47.5038 38.8906 47.5038C 60.0603 47.5038 74.8125 42.1927 74.8125 37.426L 74.8125 2.3712L 2.375 2.3712Z"/>
<path id="path4_fill" d="M 63.0425 41.4766L 5.89691e-08 20.5608L 61.9756 5.2359e-08L 125.02 20.9158L 63.0425 41.4766Z"/>
<path id="path5_fill" d="M 64.0624 43.9375C 63.9363 43.9375 63.8103 43.9178 63.6899 43.8771L 0.811415 22.9203C 0.326796 22.7587 0 22.3039 0 21.7908C 0 21.2779 0.326796 20.823 0.811415 20.6615L 62.6259 0.0601147C 62.8665 -0.0200383 63.1302 -0.0200383 63.3708 0.0601147L 126.25 21.0171C 126.735 21.1785 127.062 21.6334 127.062 22.1464C 127.062 22.6594 126.735 23.1142 126.25 23.2759L 64.4348 43.8771C 64.3146 43.9178 64.1885 43.9375 64.0624 43.9375ZM 4.94581 21.7908L 64.0624 41.494L 122.117 22.1464L 62.9984 2.44331L 4.94581 21.7908Z"/>
<path id="path6_fill" d="M 1.1875 29.9038C 0.531758 29.9038 0 29.3727 0 28.7163L 0 5.63548C 0 5.02487 0.46324 4.51353 1.071 4.4538L 46.1101 0.00637824C 46.7612 -0.0614261 47.3441 0.41927 47.4084 1.07157C 47.4728 1.72386 46.9961 2.3055 46.3433 2.36986L 2.375 6.7116L 2.375 28.7163C 2.375 29.3727 1.84323 29.9038 1.1875 29.9038Z"/>
<path id="path7_fill" d="M 1.1875 10.6875C 0.531758 10.6875 0 10.1563 0 9.5L 0 1.1875C 0 0.531173 0.531758 0 1.1875 0C 1.84323 0 2.375 0.531173 2.375 1.1875L 2.375 9.5C 2.375 10.1563 1.84323 10.6875 1.1875 10.6875Z"/>
<path id="path8_fill" d="M 3.5625 7.125C 5.53001 7.125 7.125 5.53001 7.125 3.5625C 7.125 1.59499 5.53001 0 3.5625 0C 1.59499 0 0 1.59499 0 3.5625C 0 5.53001 1.59499 7.125 3.5625 7.125Z"/>
<path id="path9_fill" d="M 5.93762 11.875C 2.66344 11.875 0 9.21156 0 5.9375C 0 2.66344 2.66344 0 5.93762 0C 9.21167 0 11.875 2.66344 11.875 5.9375C 11.875 9.21156 9.21167 11.875 5.93762 11.875ZM 5.93762 2.56808C 4.07977 2.56808 2.56808 4.07906 2.56808 5.9375C 2.56808 7.79594 4.07977 9.30692 5.93762 9.30692C 7.79522 9.30692 9.30691 7.79594 9.30691 5.9375C 9.30691 4.07906 7.79522 2.56808 5.93762 2.56808Z"/>
<path id="path10_fill" d="M 28.1477 10.9887C 28.0282 10.9887 27.9064 10.9702 27.7859 10.9318L 0.825931 2.31901C 0.20202 2.1195 -0.143542 1.45106 0.0570257 0.826557C 0.256525 0.202642 0.919864 -0.142917 1.54947 0.0564645L 28.5095 8.6694C 29.1333 8.86878 29.479 9.53734 29.2783 10.1619C 29.1172 10.6663 28.651 10.9887 28.1477 10.9887Z"/>
<path id="path11_fill" d="M 8.42866 4.6878C 8.30921 4.6878 8.18748 4.66916 8.06683 4.63092L 0.825931 2.3185C 0.20202 2.11912 -0.143542 1.45056 0.0570257 0.826048C 0.255338 0.202137 0.921051 -0.142239 1.54959 0.0560737L 8.79049 2.36837C 9.4144 2.56787 9.75997 3.23644 9.5594 3.86094C 9.39933 4.36539 8.93205 4.6878 8.42866 4.6878Z"/>
<path id="path12_fill" d="M 1.1875 17.8125C 0.531164 17.8125 0 17.2813 0 16.625L 0 1.1875C 0 0.531173 0.531164 0 1.1875 0C 1.84383 0 2.375 0.531173 2.375 1.1875L 2.375 16.625C 2.375 17.2813 1.84383 17.8125 1.1875 17.8125Z"/>
<path id="path13_fill" d="M 3.8327e-08 6.09057C 3.8327e-08 5.62661 0.528791 5.16622 1.17348 5.06884L 3.3839 4.73254C 4.02859 4.63517 4.63742 4.02634 4.73492 3.38034L 5.06884 1.17467C 5.16622 0.528794 5.62661 -7.34505e-08 6.09057 -7.34505e-08C 6.55441 -7.34505e-08 7.0148 0.528794 7.11218 1.17467L 7.44622 3.38034C 7.54359 4.02634 8.15242 4.63517 8.79724 4.73254L 11.0075 5.06884C 11.6523 5.16622 12.1811 5.62661 12.1811 6.09057C 12.1811 6.55441 11.6523 7.0148 11.0075 7.11217L 8.79724 7.44622C 8.15242 7.54359 7.54359 8.15242 7.44622 8.79831L 7.11218 11.0041C 7.0148 11.65 6.55441 12.1788 6.09057 12.1788C 5.62661 12.1788 5.17204 11.65 5.08048 11.0029L 4.72328 8.45393C 4.63172 7.80686 4.02396 7.23746 3.37345 7.18877L 1.18394 7.02406C 0.533425 6.97537 3.8327e-08 6.55441 3.8327e-08 6.09057Z"/>
<path id="path14_fill" d="M -3.59496e-09 6.09058C -3.59496e-09 5.62674 0.5288 5.16634 1.17348 5.06885L 3.3839 4.73255C 4.0286 4.63517 4.63742 4.02634 4.73492 3.38046L 5.06885 1.17468C 5.16622 0.5288 5.62661 1.09125e-07 6.09057 1.09125e-07C 6.55441 1.09125e-07 7.0148 0.5288 7.11217 1.17468L 7.44622 3.38046C 7.54359 4.02634 8.15242 4.63517 8.79724 4.73255L 11.0075 5.06885C 11.6523 5.16634 12.1811 5.62674 12.1811 6.09058C 12.1811 6.55441 11.6523 7.0148 11.0075 7.11218L 8.79724 7.44622C 8.15242 7.5436 7.54359 8.15243 7.44622 8.79843L 7.11217 11.0041C 7.0148 11.65 6.55441 12.1788 6.09057 12.1788C 5.62661 12.1788 5.17204 11.65 5.08049 11.0029L 4.72328 8.45393C 4.63161 7.80687 4.02397 7.23746 3.37345 7.18877L 1.18394 7.02406C 0.533429 6.97538 -3.59496e-09 6.55441 -3.59496e-09 6.09058Z"/>
<path id="path15_fill" d="M 3.8501e-08 6.09058C 3.8501e-08 5.62674 0.52879 5.16634 1.1736 5.06885L 3.38389 4.73255C 4.0287 4.63517 4.63754 4.02634 4.73492 3.38046L 5.06895 1.17468C 5.16633 0.5288 5.62673 3.04993e-08 6.09056 3.04993e-08C 6.55452 3.04993e-08 7.01491 0.5288 7.11229 1.17468L 7.44621 3.38046C 7.5437 4.02634 8.15254 4.63517 8.79723 4.73255L 11.0076 5.06885C 11.6523 5.16634 12.1811 5.62674 12.1811 6.09058C 12.1811 6.55441 11.6523 7.0148 11.0076 7.11218L 8.79723 7.44622C 8.15254 7.5436 7.5437 8.15243 7.44621 8.79843L 7.11229 11.0041C 7.01491 11.65 6.55452 12.1788 6.09056 12.1788C 5.62673 12.1788 5.17215 11.65 5.0806 11.0029L 4.72339 8.45393C 4.63172 7.80687 4.02408 7.23746 3.37356 7.18877L 1.18405 7.02406C 0.533538 6.97538 3.8501e-08 6.55441 3.8501e-08 6.09058Z"/>
<path id="path16_fill" d="M 4.75 9.5C 2.13061 9.5 0 7.36986 0 4.75119C 0 2.13132 2.13061 0 4.75 0C 7.36926 0 9.5 2.13132 9.5 4.75119C 9.5 7.36986 7.36926 9.5 4.75 9.5ZM 4.75 2.22359C 3.35658 2.22359 2.22406 3.35754 2.22406 4.75119C 2.22406 6.14353 3.35658 7.2764 4.75 7.2764C 6.14329 7.2764 7.27593 6.14353 7.27593 4.75119C 7.27593 3.35754 6.14329 2.22359 4.75 2.22359Z"/>
<path id="path17_fill" d="M 4.75 9.5C 2.13061 9.5 0 7.36986 0 4.75107C 0 2.13132 2.13061 0 4.75 0C 7.36938 0 9.5 2.13132 9.5 4.75107C 9.5 7.36986 7.36938 9.5 4.75 9.5ZM 4.75 2.22359C 3.35718 2.22359 2.22406 3.35754 2.22406 4.75107C 2.22406 6.14353 3.35718 7.2764 4.75 7.2764C 6.14282 7.2764 7.27593 6.14353 7.27593 4.75107C 7.27593 3.35754 6.14282 2.22359 4.75 2.22359Z"/>
<path id="path18_fill" d="M 4.75 9.5C 2.13061 9.5 0 7.36974 0 4.75107C 0 2.13121 2.13061 0 4.75 0C 7.36938 0 9.5 2.13121 9.5 4.75107C 9.5 7.36974 7.36938 9.5 4.75 9.5ZM 4.75 2.22347C 3.35718 2.22347 2.22406 3.35707 2.22406 4.75107C 2.22406 6.144 3.35718 7.27653 4.75 7.27653C 6.14282 7.27653 7.27592 6.144 7.27592 4.75107C 7.27592 3.35707 6.14282 2.22347 4.75 2.22347Z"/>
</defs>
</svg>
