<svg width="152" height="152" viewBox="0 0 152 152" version="1.1" xmlns="http://www.w3.org/2000/svg" xmlns:xlink="http://www.w3.org/1999/xlink">
<title>Group</title>
<desc>Created using Figma</desc>
<g id="Canvas" transform="translate(-5282 -1511)">
<g id="Group">
<g id="Vector">
<use xlink:href="#path0_fill" transform="translate(5282 1511)" fill="#FBE560"/>
</g>
<g id="Vector">
<use xlink:href="#path1_fill" transform="translate(5293.28 1633.31)" fill="#6B3C1C"/>
</g>
<g id="Vector">
<use xlink:href="#path2_fill" transform="translate(5366.88 1597.09)" fill="#6B3C1C"/>
</g>
<g id="Vector">
<use xlink:href="#path3_fill" transform="translate(5385.88 1557.31)" fill="#6B3C1C"/>
</g>
<g id="Vector">
<use xlink:href="#path4_fill" transform="translate(5327.69 1620.84)" fill="#00B3F9"/>
</g>
<g id="Vector">
<use xlink:href="#path5_fill" transform="translate(5323.53 1595.91)" fill="#6B3C1C"/>
</g>
<g id="Vector">
<use xlink:href="#path6_fill" transform="translate(5312.28 1542.47)" fill="#3AD0F9"/>
</g>
<g id="Vector">
<use xlink:href="#path7_fill" transform="translate(5344.94 1573.34)" fill="#00B3F9"/>
</g>
<g id="Vector">
<use xlink:href="#path8_fill" transform="translate(5312.34 1576.44)" fill="#00B3F9"/>
</g>
<g id="Vector">
<use xlink:href="#path9_fill" transform="translate(5310.5 1541.88)" fill="#6B3C1C"/>
</g>
<g id="Vector">
<use xlink:href="#path10_fill" transform="translate(5326.5 1620.25)" fill="#6B3C1C"/>
</g>
<g id="Vector">
<use xlink:href="#path11_fill" transform="translate(5319.38 1574.53)" fill="#6B3C1C"/>
</g>
<g id="Vector">
<use xlink:href="#path12_fill" transform="translate(5345.5 1569.78)" fill="#F99900"/>
</g>
<g id="Vector">
<use xlink:href="#path13_fill" transform="translate(5343.75 1568)" fill="#6B3C1C"/>
</g>
<g id="Vector">
<use xlink:href="#path14_fill" transform="translate(5319.38 1620.84)" fill="#F99900"/>
</g>
<g id="Vector">
<use xlink:href="#path15_fill" transform="translate(5318.81 1620.25)" fill="#6B3C1C"/>
</g>
<g id="Vector">
<use xlink:href="#path16_fill" transform="translate(5379.94 1617.28)" fill="#F99900"/>
</g>
<g id="Vector">
<use xlink:href="#path17_fill" transform="translate(5379.34 1616.69)" fill="#6B3C1C"/>
</g>
<g id="Vector">
<use xlink:href="#path18_fill" transform="translate(5384.12 1621.44)" fill="#6B3C1C"/>
</g>
<g id="Vector">
<use xlink:href="#path19_fill" transform="translate(5323.53 1625)" fill="#6B3C1C"/>
</g>
<g id="Vector">
<use xlink:href="#path20_fill" transform="translate(5359.19 1578.69)" fill="#FFFFFF"/>
</g>
<g id="Vector">
<use xlink:href="#path21_fill" transform="translate(5344.31 1548.41)" fill="#FFFFFF"/>
</g>
<g id="Vector">
<use xlink:href="#path22_fill" transform="translate(5370.16 1550.48)" fill="#FFFFFF"/>
</g>
<g id="Vector">
<use xlink:href="#path23_fill" transform="translate(5410.54 1578.98)" fill="#FFFFFF"/>
</g>
<g id="Vector">
<use xlink:href="#path24_fill" transform="translate(5293.28 1559.98)" fill="#FFFFFF"/>
</g>
<g id="Vector">
<use xlink:href="#path25_fill" transform="translate(5358 1528.81)" fill="#FFFFFF"/>
</g>
<g id="Vector">
<use xlink:href="#path26_fill" transform="translate(5301 1604.81)" fill="#FFFFFF"/>
</g>
<g id="Vector">
<use xlink:href="#path27_fill" transform="translate(5368.69 1641.62)" fill="#FFFFFF"/>
</g>
<g id="Vector">
<use xlink:href="#path28_fill" transform="translate(5329.68 1567.17)" fill="#FFFFFF"/>
</g>
<g id="Vector">
<use xlink:href="#path29_fill" transform="translate(5320.74 1563.84)" fill="#FFFFFF"/>
</g>
<g id="Vector">
<use xlink:href="#path30_fill" transform="translate(5329.95 1551.82)" fill="#FFFFFF"/>
</g>
</g>
</g>
<defs>
<path id="path0_fill" d="M 76 152C 117.974 152 152 117.974 152 76C 152 34.0264 117.974 0 76 0C 34.0264 0 0 34.0264 0 76C 0 117.974 34.0264 152 76 152Z"/>
<path id="path1_fill" d="M 128.881 2.375L 1.1875 2.375C 0.531621 2.375 0 1.84383 0 1.1875C 0 0.531173 0.531621 0 1.1875 0L 128.881 0C 129.537 0 130.068 0.531173 130.068 1.1875C 130.068 1.84383 129.537 2.375 128.881 2.375Z"/>
<path id="path2_fill" d="M 20.1902 29.6882C 19.4491 29.6882 18.7186 29.3426 18.2547 28.6932L 0.442217 3.75568C -0.319685 2.68883 -0.0726844 1.20552 0.995352 0.44255C 2.05879 -0.319352 3.54435 -0.0735385 4.30848 0.995684L 22.121 25.9332C 22.8829 27 22.6359 28.4833 21.5678 29.2463C 21.1504 29.5444 20.6679 29.6882 20.1902 29.6882Z"/>
<path id="path3_fill" d="M 2.32247 29.0943C 1.97406 29.0943 1.61888 29.012 1.2853 28.8381C 0.137116 28.239 -0.328147 26.783 0.245889 25.5849L 9.78614 5.67768C 11.3134 2.49375 15.1804 0 18.591 0L 23.2385 0C 24.5218 0 25.5623 1.08561 25.5623 2.42452C 25.5623 3.76343 24.4707 4.75 23.1873 4.75L 18.4373 4.75C 16.7569 4.75 14.6959 6.27784 13.9435 7.847L 4.40333 27.7537C 3.99601 28.6031 3.1756 29.0943 2.32247 29.0943Z"/>
<path id="path4_fill" d="M 61.75 2.96875C 61.75 1.33594 59.6127 0 57 0L 4.75 0C 2.13726 0 -5.05615e-08 1.33594 -5.05615e-08 2.96875C -5.05615e-08 4.60156 2.13726 5.9375 4.75 5.9375L 57 5.9375C 59.6127 5.9375 61.75 4.60156 61.75 2.96875Z"/>
<path id="path5_fill" d="M 2.37396 33.8436C 2.01049 33.8436 1.64222 33.7601 1.29606 33.5839C 0.127679 32.9878 -0.336157 31.5579 0.259967 30.3889L 15.1037 1.29518C 15.6997 0.126205 17.129 -0.335261 18.2992 0.259685C 19.4675 0.855691 19.9314 2.28555 19.3353 3.45453L 4.49151 32.5483C 4.07172 33.3705 3.23798 33.8436 2.37396 33.8436Z"/>
<path id="path6_fill" d="M 37.9698 23.75C 37.9698 19 37.9698 11.8726 37.9698 7.12381C 37.9698 2.375 35.5948 0 32.0625 0C 15.4073 0 0 14.3544 0 32.0625C 0 49.7706 14.3544 64.125 32.0625 64.125L 52.25 64.125C 67.5089 64.125 80.2711 53.4653 83.51 39.1875C 83.9448 37.2683 81.3785 33.25 77.1573 33.25C 67.3512 33.25 50.4327 33.25 46.2823 33.25C 40.3448 33.25 37.9698 28.5 37.9698 23.75Z"/>
<path id="path7_fill" d="M 5.34375 10.0938C 8.29502 10.0938 10.6875 7.83419 10.6875 5.04688C 10.6875 2.25956 8.29502 0 5.34375 0C 2.39248 0 0 2.25956 0 5.04688C 0 7.83419 2.39248 10.0938 5.34375 10.0938Z"/>
<path id="path8_fill" d="M 52.5759 23.0251L 31.6415 23.0251C 16.8453 23.0251 4.31395 13.3594 8.11765e-10 -5.51422e-08C 0.990255 16.8175 14.9353 30.1501 32.001 30.1501L 52.1885 30.1501C 67.4474 30.1501 80.2096 19.4904 83.4485 5.21265C 83.5806 4.62816 83.4311 3.84655 83.045 3.04522C 77.9203 14.7996 66.2193 23.0251 52.5759 23.0251Z"/>
<path id="path9_fill" d="M 54.0312 65.9062L 33.8438 65.9062C 15.5093 65.9062 0 51.4206 0 33.25C 0 15.6954 16.131 0 33.8438 0C 38.2198 0 40.375 3.23131 40.375 8.3125L 40.375 24.9375C 40.375 28.9199 41.0592 33.25 46.3125 33.25L 78.375 33.25C 80.7337 33.25 83.5228 34.0364 85.0454 35.9241C 86.1981 37.3544 86.7362 39.0216 86.4497 40.2749C 82.9951 55.3659 69.6647 65.9062 54.0312 65.9062ZM 33.8438 2.35374C 17.3961 2.35374 2.375 16.9493 2.375 33.25C 2.375 50.1231 16.8193 63.5525 33.8438 63.5525L 54.0312 63.5525C 68.5479 63.5525 80.9262 53.7661 84.1327 39.7542C 84.2359 39.3048 83.9402 38.325 83.1888 37.3934C 82.6831 36.7659 80.6932 35.625 78.375 35.625L 46.3125 35.625C 39.3005 35.625 38 29.8238 38 24.9375L 38 8.3125C 38 4.51868 36.8873 2.35374 33.8438 2.35374Z"/>
<path id="path10_fill" d="M 58.1875 8.3125L 5.9375 8.3125C 2.60811 8.3125 -5.05615e-08 6.48719 -5.05615e-08 4.15625C -5.05615e-08 1.82531 2.60811 0 5.9375 0L 58.1875 0C 61.5169 0 64.125 1.82531 64.125 4.15625C 64.125 6.48719 61.5169 8.3125 58.1875 8.3125ZM 5.9375 2.375C 3.93134 2.375 2.375 3.33284 2.375 4.15625C 2.375 4.97966 3.93134 5.9375 5.9375 5.9375L 58.1875 5.9375C 60.1938 5.9375 61.75 4.97966 61.75 4.15625C 61.75 3.33284 60.1938 2.375 58.1875 2.375L 5.9375 2.375Z"/>
<path id="path11_fill" d="M 27.3125 2.375L 1.1875 2.375C 0.531762 2.375 -4.1835e-08 1.84324 -4.1835e-08 1.1875C -4.1835e-08 0.531762 0.531762 0 1.1875 0L 27.3125 0C 27.9684 0 28.5 0.531762 28.5 1.1875C 28.5 1.84324 27.9684 2.375 27.3125 2.375Z"/>
<path id="path12_fill" d="M 5.34375 10.6875C 8.29502 10.6875 10.6875 8.29502 10.6875 5.34375C 10.6875 2.39248 8.29502 0 5.34375 0C 2.39248 0 0 2.39248 0 5.34375C 0 8.29502 2.39248 10.6875 5.34375 10.6875Z"/>
<path id="path13_fill" d="M 6.53125 13.0625C 2.92989 13.0625 0 10.1326 0 6.53125C 0 2.92992 2.92989 0 6.53125 0C 10.1326 0 13.0625 2.92992 13.0625 6.53125C 13.0625 10.1326 10.1326 13.0625 6.53125 13.0625ZM 6.53125 2.375C 4.23971 2.375 2.375 4.23973 2.375 6.53125C 2.375 8.82277 4.23971 10.6875 6.53125 10.6875C 8.82274 10.6875 10.6875 8.82277 10.6875 6.53125C 10.6875 4.23973 8.82274 2.375 6.53125 2.375Z"/>
<path id="path14_fill" d="M 6.53125 13.0625C 10.1384 13.0625 13.0625 10.1384 13.0625 6.53125C 13.0625 2.92414 10.1384 0 6.53125 0C 2.92414 0 0 2.92414 0 6.53125C 0 10.1384 2.92414 13.0625 6.53125 13.0625Z"/>
<path id="path15_fill" d="M 7.125 14.25C 3.19637 14.25 0 11.0536 0 7.125C 0 3.1964 3.19637 0 7.125 0C 11.0536 0 14.25 3.1964 14.25 7.125C 14.25 11.0536 11.0536 14.25 7.125 14.25ZM 7.125 2.39507C 4.51675 2.39507 2.39505 4.51677 2.39505 7.125C 2.39505 9.73323 4.51675 11.8549 7.125 11.8549C 9.73332 11.8549 11.8549 9.73323 11.8549 7.125C 11.8549 4.51677 9.73332 2.39507 7.125 2.39507Z"/>
<path id="path16_fill" d="M 8.3125 16.625C 12.9034 16.625 16.625 12.9034 16.625 8.3125C 16.625 3.72163 12.9034 0 8.3125 0C 3.72163 0 0 3.72163 0 8.3125C 0 12.9034 3.72163 16.625 8.3125 16.625Z"/>
<path id="path17_fill" d="M 8.90625 17.8125C 3.99546 17.8125 -5.05615e-08 13.817 -5.05615e-08 8.90625C -5.05615e-08 3.99546 3.99546 0 8.90625 0C 13.8171 0 17.8125 3.99546 17.8125 8.90625C 17.8125 13.817 13.8171 17.8125 8.90625 17.8125ZM 8.90625 2.375C 5.30468 2.375 2.375 5.30468 2.375 8.90625C 2.375 12.5078 5.30468 15.4375 8.90625 15.4375C 12.5078 15.4375 15.4375 12.5078 15.4375 8.90625C 15.4375 5.30468 12.5078 2.375 8.90625 2.375Z"/>
<path id="path18_fill" d="M 4.14115 8.3125C 1.85734 8.3125 0 6.44848 0 4.15625C 0 1.86402 1.85734 0 4.14115 0C 6.42506 0 8.28231 1.86402 8.28231 4.15625C 8.28231 6.44848 6.42506 8.3125 4.14115 8.3125ZM 4.14115 2.375C 3.16276 2.375 2.3663 3.17431 2.3663 4.15625C 2.3663 5.13819 3.16276 5.9375 4.14115 5.9375C 5.11953 5.9375 5.91598 5.13819 5.91598 4.15625C 5.91598 3.17431 5.11953 2.375 4.14115 2.375Z"/>
<path id="path19_fill" d="M 2.375 4.75C 1.06554 4.75 -5.05615e-08 3.68494 -5.05615e-08 2.375C -5.05615e-08 1.06506 1.06554 0 2.375 0C 3.68446 0 4.75 1.06506 4.75 2.375C 4.75 3.68494 3.68446 4.75 2.375 4.75ZM 2.375 1.9C 2.11292 1.9 1.9 2.1134 1.9 2.375C 1.9 2.6366 2.11292 2.85 2.375 2.85C 2.63708 2.85 2.85 2.6366 2.85 2.375C 2.85 2.1134 2.63708 1.9 2.375 1.9Z"/>
<path id="path20_fill" d="M 28.5457 2.375L 1.14176 2.375C 0.511314 2.375 0 1.84324 0 1.1875C 0 0.531762 0.511314 0 1.14176 0L 28.5457 0C 29.1767 0 29.6875 0.531762 29.6875 1.1875C 29.6875 1.84324 29.1767 2.375 28.5457 2.375Z"/>
<path id="path21_fill" d="M 1.1875 17.8125C 0.531762 17.8125 -5.05615e-08 17.2807 -5.05615e-08 16.625L -5.05615e-08 1.1875C -5.05615e-08 0.531762 0.531762 0 1.1875 0C 1.84336 0 2.375 0.531762 2.375 1.1875L 2.375 16.625C 2.375 17.2807 1.84336 17.8125 1.1875 17.8125Z"/>
<path id="path22_fill" d="M 12.1812 6.08939C 12.1812 5.62555 11.6523 5.16515 11.0075 5.06659L 8.79723 4.73266C 8.15242 4.6341 7.5436 4.02527 7.44622 3.38046L 7.11217 1.17361C 7.0148 0.528795 6.55441 1.66412e-08 6.09057 1.66412e-08C 5.62673 1.66412e-08 5.16634 0.528795 5.06885 1.17361L 4.73492 3.38046C 4.63754 4.02527 4.02871 4.6341 3.3839 4.73266L 1.1736 5.06659C 0.52879 5.16515 -1.53656e-07 5.62555 -1.53656e-07 6.08939C -1.53656e-07 6.55334 0.52879 7.01374 1.1736 7.11111L 3.3839 7.44503C 4.02871 7.54253 4.63754 8.15136 4.73492 8.79605L 5.06885 11.0041C 5.16634 11.6489 5.62673 12.1777 6.09057 12.1777C 6.55441 12.1777 7.00898 11.6489 7.10066 11.0018L 7.45785 8.45405C 7.54941 7.80687 8.15599 7.23746 8.80769 7.18877L 10.9971 7.02299C 11.6489 6.97431 12.1812 6.55334 12.1812 6.08939Z"/>
<path id="path23_fill" d="M 12.1812 6.08939C 12.1812 5.62555 11.6523 5.16515 11.0075 5.06659L 8.79723 4.73266C 8.15242 4.6341 7.5436 4.02527 7.44622 3.38046L 7.11217 1.1748C 7.0148 0.528795 6.55441 1.66412e-08 6.09057 1.66412e-08C 5.62673 1.66412e-08 5.16634 0.528795 5.06885 1.1748L 4.73492 3.38046C 4.63754 4.02527 4.02871 4.6341 3.3839 4.73266L 1.1736 5.06659C 0.52879 5.16515 -1.53656e-07 5.62555 -1.53656e-07 6.08939C -1.53656e-07 6.55334 0.52879 7.01374 1.1736 7.11111L 3.3839 7.44503C 4.02871 7.54253 4.63754 8.15136 4.73492 8.79605L 5.06885 11.0041C 5.16634 11.6489 5.62673 12.1777 6.09057 12.1777C 6.55441 12.1777 7.00898 11.6489 7.10066 11.0018L 7.45785 8.45406C 7.54941 7.80687 8.15598 7.23746 8.80769 7.18877L 10.9971 7.02299C 11.6489 6.97431 12.1812 6.55334 12.1812 6.08939Z"/>
<path id="path24_fill" d="M 12.1811 6.08939C 12.1811 5.62555 11.6523 5.16515 11.0075 5.06659L 8.79721 4.73266C 8.1524 4.6341 7.54357 4.02527 7.4462 3.38046L 7.11227 1.1748C 7.01478 0.528795 6.55438 1.66412e-08 6.09055 1.66412e-08C 5.62671 1.66412e-08 5.16631 0.528795 5.06894 1.1748L 4.7349 3.38046C 4.63752 4.02527 4.02869 4.6341 3.38388 4.73266L 1.17358 5.06659C 0.52877 5.16515 0 5.62555 0 6.08939C 0 6.55334 0.52877 7.01374 1.17358 7.11111L 3.38388 7.44503C 4.02869 7.54253 4.63752 8.15136 4.7349 8.79605L 5.06894 11.0041C 5.16631 11.6489 5.62671 12.1777 6.09055 12.1777C 6.55438 12.1777 7.00896 11.6489 7.10063 11.0018L 7.45783 8.45405C 7.54939 7.80687 8.15703 7.23746 8.80769 7.18877L 10.9971 7.02299C 11.6489 6.97431 12.1811 6.55334 12.1811 6.08939Z"/>
<path id="path25_fill" d="M 4.7495 9.5C 2.13037 9.5 0 7.36986 0 4.75107C 0 2.13132 2.13037 0 4.7495 0C 7.36853 0 9.5 2.13132 9.5 4.75107C 9.5 7.36986 7.36853 9.5 4.7495 9.5ZM 4.7495 2.22359C 3.35632 2.22359 2.22381 3.35754 2.22381 4.75107C 2.22381 6.14353 3.35632 7.27641 4.7495 7.27641C 6.14255 7.27641 7.27615 6.14353 7.27615 4.75107C 7.27615 3.35754 6.14255 2.22359 4.7495 2.22359Z"/>
<path id="path26_fill" d="M 4.74938 9.5C 2.13038 9.5 0 7.36986 0 4.75107C 0 2.13132 2.13038 0 4.74938 0C 7.36901 0 9.5 2.13132 9.5 4.75107C 9.5 7.36986 7.36901 9.5 4.74938 9.5ZM 4.74938 2.22359C 3.3568 2.22359 2.22381 3.35694 2.22381 4.75107C 2.22381 6.144 3.3568 7.27641 4.74938 7.27641C 6.14256 7.27641 7.27614 6.144 7.27614 4.75107C 7.27614 3.35694 6.14256 2.22359 4.74938 2.22359Z"/>
<path id="path27_fill" d="M 4.7495 9.5C 2.13037 9.5 0 7.36986 0 4.75107C 0 2.13132 2.13037 0 4.7495 0C 7.36853 0 9.5 2.13132 9.5 4.75107C 9.5 7.36986 7.36853 9.5 4.7495 9.5ZM 4.7495 2.22359C 3.35632 2.22359 2.22381 3.35694 2.22381 4.75107C 2.22381 6.144 3.35632 7.27641 4.7495 7.27641C 6.14255 7.27641 7.27615 6.144 7.27615 4.75107C 7.27615 3.35694 6.14255 2.22359 4.7495 2.22359Z"/>
<path id="path28_fill" d="M 10.1636 5.7162C 10.0256 5.7162 9.8858 5.69186 9.74959 5.64079L 0.773754 2.30095C 0.159103 2.07247 -0.154044 1.38895 0.0750269 0.774297C 0.302906 0.159057 0.988809 -0.154683 1.6017 0.0755743L 10.5775 3.41542C 11.1922 3.64389 11.5053 4.32754 11.2763 4.94207C 11.0988 5.42051 10.6454 5.7162 10.1636 5.7162Z"/>
<path id="path29_fill" d="M 6.20097 4.24254C 6.06298 4.24254 5.92322 4.21819 5.78692 4.16713L 0.773739 2.30121C 0.159092 2.07273 -0.154054 1.38909 0.0750389 0.774562C 0.304082 0.158724 0.988798 -0.154898 1.60166 0.0758351L 6.61493 1.94175C 7.22958 2.17023 7.54273 2.85376 7.31366 3.4684C 7.13565 3.94685 6.68274 4.24254 6.20097 4.24254Z"/>
<path id="path30_fill" d="M 10.0951 14.3991C 9.73146 14.3991 9.3726 14.2327 9.13949 13.9184L 0.233248 1.89495C -0.156966 1.36794 -0.0462905 0.624564 0.480842 0.23376C 1.00726 -0.157642 1.75123 -0.045779 2.14203 0.481354L 11.0483 12.5048C 11.4385 13.0318 11.3278 13.7752 10.8007 14.166C 10.5885 14.3231 10.3403 14.3991 10.0951 14.3991Z"/>
</defs>
</svg>
