<svg width="28" height="24" viewBox="0 0 28 24" version="1.1" xmlns="http://www.w3.org/2000/svg" xmlns:xlink="http://www.w3.org/1999/xlink">
<title>Castle</title>
<desc>Created using Figma</desc>
<g id="Canvas" transform="translate(-5085 -84)">
<g id="Castle">
<g id="Shape 1">
<use xlink:href="#path0_stroke" transform="translate(5086 86.7802)" fill="#333333"/>
</g>
<g id="Shape">
<use xlink:href="#path1_fill" transform="translate(5097.74 104.169)" fill="#333333"/>
</g>
<g id="Rectangle path">
<use xlink:href="#path2_fill" transform="translate(5088.52 98.9121)" fill="#333333"/>
</g>
<g id="Rectangle path 1">
<use xlink:href="#path3_fill" transform="translate(5089.35 102.956)" fill="#333333"/>
</g>
<g id="Rectangle path 2">
<use xlink:href="#path3_fill" transform="translate(5092.29 102.956)" fill="#333333"/>
</g>
<g id="Rectangle path 3">
<use xlink:href="#path4_fill" transform="translate(5104.45 102.956)" fill="#333333"/>
</g>
<g id="Rectangle path 4">
<use xlink:href="#path3_fill" transform="translate(5107.39 102.956)" fill="#333333"/>
</g>
<g id="Rectangle path 5">
<use xlink:href="#path2_fill" transform="translate(5108.23 98.9121)" fill="#333333"/>
</g>
<g id="Rectangle path 6">
<use xlink:href="#path5_fill" transform="translate(5098.16 99.7209)" fill="#333333"/>
</g>
<g id="Rectangle path 7">
<use xlink:href="#path5_fill" transform="translate(5098.16 94.0593)" fill="#333333"/>
</g>
<g id="Shape 2">
<use xlink:href="#path6_stroke" transform="translate(5088.52 104.346)" fill="#333333"/>
</g>
<g id="Shape 3">
<use xlink:href="#path6_stroke" transform="translate(5103.61 104.346)" fill="#333333"/>
</g>
<g id="Shape 4">
<use xlink:href="#path7_stroke" transform="translate(5095.65 97.4631)" fill="#333333"/>
</g>
<g id="Shape 5">
<use xlink:href="#path7_stroke" transform="translate(5095.65 92.6104)" fill="#333333"/>
</g>
<g id="Shape 6">
<use xlink:href="#path8_stroke" transform="translate(5095.85 99.7209)" fill="#333333"/>
</g>
<g id="Shape 7">
<use xlink:href="#path8_stroke" transform="translate(5102.15 99.7209)" fill="#333333"/>
</g>
<g id="Shape 8">
<use xlink:href="#path9_stroke" transform="translate(5099 84)" fill="#333333"/>
</g>
</g>
</g>
<defs>
<path id="path0_stroke" d="M 23.9032 8.8967L 23.9032 7.8967C 23.3509 7.8967 22.9032 8.34442 22.9032 8.8967L 23.9032 8.8967ZM 23.9032 9.70549L 23.9032 10.7055C 24.4555 10.7055 24.9032 10.2578 24.9032 9.70549L 23.9032 9.70549ZM 21.8065 9.70549L 20.8065 9.70549C 20.8065 10.2578 21.2542 10.7055 21.8065 10.7055L 21.8065 9.70549ZM 21.8065 8.8967L 22.8065 8.8967C 22.8065 8.34442 22.3587 7.8967 21.8065 7.8967L 21.8065 8.8967ZM 19.7097 8.8967L 19.7097 7.8967C 19.1574 7.8967 18.7097 8.34442 18.7097 8.8967L 19.7097 8.8967ZM 19.7097 11.3231L 18.7097 11.3231C 18.7097 11.8754 19.1574 12.3231 19.7097 12.3231L 19.7097 11.3231ZM 20.5484 11.3231L 21.5484 11.3231C 21.5484 10.7708 21.1007 10.3231 20.5484 10.3231L 20.5484 11.3231ZM 20.5484 12.9407L 20.5484 13.9407C 21.1007 13.9407 21.5484 13.4929 21.5484 12.9407L 20.5484 12.9407ZM 16.3548 12.9407L 15.3548 12.9407C 15.3548 13.4929 15.8026 13.9407 16.3548 13.9407L 16.3548 12.9407ZM 16.3548 10.9187L 16.3548 9.91868C 15.8026 9.91868 15.3548 10.3664 15.3548 10.9187L 16.3548 10.9187ZM 17.1935 10.9187L 17.1935 11.9187C 17.7458 11.9187 18.1935 11.471 18.1935 10.9187L 17.1935 10.9187ZM 17.1935 10.5143L 18.1935 10.5143C 18.1935 9.962 17.7458 9.51429 17.1935 9.51429L 17.1935 10.5143ZM 16.3548 10.5143L 15.3548 10.5143C 15.3548 11.0666 15.8026 11.5143 16.3548 11.5143L 16.3548 10.5143ZM 16.3548 6.06593L 16.3548 5.06593C 15.8026 5.06593 15.3548 5.51365 15.3548 6.06593L 16.3548 6.06593ZM 17.6129 6.06593L 17.6129 7.06593C 18.1652 7.06593 18.6129 6.61822 18.6129 6.06593L 17.6129 6.06593ZM 17.6129 4.85275L 18.6129 4.85275C 18.6129 4.5963 18.5144 4.34965 18.3377 4.16378L 17.6129 4.85275ZM 13 0L 13.7248 -0.688969C 13.536 -0.887566 13.274 -1 13 -1C 12.726 -1 12.464 -0.887566 12.2752 -0.688969L 13 0ZM 8.3871 4.85275L 7.66231 4.16378C 7.48562 4.34965 7.3871 4.5963 7.3871 4.85275L 8.3871 4.85275ZM 8.3871 6.06593L 7.3871 6.06593C 7.3871 6.61822 7.83481 7.06593 8.3871 7.06593L 8.3871 6.06593ZM 9.64516 6.06593L 10.6452 6.06593C 10.6452 5.51365 10.1974 5.06593 9.64516 5.06593L 9.64516 6.06593ZM 9.64516 10.5143L 9.64516 11.5143C 10.1974 11.5143 10.6452 11.0666 10.6452 10.5143L 9.64516 10.5143ZM 8.80645 10.5143L 8.80645 9.51429C 8.25417 9.51429 7.80645 9.962 7.80645 10.5143L 8.80645 10.5143ZM 8.80645 10.9187L 7.80645 10.9187C 7.80645 11.471 8.25417 11.9187 8.80645 11.9187L 8.80645 10.9187ZM 9.64516 10.9187L 10.6452 10.9187C 10.6452 10.3664 10.1974 9.91868 9.64516 9.91868L 9.64516 10.9187ZM 9.64516 12.9407L 9.64516 13.9407C 10.1974 13.9407 10.6452 13.4929 10.6452 12.9407L 9.64516 12.9407ZM 5.45161 12.9407L 4.45161 12.9407C 4.45161 13.4929 4.89933 13.9407 5.45161 13.9407L 5.45161 12.9407ZM 5.45161 11.3231L 5.45161 10.3231C 4.89933 10.3231 4.45161 10.7708 4.45161 11.3231L 5.45161 11.3231ZM 6.29032 11.3231L 6.29032 12.3231C 6.84261 12.3231 7.29032 11.8754 7.29032 11.3231L 6.29032 11.3231ZM 6.29032 8.8967L 7.29032 8.8967C 7.29032 8.34442 6.84261 7.8967 6.29032 7.8967L 6.29032 8.8967ZM 4.19355 8.8967L 4.19355 7.8967C 3.64126 7.8967 3.19355 8.34442 3.19355 8.8967L 4.19355 8.8967ZM 4.19355 9.70549L 4.19355 10.7055C 4.74583 10.7055 5.19355 10.2578 5.19355 9.70549L 4.19355 9.70549ZM 2.09677 9.70549L 1.09677 9.70549C 1.09677 10.2578 1.54449 10.7055 2.09677 10.7055L 2.09677 9.70549ZM 2.09677 8.8967L 3.09677 8.8967C 3.09677 8.34442 2.64906 7.8967 2.09677 7.8967L 2.09677 8.8967ZM 0 8.8967L 0 7.8967C -0.552285 7.8967 -1 8.34442 -1 8.8967L 0 8.8967ZM 0 11.3231L -1 11.3231C -1 11.8754 -0.552285 12.3231 2.22045e-16 12.3231L 0 11.3231ZM 0.83871 11.3231L 1.83871 11.3231C 1.83871 10.7708 1.39099 10.3231 0.83871 10.3231L 0.83871 11.3231ZM 25.1613 11.3231L 25.1613 10.3231C 24.609 10.3231 24.1613 10.7708 24.1613 11.3231L 25.1613 11.3231ZM 26 11.3231L 26 12.3231C 26.5523 12.3231 27 11.8754 27 11.3231L 26 11.3231ZM 26 8.8967L 27 8.8967C 27 8.34442 26.5523 7.8967 26 7.8967L 26 8.8967ZM 22.9032 8.8967L 22.9032 9.70549L 24.9032 9.70549L 24.9032 8.8967L 22.9032 8.8967ZM 23.9032 8.70549L 21.8065 8.70549L 21.8065 10.7055L 23.9032 10.7055L 23.9032 8.70549ZM 22.8065 9.70549L 22.8065 8.8967L 20.8065 8.8967L 20.8065 9.70549L 22.8065 9.70549ZM 21.8065 7.8967L 19.7097 7.8967L 19.7097 9.8967L 21.8065 9.8967L 21.8065 7.8967ZM 18.7097 8.8967L 18.7097 11.3231L 20.7097 11.3231L 20.7097 8.8967L 18.7097 8.8967ZM 19.7097 12.3231L 20.5484 12.3231L 20.5484 10.3231L 19.7097 10.3231L 19.7097 12.3231ZM 19.5484 11.3231L 19.5484 12.9407L 21.5484 12.9407L 21.5484 11.3231L 19.5484 11.3231ZM 20.5484 11.9407L 16.3548 11.9407L 16.3548 13.9407L 20.5484 13.9407L 20.5484 11.9407ZM 17.3548 12.9407L 17.3548 10.9187L 15.3548 10.9187L 15.3548 12.9407L 17.3548 12.9407ZM 16.3548 11.9187L 17.1935 11.9187L 17.1935 9.91868L 16.3548 9.91868L 16.3548 11.9187ZM 18.1935 10.9187L 18.1935 10.5143L 16.1935 10.5143L 16.1935 10.9187L 18.1935 10.9187ZM 17.1935 9.51429L 16.3548 9.51429L 16.3548 11.5143L 17.1935 11.5143L 17.1935 9.51429ZM 17.3548 10.5143L 17.3548 6.06593L 15.3548 6.06593L 15.3548 10.5143L 17.3548 10.5143ZM 16.3548 7.06593L 17.6129 7.06593L 17.6129 5.06593L 16.3548 5.06593L 16.3548 7.06593ZM 18.6129 6.06593L 18.6129 4.85275L 16.6129 4.85275L 16.6129 6.06593L 18.6129 6.06593ZM 18.3377 4.16378L 13.7248 -0.688969L 12.2752 0.688969L 16.8881 5.54172L 18.3377 4.16378ZM 12.2752 -0.688969L 7.66231 4.16378L 9.11189 5.54172L 13.7248 0.688969L 12.2752 -0.688969ZM 7.3871 4.85275L 7.3871 6.06593L 9.3871 6.06593L 9.3871 4.85275L 7.3871 4.85275ZM 8.3871 7.06593L 9.64516 7.06593L 9.64516 5.06593L 8.3871 5.06593L 8.3871 7.06593ZM 8.64516 6.06593L 8.64516 10.5143L 10.6452 10.5143L 10.6452 6.06593L 8.64516 6.06593ZM 9.64516 9.51429L 8.80645 9.51429L 8.80645 11.5143L 9.64516 11.5143L 9.64516 9.51429ZM 7.80645 10.5143L 7.80645 10.9187L 9.80645 10.9187L 9.80645 10.5143L 7.80645 10.5143ZM 8.80645 11.9187L 9.64516 11.9187L 9.64516 9.91868L 8.80645 9.91868L 8.80645 11.9187ZM 8.64516 10.9187L 8.64516 12.9407L 10.6452 12.9407L 10.6452 10.9187L 8.64516 10.9187ZM 9.64516 11.9407L 5.45161 11.9407L 5.45161 13.9407L 9.64516 13.9407L 9.64516 11.9407ZM 6.45161 12.9407L 6.45161 11.3231L 4.45161 11.3231L 4.45161 12.9407L 6.45161 12.9407ZM 5.45161 12.3231L 6.29032 12.3231L 6.29032 10.3231L 5.45161 10.3231L 5.45161 12.3231ZM 7.29032 11.3231L 7.29032 8.8967L 5.29032 8.8967L 5.29032 11.3231L 7.29032 11.3231ZM 6.29032 7.8967L 4.19355 7.8967L 4.19355 9.8967L 6.29032 9.8967L 6.29032 7.8967ZM 3.19355 8.8967L 3.19355 9.70549L 5.19355 9.70549L 5.19355 8.8967L 3.19355 8.8967ZM 4.19355 8.70549L 2.09677 8.70549L 2.09677 10.7055L 4.19355 10.7055L 4.19355 8.70549ZM 3.09677 9.70549L 3.09677 8.8967L 1.09677 8.8967L 1.09677 9.70549L 3.09677 9.70549ZM 2.09677 7.8967L 0 7.8967L 0 9.8967L 2.09677 9.8967L 2.09677 7.8967ZM -1 8.8967L -1 11.3231L 1 11.3231L 1 8.8967L -1 8.8967ZM 0 12.3231L 0.83871 12.3231L 0.83871 10.3231L 0 10.3231L 0 12.3231ZM -0.16129 11.3231L -0.16129 19.8154L 1.83871 19.8154L 1.83871 11.3231L -0.16129 11.3231ZM -0.16129 19.8154C -0.16129 20.6252 0.508424 21.2198 1.25806 21.2198L 1.25806 19.2198C 1.5439 19.2198 1.83871 19.4528 1.83871 19.8154L -0.16129 19.8154ZM 1.25806 21.2198L 24.7419 21.2198L 24.7419 19.2198L 1.25806 19.2198L 1.25806 21.2198ZM 24.7419 21.2198C 25.4916 21.2198 26.1613 20.6252 26.1613 19.8154L 24.1613 19.8154C 24.1613 19.4528 24.4561 19.2198 24.7419 19.2198L 24.7419 21.2198ZM 26.1613 19.8154L 26.1613 11.3231L 24.1613 11.3231L 24.1613 19.8154L 26.1613 19.8154ZM 25.1613 12.3231L 26 12.3231L 26 10.3231L 25.1613 10.3231L 25.1613 12.3231ZM 27 11.3231L 27 8.8967L 25 8.8967L 25 11.3231L 27 11.3231ZM 26 7.8967L 23.9032 7.8967L 23.9032 9.8967L 26 9.8967L 26 7.8967Z"/>
<path id="path1_fill" d="M 0 2.83077L 0 0.404396C 0 0.180765 0.187452 0 0.419355 0L 2.09677 0C 2.32868 0 2.51613 0.180765 2.51613 0.404396L 2.51613 2.83077"/>
<path id="path2_fill" d="M 1.25806 0L 0 0L 0 1.61758L 1.25806 1.61758L 1.25806 0Z"/>
<path id="path3_fill" d="M 1.25806 0L 0 0L 0 1.21319L 1.25806 1.21319L 1.25806 0Z"/>
<path id="path4_fill" d="M 1.22326 0L 0 0L 0 1.21319L 1.22326 1.21319L 1.22326 0Z"/>
<path id="path5_fill" d="M 1.67742 0L 0 0L 0 1.61758L 1.67742 1.61758L 1.67742 0Z"/>
<path id="path6_stroke" d="M 0 0.5L 5.87097 0.5L 5.87097 -0.5L 0 -0.5L 0 0.5Z"/>
<path id="path7_stroke" d="M 0 0.5L 6.70968 0.5L 6.70968 -0.5L 0 -0.5L 0 0.5Z"/>
<path id="path8_stroke" d="M -0.5 0L -0.5 7.27912L 0.5 7.27912L 0.5 0L -0.5 0Z"/>
<path id="path9_stroke" d="M -1 0L -1 3.15105L 1 3.15105L 1 0L -1 0Z"/>
</defs>
</svg>
