<svg width="152" height="152" viewBox="0 0 152 152" version="1.1" xmlns="http://www.w3.org/2000/svg" xmlns:xlink="http://www.w3.org/1999/xlink">
<title>Group</title>
<desc>Created using Figma</desc>
<g id="Canvas" transform="translate(-5698 -1511)">
<g id="Group">
<g id="Vector">
<use xlink:href="#path0_fill" transform="translate(5698 1511)" fill="#8E74B1"/>
</g>
<g id="Vector">
<use xlink:href="#path1_fill" transform="translate(5722.94 1634.5)" fill="#663210"/>
</g>
<g id="Vector">
<use xlink:href="#path2_fill" transform="translate(5751.91 1552.56)" fill="#FBD000"/>
</g>
<g id="Vector">
<use xlink:href="#path3_fill" transform="translate(5800.12 1552.56)" fill="#FBD000"/>
</g>
<g id="Vector">
<use xlink:href="#path4_fill" transform="translate(5757.37 1558.56)" fill="#F99900"/>
</g>
<g id="Vector">
<use xlink:href="#path5_fill" transform="translate(5803.69 1558.56)" fill="#FFFFFF"/>
</g>
<g id="Vector">
<use xlink:href="#path6_fill" transform="translate(5803.69 1568.14)" fill="#FFFFFF"/>
</g>
<g id="Vector">
<use xlink:href="#path7_fill" transform="translate(5750.25 1551.37)" fill="#663210"/>
</g>
<g id="Vector">
<use xlink:href="#path8_fill" transform="translate(5724.6 1577.5)" fill="#90E1F4"/>
</g>
<g id="Vector">
<use xlink:href="#path9_fill" transform="translate(5798.94 1551.37)" fill="#663210"/>
</g>
<g id="Vector">
<use xlink:href="#path10_fill" transform="translate(5760.94 1562.06)" fill="#F4D44E"/>
</g>
<g id="Vector">
<use xlink:href="#path11_fill" transform="translate(5727.17 1602.73)" fill="#F99900"/>
</g>
<g id="Vector">
<use xlink:href="#path12_fill" transform="translate(5722.94 1576.31)" fill="#663210"/>
</g>
<g id="Vector">
<use xlink:href="#path13_fill" transform="translate(5745.97 1596.5)" fill="#EAEAEA"/>
</g>
<g id="Vector">
<use xlink:href="#path14_fill" transform="translate(5748.62 1605.33)" fill="#D4D6D6"/>
</g>
<g id="Vector">
<use xlink:href="#path15_fill" transform="translate(5779.31 1545.39)" fill="#F99900"/>
</g>
<g id="Vector">
<use xlink:href="#path16_fill" transform="translate(5778.12 1544.25)" fill="#663210"/>
</g>
<g id="Vector">
<use xlink:href="#path17_fill" transform="translate(5743.6 1541.82)" fill="#FBD000"/>
</g>
<g id="Vector">
<use xlink:href="#path18_fill" transform="translate(5745.5 1595.31)" fill="#663210"/>
</g>
<g id="Vector">
<use xlink:href="#path19_fill" transform="translate(5741.94 1540.69)" fill="#663210"/>
</g>
<g id="Vector">
<use xlink:href="#path20_fill" transform="translate(5750.25 1577.5)" fill="#663210"/>
</g>
<g id="Vector" opacity="0.5">
<use xlink:href="#path21_fill" transform="translate(5730.06 1581.06)" fill="#FFFFFF"/>
</g>
<g id="Vector" opacity="0.5">
<use xlink:href="#path22_fill" transform="translate(5731.32 1607)" fill="#FFFFFF"/>
</g>
<g id="Vector" opacity="0.5">
<use xlink:href="#path23_fill" transform="translate(5729.16 1587.4)" fill="#FFFFFF"/>
</g>
<g id="Vector">
<use xlink:href="#path24_fill" transform="translate(5819.12 1601.25)" fill="#FFFFFF"/>
</g>
<g id="Vector">
<use xlink:href="#path25_fill" transform="translate(5753.81 1601.25)" fill="#FFFFFF"/>
</g>
<g id="Vector">
<use xlink:href="#path26_fill" transform="translate(5715.57 1549.06)" fill="#FFFFFF"/>
</g>
<g id="Vector">
<use xlink:href="#path27_fill" transform="translate(5785.52 1520.4)" fill="#FFFFFF"/>
</g>
<g id="Vector">
<use xlink:href="#path28_fill" transform="translate(5824.62 1577.89)" fill="#FFFFFF"/>
</g>
<g id="Vector">
<use xlink:href="#path29_fill" transform="translate(5823.88 1558.5)" fill="#FFFFFF"/>
</g>
<g id="Vector">
<use xlink:href="#path30_fill" transform="translate(5756.19 1524.07)" fill="#FFFFFF"/>
</g>
<g id="Vector">
<use xlink:href="#path31_fill" transform="translate(5707.5 1591.75)" fill="#FFFFFF"/>
</g>
<g id="Vector" opacity="0.5">
<use xlink:href="#path32_fill" transform="translate(5752.21 1544.25)" fill="#FFFFFF"/>
</g>
<g id="Vector" opacity="0.5">
<use xlink:href="#path33_fill" transform="translate(5771.62 1564.44)" fill="#FFFFFF"/>
</g>
</g>
</g>
<defs>
<path id="path0_fill" d="M 76 152C 117.974 152 152 117.974 152 76C 152 34.0264 117.974 0 76 0C 34.0264 0 0 34.0264 0 76C 0 117.974 34.0264 152 76 152Z"/>
<path id="path1_fill" d="M 97.3609 2.37501L 1.20199 2.37501C 0.538172 2.37501 5.85635e-08 1.84384 5.85635e-08 1.1875C 5.85635e-08 0.531175 0.538172 0 1.20199 0L 97.3609 0C 98.0252 0 98.5629 0.531175 98.5629 1.1875C 98.5629 1.84384 98.0252 2.37501 97.3609 2.37501Z"/>
<path id="path2_fill" d="M 48.6877 0L 0 0L 0 83.1253L 48.6877 83.1253L 48.6877 0Z"/>
<path id="path3_fill" d="M 10.6875 0L 0 0L 0 83.1253L 10.6875 83.1253L 10.6875 0Z"/>
<path id="path4_fill" d="M 36.8126 0L 0 0L 0 57.5371L 36.8126 57.5371L 36.8126 0Z"/>
<path id="path5_fill" d="M 3.56251 0L 0 0L 0 5.88064L 3.56251 5.88064L 3.56251 0Z"/>
<path id="path6_fill" d="M 3.56251 0L 0 0L 0 18.8586L 3.56251 18.8586L 3.56251 0Z"/>
<path id="path7_fill" d="M 49.8752 85.5003L 1.1875 85.5003C 0.53176 85.5003 5.85635e-08 84.9692 5.85635e-08 84.3128L 5.85635e-08 1.1875C 5.85635e-08 0.531769 0.53176 0 1.1875 0L 49.8752 0C 50.5315 0 51.0627 0.531769 51.0627 1.1875L 51.0627 84.3128C 51.0627 84.9692 50.5315 85.5003 49.8752 85.5003ZM 2.37501 83.1253L 48.6877 83.1253L 48.6877 2.37501L 2.37501 2.37501L 2.37501 83.1253Z"/>
<path id="path8_fill" d="M 30.8751 58.1877L 5.93752 58.1877L -3.75154e-08 0L 36.8126 0L 30.8751 58.1877Z"/>
<path id="path9_fill" d="M 11.875 85.5003L 1.1875 85.5003C 0.531166 85.5003 5.85635e-08 84.9692 5.85635e-08 84.3128L 5.85635e-08 1.1875C 5.85635e-08 0.531769 0.531166 0 1.1875 0L 11.875 0C 12.5314 0 13.0626 0.531769 13.0626 1.1875L 13.0626 84.3128C 13.0626 84.9692 12.5314 85.5003 11.875 85.5003ZM 2.37501 83.1253L 10.6875 83.1253L 10.6875 2.37501L 2.37501 2.37501L 2.37501 83.1253Z"/>
<path id="path10_fill" d="M 29.6876 0L 0 0L 0 41.3076L 29.6876 41.3076L 29.6876 0Z"/>
<path id="path11_fill" d="M 5.14605e-08 0L 3.36301 32.9533L 28.3006 32.9533L 31.6636 0L 5.14605e-08 0Z"/>
<path id="path12_fill" d="M 32.0628 60.5627L 7.12494 60.5627C 6.51552 60.5627 6.00525 60.1023 5.94385 59.4959L 0.00621067 1.30816C -0.0281083 0.974116 0.0809052 0.640782 0.305938 0.391408C 0.530969 0.142033 0.851596 0 1.1873 0L 38.0004 0C 38.3361 0 38.6568 0.142033 38.8818 0.391408C 39.1067 0.640782 39.2157 0.974116 39.1815 1.30816L 33.2439 59.4959C 33.1825 60.1023 32.6722 60.5627 32.0628 60.5627ZM 8.19762 58.1877L 30.9901 58.1877L 36.6854 2.37501L 2.50246 2.37501L 8.19762 58.1877Z"/>
<path id="path13_fill" d="M 95.5083 0L -3.75154e-08 0C 3.15888 15.9675 14.1248 29.1252 28.7541 35.3341L 28.7541 39.1877L 69.1293 39.1877L 69.1293 34.244C 82.5617 27.6652 92.5232 15.0896 95.5083 0Z"/>
<path id="path14_fill" d="M 45.5705 19.6739C 27.6256 19.6739 11.0563 12.4294 5.85635e-08 9.26578e-08C 4.84739 11.9203 14.2778 21.4877 26.1078 26.509L 26.1078 30.3626L 66.4829 30.3626L 66.4829 25.4189C 77.1854 20.1772 85.6709 11.1213 90.1935 0.0267179C 79.1372 12.441 63.5024 19.6739 45.5705 19.6739Z"/>
<path id="path15_fill" d="M 32.1357 7.1749L 5.49685e-08 7.1749L 5.95142 -2.00623e-08L 38.0883 -2.00623e-08L 32.1357 7.1749Z"/>
<path id="path16_fill" d="M 32.7884 8.31253L 1.16885 8.31253C 0.715934 8.31253 0.303869 9.2838 0.111137 8.86746C -0.0818306 8.45052 -0.0200779 7.95831 0.269668 7.60455L 6.12549 0.429052C 6.34696 0.157113 6.67661 0 7.02479 0L 38.6454 0C 39.0985 0 39.5104 0.266127 39.7031 0.682465C 39.8961 1.0994 39.8345 1.59162 39.5446 1.94597L 33.3328 9.5992C 33.1113 9.87114 33.1365 8.31253 32.7884 8.31253ZM 3.65631 7.1749L 32.2397 7.1749L 36.158 2.37501L 7.57354 2.37501L 3.65631 7.1749Z"/>
<path id="path17_fill" d="M 8.90747 10.7374L 57.0002 10.7374L 48.0928 -2.00623e-08L -3.75154e-08 -2.00623e-08L 8.90747 10.7374Z"/>
<path id="path18_fill" d="M 69.9519 41.5627L 29.7862 41.5627C 29.1338 41.5627 28.6049 41.0315 28.6049 40.3752L 28.6049 37.3008C 13.8173 30.7162 3.15984 17.358 0.0224507 1.41824C -0.0461874 1.06924 0.0444211 0.708587 0.268741 0.433681C 0.49306 0.158893 0.827703 0 1.18134 0L 96.1941 0C 96.547 0 96.8828 0.158893 97.1067 0.433681C 97.3316 0.708587 97.4216 1.06924 97.3534 1.41824C 94.4197 16.3224 84.6425 29.2586 71.1332 36.1656L 71.1332 40.3752C 71.1332 41.0315 70.6049 41.5627 69.9519 41.5627ZM 30.8751 39.1877L 69.0231 39.1877L 69.0231 35.4315C 69.0231 34.9781 69.0278 34.564 69.4327 34.3646C 82.191 28.0838 91.5968 17.4345 94.767 3.61239C 94.767 3.61239 94.9643 2.37501 93.8314 2.37501C 93.0446 2.37501 5.82128 2.37501 4.04928 2.37501C 2.27728 2.37501 2.86795 3.56251 2.86795 3.56251C 6.24878 18.3564 16.2539 29.458 30.2477 35.428C 30.6837 35.6147 30.8751 36.336 30.8751 36.8126L 30.8751 39.1877Z"/>
<path id="path19_fill" d="M 58.6492 11.875L 10.175 11.875C 9.81902 11.875 9.48129 12.9553 9.25388 12.6834L 0.275872 1.94597C -0.0204111 1.59162 -0.0835859 1.0994 0.1133 0.682465C 0.310902 0.266127 0.732823 0 1.1969 0L 49.6711 0C 50.0276 0 50.3654 0.157113 50.5921 0.429052L 59.5702 11.1665C 59.8671 11.5208 59.9303 12.013 59.7327 12.43C 59.5351 12.8463 59.1132 11.875 58.6492 11.875ZM 10.7372 10.7374L 56.1011 10.7374L 49.1089 2.37501L 3.74505 2.37501L 10.7372 10.7374Z"/>
<path id="path20_fill" d="M 1.1875 19.9893C 0.531642 19.9893 5.85635e-08 19.4581 5.85635e-08 18.8018L 5.85635e-08 1.1875C 5.85635e-08 0.531769 0.531642 0 1.1875 0C 1.84324 0 2.37501 0.531769 2.37501 1.1875L 2.37501 18.8018C 2.37501 19.4581 1.84324 19.9893 1.1875 19.9893Z"/>
<path id="path21_fill" d="M 17.7873 2.37501L 1.21279 2.37501C 0.543042 2.37501 -6.0187e-08 1.84325 -6.0187e-08 1.1875C -6.0187e-08 0.531769 0.543042 0 1.21279 0L 17.7873 0C 18.457 0 19.0001 0.531769 19.0001 1.1875C 19.0001 1.84325 18.457 2.37501 17.7873 2.37501Z"/>
<path id="path22_fill" d="M 3.49535 24.5273C 2.89471 24.5273 2.37921 24.0739 2.31544 23.4627L 0.00646057 1.3106C -0.0613486 0.658897 0.412346 0.0744037 1.06464 0.0071881C 1.71872 -0.064775 2.30036 0.411896 2.36876 1.06478L 4.67763 23.2168C 4.74555 23.8686 4.27174 24.453 3.61944 24.5203C 3.57776 24.5249 3.53596 24.5273 3.49535 24.5273Z"/>
<path id="path23_fill" d="M 2.09327 11.0704C 1.49262 11.0704 0.977126 10.6169 0.913358 10.0058L 0.00646012 1.31056C -0.0613468 0.658275 0.41235 0.0743797 1.06465 0.0065659C 1.71065 -0.0618276 2.30024 0.411862 2.36877 1.06476L 3.27554 9.76002C 3.34347 10.4117 2.86965 10.9962 2.21736 11.0634C 2.17568 11.0681 2.13447 11.0704 2.09327 11.0704Z"/>
<path id="path24_fill" d="M 15.3936 2.37501L 1.23145 2.37501C 0.550754 2.37501 5.85635e-08 1.84384 5.85635e-08 1.1875C 5.85635e-08 0.531175 0.550754 0 1.23145 0L 15.3936 0C 16.0743 0 16.6251 0.531175 16.6251 1.1875C 16.6251 1.84384 16.0743 2.37501 15.3936 2.37501Z"/>
<path id="path25_fill" d="M 58.2008 2.37501L 1.19997 2.37501C 0.537223 2.37501 -6.0187e-08 1.84384 -6.0187e-08 1.1875C -6.0187e-08 0.531175 0.537223 0 1.19997 0L 58.2008 0C 58.864 0 59.4008 0.531175 59.4008 1.1875C 59.4008 1.84384 58.864 2.37501 58.2008 2.37501Z"/>
<path id="path26_fill" d="M 12.1812 6.0894C 12.1812 5.62497 11.653 5.16517 11.0071 5.0672L 8.79787 4.73208C 8.15198 4.63399 7.54374 4.02576 7.44625 3.37987L 7.11232 1.1742C 7.01483 0.528199 6.55503 8.72654e-08 6.09059 8.72654e-08C 5.62616 8.72654e-08 5.16636 0.528199 5.06898 1.1742L 4.73494 3.37987C 4.63756 4.02576 4.02933 4.63399 3.38332 4.73208L 1.1742 5.0672C 0.528203 5.16517 8.91933e-08 5.62497 8.91933e-08 6.0894C 8.91933e-08 6.55383 0.528203 7.01364 1.1742 7.11113L 3.38332 7.44506C 4.02933 7.54255 4.63756 8.15079 4.73494 8.79668L 5.06898 11.0035C 5.16636 11.6494 5.62616 12.1777 6.09059 12.1777C 6.55503 12.1777 7.00913 11.6483 7.10009 11.0018L 7.45848 8.45396C 7.54944 7.80749 8.15661 7.23808 8.80772 7.1888L 10.9972 7.02302C 11.6484 6.97362 12.1812 6.55383 12.1812 6.0894Z"/>
<path id="path27_fill" d="M 12.1813 6.08941C 12.1813 5.62498 11.6524 5.16518 11.0077 5.06721L 8.79727 4.73209C 8.15257 4.63412 7.54374 4.02589 7.44637 3.37988L 7.11232 1.17421C 7.01494 0.528209 6.55455 -1.26187e-08 6.09059 -1.26187e-08C 5.62675 -1.26187e-08 5.16636 0.528209 5.06898 1.17421L 4.73493 3.37988C 4.63756 4.02589 4.02873 4.63412 3.38403 4.73209L 1.17361 5.06721C 0.52891 5.16518 -1.65717e-07 5.62498 -1.65717e-07 6.08941C -1.65717e-07 6.55396 0.52891 7.01377 1.17479 7.11114L 3.38285 7.44507C 4.02873 7.54256 4.63756 8.1508 4.73493 8.79669L 5.06898 11.0035C 5.16636 11.6495 5.62675 12.1777 6.09059 12.1777C 6.55455 12.1777 7.00912 11.6484 7.10068 11.0019L 7.45788 8.45409C 7.54956 7.80749 8.15601 7.23809 8.80772 7.1888L 10.9972 7.02303C 11.6489 6.97375 12.1813 6.55396 12.1813 6.08941Z"/>
<path id="path28_fill" d="M 12.1812 6.0894C 12.1812 5.62497 11.6524 5.16517 11.0077 5.0672L 8.79727 4.73197C 8.15257 4.634 7.54373 4.02576 7.44624 3.37987L 7.11232 1.17409C 7.01494 0.528199 6.55454 3.31086e-08 6.09058 3.31086e-08C 5.62675 3.31086e-08 5.16635 0.528199 5.06897 1.17409L 4.73493 3.37987C 4.63756 4.02576 4.02872 4.634 3.38391 4.73197L 1.17361 5.0672C 0.528793 5.16517 -1.62357e-09 5.62497 -1.62357e-09 6.0894C -1.62357e-09 6.55384 0.528793 7.01364 1.17479 7.11113L 3.38284 7.44506C 4.02872 7.54243 4.63756 8.15068 4.73493 8.79668L 5.06897 11.0041C 5.16635 11.6488 5.62675 12.1777 6.09058 12.1777C 6.55454 12.1777 7.00912 11.6488 7.10068 11.0018L 7.45788 8.45396C 7.54943 7.80749 8.15601 7.23808 8.80772 7.1888L 10.9972 7.0229C 11.6489 6.97362 12.1812 6.55384 12.1812 6.0894Z"/>
<path id="path29_fill" d="M 4.74942 9.50004C 2.13038 9.50004 5.85635e-08 7.3699 5.85635e-08 4.75109C 5.85635e-08 2.13134 2.13038 0 4.74942 0C 7.36858 0 9.50004 2.13134 9.50004 4.75109C 9.50004 7.3699 7.36858 9.50004 4.74942 9.50004ZM 4.74942 2.22361C 3.35635 2.22361 2.22384 3.35756 2.22384 4.75109C 2.22384 6.14356 3.35635 7.27644 4.74942 7.27644C 6.14259 7.27644 7.27619 6.14356 7.27619 4.75109C 7.27619 3.35756 6.14259 2.22361 4.74942 2.22361Z"/>
<path id="path30_fill" d="M 4.74954 9.48958C 2.13038 9.48958 -6.0187e-08 7.36182 -6.0187e-08 4.74586C -6.0187e-08 2.12896 2.13038 -2.97311e-08 4.74954 -2.97311e-08C 7.36905 -2.97311e-08 9.50004 2.12896 9.50004 4.74586C 9.50004 7.36182 7.36905 9.48958 4.74954 9.48958ZM 4.74954 2.22111C 3.35683 2.22111 2.22384 3.35387 2.22384 4.74586C 2.22384 6.13679 3.35683 7.26848 4.74954 7.26848C 6.1426 7.26848 7.27619 6.13679 7.27619 4.74586C 7.27619 3.35387 6.1426 2.22111 4.74954 2.22111Z"/>
<path id="path31_fill" d="M 4.74954 9.50004C 2.13038 9.50004 8.60694e-08 7.3699 8.60694e-08 4.75109C 2.0482e-07 2.13122 2.13038 0 4.74954 0C 7.36906 0 9.50004 2.13122 9.50004 4.75109C 9.50004 7.3699 7.36906 9.50004 4.74954 9.50004ZM 4.74954 2.22349C 3.35683 2.22349 2.22384 3.35708 2.22384 4.75109C 2.22384 6.14404 3.35683 7.27656 4.74954 7.27656C 6.1426 7.27656 7.27619 6.14404 7.27619 4.75109C 7.27619 3.35708 6.1426 2.22349 4.74954 2.22349Z"/>
<path id="path32_fill" d="M 36.8126 2.37501L 1.1875 2.37501C 0.531646 2.37501 -3.75154e-08 1.84325 -3.75154e-08 1.1875C -3.75154e-08 0.531771 0.531646 0 1.1875 0L 36.8126 0C 37.469 0 38.0001 0.531771 38.0001 1.1875C 38.0001 1.84325 37.469 2.37501 36.8126 2.37501Z"/>
<path id="path33_fill" d="M 15.4376 26.1901C 14.7812 26.1901 14.2501 25.6589 14.2501 25.0026L 14.2501 2.37501L 1.1875 2.37501C 0.53176 2.37501 5.85635e-08 1.84325 5.85635e-08 1.1875C 5.85635e-08 0.531769 0.53176 0 1.1875 0L 15.4376 0C 16.0939 0 16.6251 0.531769 16.6251 1.1875L 16.6251 25.0026C 16.6251 25.6589 16.0939 26.1901 15.4376 26.1901Z"/>
</defs>
</svg>
