<svg width="152" height="152" viewBox="0 0 152 152" version="1.1" xmlns="http://www.w3.org/2000/svg" xmlns:xlink="http://www.w3.org/1999/xlink">
<title>Group</title>
<desc>Created using Figma</desc>
<g id="Canvas" transform="translate(-6114 -1511)">
<g id="Group">
<g id="Vector">
<use xlink:href="#path0_fill" transform="translate(6114 1511)" fill="#C7D455"/>
</g>
<g id="Vector">
<use xlink:href="#path1_fill" transform="translate(6141.15 1532.17)" fill="#F99900"/>
</g>
<g id="Vector">
<use xlink:href="#path2_fill" transform="translate(6149.2 1539.6)" fill="#FBD000"/>
</g>
<g id="Vector">
<use xlink:href="#path3_fill" transform="translate(6149.2 1539.6)" fill="#F4B10B"/>
</g>
<g id="Vector">
<use xlink:href="#path4_fill" transform="translate(6171.13 1566.89)" fill="#F4B10B"/>
</g>
<g id="Vector">
<use xlink:href="#path5_fill" transform="translate(6148.01 1538.42)" fill="#663210"/>
</g>
<g id="Vector">
<use xlink:href="#path6_fill" transform="translate(6190 1538.91)" fill="#663210"/>
</g>
<g id="Vector">
<use xlink:href="#path7_fill" transform="translate(6190 1593.53)" fill="#663210"/>
</g>
<g id="Vector">
<use xlink:href="#path8_fill" transform="translate(6171.13 1562.85)" fill="#3AD0F9"/>
</g>
<g id="Vector">
<use xlink:href="#path9_fill" transform="translate(6171.13 1575.76)" fill="#00B3F9"/>
</g>
<g id="Vector">
<use xlink:href="#path10_fill" transform="translate(6200.93 1575.76)" fill="#00B3F9"/>
</g>
<g id="Vector">
<use xlink:href="#path11_fill" transform="translate(6178.14 1589.37)" fill="#00B3F9"/>
</g>
<g id="Vector">
<use xlink:href="#path12_fill" transform="translate(6139.96 1531.19)" fill="#663210"/>
</g>
<g id="Vector">
<use xlink:href="#path13_fill" transform="translate(6169.95 1561.66)" fill="#663210"/>
</g>
<g id="Vector">
<use xlink:href="#path14_fill" transform="translate(6158.43 1582.25)" fill="#FFFFFF"/>
</g>
<g id="Vector">
<use xlink:href="#path15_fill" transform="translate(6153.37 1545.55)" fill="#FFFFFF"/>
</g>
<g id="Vector">
<use xlink:href="#path16_fill" transform="translate(6172.3 1534.54)" fill="#FFFFFF"/>
</g>
<g id="Vector" opacity="0.5">
<use xlink:href="#path17_fill" transform="translate(6187.09 1588.38)" fill="#FFFFFF"/>
</g>
<g id="Vector" opacity="0.5">
<use xlink:href="#path18_fill" transform="translate(6190.24 1570.58)" fill="#FFFFFF"/>
</g>
<g id="Vector" opacity="0.5">
<use xlink:href="#path19_fill" transform="translate(6238.69 1607.13)" fill="#FFFFFF"/>
</g>
<g id="Vector" opacity="0.5">
<use xlink:href="#path20_fill" transform="translate(6134.19 1608.38)" fill="#FFFFFF"/>
</g>
<g id="Vector" opacity="0.5">
<use xlink:href="#path21_fill" transform="translate(6155.56 1525.25)" fill="#FFFFFF"/>
</g>
<g id="Vector" opacity="0.5">
<use xlink:href="#path22_fill" transform="translate(6125.97 1572.6)" fill="#FFFFFF"/>
</g>
<g id="Vector" opacity="0.5">
<use xlink:href="#path23_fill" transform="translate(6241.75 1577.35)" fill="#FFFFFF"/>
</g>
<g id="Vector" opacity="0.5">
<use xlink:href="#path24_fill" transform="translate(6212.66 1635.53)" fill="#FFFFFF"/>
</g>
<g id="Vector">
<use xlink:href="#path25_fill" transform="translate(6196.94 1550.38)" fill="#FFFFFF"/>
</g>
</g>
</g>
<defs>
<path id="path0_fill" d="M 76 152C 117.974 152 152 117.974 152 76C 152 34.0264 117.974 0 76 0C 34.0264 0 0 34.0264 0 76C 0 117.974 34.0264 152 76 152Z"/>
<path id="path1_fill" d="M 97.6188 28.952C 98.5442 25.1449 96.4128 20.6384 92.8815 18.9383L 56.2534 1.30213C 52.7223 -0.398015 46.925 -0.438626 43.3707 1.21164L 4.99501 19.0288C 1.44058 20.6789 -0.710576 25.1449 0.214846 28.952L 13.108 81.979C 14.0334 85.7874 17.4741 90.6557 20.7548 92.7998L 43.8694 107.906C 47.1501 110.05 52.4729 109.983 55.6991 107.758L 77.1785 92.9472C 80.4047 90.7229 83.8013 85.7862 84.7267 81.979L 97.6188 28.952Z"/>
<path id="path2_fill" d="M 81.6051 23.3686C 82.1988 20.8243 80.7608 17.8092 78.4113 16.667L 45.8954 0.874508C 43.5459 -0.26775 39.6876 -0.294349 37.322 0.8143L 3.35526 16.7273C 0.989635 17.8358 -0.459941 20.8243 0.13262 23.3686L 11.3605 71.5239C 11.9531 74.0682 14.2249 77.3245 16.4074 78.7591L 37.6548 92.7295C 39.8373 94.164 43.3801 94.1212 45.5266 92.6322L 65.3964 78.8565C 67.5429 77.3674 69.7858 74.0682 70.3783 71.5239L 81.6051 23.3686Z"/>
<path id="path3_fill" d="M 0.580186 25.2878C 1.15778 24.0261 2.12833 22.943 3.35526 22.3679L 37.322 6.45492C 39.6876 5.34628 43.5459 5.37288 45.8954 6.51513L 78.4113 22.3076C 79.6278 22.8989 80.5904 23.9949 81.1632 25.2647L 81.6051 23.3686C 82.1988 20.8243 80.7608 17.8092 78.4113 16.667L 45.8954 0.874508C 43.5459 -0.26775 39.6876 -0.294349 37.322 0.8143L 3.35526 16.7273C 0.989635 17.8358 -0.459941 20.8243 0.13262 23.3686L 0.580186 25.2878Z"/>
<path id="path4_fill" d="M 18.196 0.878421C 18.7736 -0.292807 19.7199 -0.292807 20.2974 0.878421L 24.4999 9.39268C 25.0775 10.5639 26.6082 11.6749 27.9013 11.8628L 37.2957 13.2289C 38.5888 13.4168 38.881 14.3155 37.9452 15.2282L 31.1472 21.8545C 30.2113 22.7671 29.6268 24.5658 29.8472 25.853L 31.4533 35.2115C 31.6737 36.4988 30.9083 37.0543 29.7521 36.4465L 21.3491 32.0282C 20.193 31.4206 18.3003 31.4206 17.1442 32.0282L 8.7412 36.4465C 7.58506 37.0543 6.81971 36.4988 7.03999 35.2115L 8.6462 25.853C 8.86649 24.5658 8.28199 22.7671 7.34613 21.8545L 0.548165 15.2282C -0.387706 14.3155 -0.0954603 13.4168 1.19761 13.2289L 10.592 11.8628C 11.8851 11.6749 13.4159 10.5639 13.9934 9.39268L 18.196 0.878421Z"/>
<path id="path5_fill" d="M 43.1751 96.0843L 41.9876 96.0843C 40.3061 96.0843 39.4068 95.7108 38.1867 94.9095L 16.9393 80.939C 14.4913 79.3294 12.0531 75.8342 11.388 72.9802L 0.160621 24.8256C -0.554253 21.7583 1.1846 18.1755 4.03567 16.8396L 38.0023 0.926011C 39.2775 0.328818 40.9485 1.31332e-08 42.7089 1.31332e-08C 44.5434 1.31332e-08 46.2806 0.353162 47.5992 0.993817L 80.1139 16.7863C 82.9412 18.1604 84.6599 21.767 83.9455 24.8256L 72.7188 72.9802C 72.0566 75.8238 69.6585 79.3537 67.2579 81.0191L 47.387 94.7959C 46.1265 95.6703 44.9459 96.0843 43.1751 96.0843ZM 42.7089 2.375C 41.3103 2.375 39.9622 2.63067 39.0102 3.07657L 5.0435 18.9901C 3.18447 19.8611 2.00742 22.2865 2.47363 24.2864L 13.701 72.4409C 14.2269 74.6989 16.3073 77.6815 18.244 78.9537L 39.4913 92.9242C 40.328 93.475 41.4628 93.7777 42.6857 93.7777C 43.9579 93.7777 45.179 93.4368 46.0336 92.8442L 65.9045 79.0673C 67.8169 77.7406 69.8787 74.7069 70.4063 72.4421L 81.6331 24.2864C 82.1017 22.2801 80.9303 19.8234 79.076 18.9223L 46.5613 3.13001C 45.5732 2.6499 44.1701 2.375 42.7089 2.375Z"/>
<path id="path6_fill" d="M 1.1875 24.3438C 0.531753 24.3438 0 23.812 0 23.1562L 0 1.1875C 0 0.531762 0.531753 0 1.1875 0C 1.84383 0 2.375 0.531762 2.375 1.1875L 2.375 23.1562C 2.375 23.812 1.84383 24.3438 1.1875 24.3438Z"/>
<path id="path7_fill" d="M 1.1875 40.375C 0.531753 40.375 0 39.8438 0 39.1875L 0 1.1875C 0 0.531173 0.531753 0 1.1875 0C 1.84383 0 2.375 0.531173 2.375 1.1875L 2.375 39.1875C 2.375 39.8438 1.84383 40.375 1.1875 40.375Z"/>
<path id="path8_fill" d="M 18.196 0.878421C 18.7736 -0.292807 19.7199 -0.292807 20.2974 0.878421L 24.4999 9.39268C 25.0775 10.5639 26.6082 11.6749 27.9013 11.8628L 37.2957 13.2289C 38.5888 13.4168 38.881 14.3155 37.9452 15.2282L 31.1472 21.8545C 30.2113 22.7671 29.6268 24.5658 29.8472 25.853L 31.4533 35.2115C 31.6737 36.4988 30.9083 37.0543 29.7521 36.4465L 21.3491 32.0282C 20.193 31.4206 18.3003 31.4206 17.1442 32.0282L 8.7412 36.4465C 7.58506 37.0543 6.81971 36.4988 7.03999 35.2115L 8.6462 25.853C 8.86649 24.5658 8.28199 22.7671 7.34613 21.8545L 0.548165 15.2282C -0.387706 14.3155 -0.0954603 13.4168 1.19761 13.2289L 10.592 11.8628C 11.8851 11.6749 13.4159 10.5639 13.9934 9.39268L 18.196 0.878421Z"/>
<path id="path9_fill" d="M 8.23449 10.2862L 8.6462 7.89034C 8.86649 6.60321 8.28199 4.8045 7.34613 3.89191L 3.3534 5.41565e-08L 1.19761 0.313142C -0.0954601 0.501004 -0.387706 1.39971 0.548165 2.31242L 7.34613 8.93878C 7.70214 9.28542 8.00602 9.76089 8.23449 10.2862Z"/>
<path id="path10_fill" d="M 7.49498 0.313142L 5.33919 5.41565e-08L 1.34646 3.89191C 0.410591 4.8045 -0.1739 6.60321 0.0465007 7.89034L 0.45821 10.2862C 0.686565 9.76089 0.990452 9.28542 1.34646 8.93878L 8.14443 2.31242C 9.08029 1.39971 8.78805 0.501004 7.49498 0.313142Z"/>
<path id="path11_fill" d="M 23.8342 5.09209C 23.5442 5.16061 23.1743 5.09672 22.7499 4.87406L 14.3469 0.455729C 13.1908 -0.15191 11.2981 -0.15191 10.142 0.455729L 1.73901 4.87406C 1.31459 5.09672 0.944688 5.16061 0.654703 5.09209L 0.0378003 8.68594C -0.182487 9.97319 0.582862 10.5287 1.73901 9.92094L 10.142 5.5026C 11.2981 4.89497 13.1908 4.89497 14.3469 5.5026L 22.7499 9.92094C 23.9061 10.5287 24.6715 9.97319 24.4511 8.68594L 23.8342 5.09209Z"/>
<path id="path12_fill" d="M 52.4111 111.625L 50.0361 111.625C 47.6269 111.625 46.1397 111.015 44.4048 109.881L 21.2903 94.775C 17.784 92.4836 14.1276 87.309 13.139 83.241L 0.24581 30.214C -0.808929 25.8746 1.62865 20.8137 5.68005 18.9328L 44.0558 1.11566C 45.8915 0.26327 48.666 0 51.2236 0C 53.8909 0 56.0525 0.298062 57.9532 1.21362L 94.5813 18.8498C 98.5984 20.7836 101.011 25.8814 99.9576 30.214L 87.0655 83.241C 86.0787 87.3022 82.4767 92.5345 79.0372 94.9061L 57.5578 109.717C 55.7602 110.957 54.9503 111.625 52.4111 111.625ZM 51.2236 2.375C 49.0046 2.375 46.585 2.56001 45.0554 3.27026L 6.67968 21.0874C 3.65583 22.4911 1.76617 26.4138 2.55348 29.6527L 15.4468 82.6797C 16.2986 86.1842 19.5694 90.8136 22.5891 92.7873L 45.7037 107.893C 47.0575 108.778 48.8788 109.265 50.8316 109.265L 50.8322 109.265C 52.8645 109.265 54.8244 108.718 56.2102 107.762L 77.6896 92.9509C 80.6664 90.8983 83.903 86.1947 84.7578 82.6797L 97.6498 29.6527C 98.4384 26.4062 96.562 22.439 93.5515 20.9894L 56.9234 3.35314C 55.359 2.60051 53.5082 2.375 51.2236 2.375Z"/>
<path id="path13_fill" d="M 31.7933 39.0676C 31.3433 39.0676 30.8702 38.9388 30.3877 38.6848L 21.9837 34.2665C 21.2137 33.8606 19.6568 33.8606 18.8844 34.2665L 10.4816 38.6848C 9.32946 39.2902 8.17616 39.1464 7.51971 38.3671C 7.20371 37.9925 6.86682 37.3118 7.05705 36.1986L 8.66374 26.84C 8.818 25.9371 8.36105 24.5322 7.70472 23.8921L 0.90676 17.2664C 0.125144 16.5033 -0.170545 15.5964 0.0955766 14.7771C 0.361698 13.9579 1.13404 13.3983 2.21479 13.2411L 11.6087 11.875C 12.5161 11.7434 13.7112 10.876 14.1159 10.0549L 18.3192 1.54066C 18.8015 0.561927 19.5727 -5.35767e-08 20.4344 -5.35767e-08C 21.296 -5.35767e-08 22.0672 0.561927 22.5497 1.54066L 26.7522 10.0549C 27.1569 10.876 28.3526 11.7434 29.2595 11.875L 38.6539 13.2411C 39.7347 13.3983 40.507 13.9579 40.7737 14.7771C 41.0394 15.5964 40.7437 16.5033 39.962 17.2658L 33.164 23.8927C 32.5077 24.5322 32.0507 25.9371 32.205 26.84L 33.8112 36.1986C 34.0025 37.3118 33.665 37.9925 33.3484 38.3671C 32.9681 38.8194 32.4149 39.0676 31.7933 39.0676ZM 20.4344 31.5725C 21.4201 31.5725 22.3629 31.7825 23.0889 32.1652L 31.4652 36.5685L 29.8648 27.2413C 29.5761 25.5562 30.2811 23.3859 31.5058 22.192L 38.2817 15.5871L 28.9185 14.2257C 27.2254 13.9792 25.378 12.6381 24.6231 11.1056L 20.4344 2.62034L 16.2457 11.1056C 15.4901 12.6381 13.644 13.9792 11.9503 14.2257L 2.58707 15.5871L 9.36306 22.1914C 10.587 23.3859 11.2928 25.5562 11.0045 27.2413L 9.40367 36.5685L 17.7793 32.1652C 18.5059 31.7825 19.4486 31.5725 20.4344 31.5725Z"/>
<path id="path14_fill" d="M 14.9414 35.6911C 14.7171 35.6911 14.4898 35.6274 14.2879 35.4951L 9.89392 32.5937C 8.36323 31.5813 6.82257 29.3906 6.38651 27.6059L 0.0338673 1.46928C -0.120985 0.832067 0.269828 0.189629 0.907152 0.0347816C 1.54377 -0.12292 2.18621 0.270856 2.34165 0.908066L 8.6943 27.0435C 8.98999 28.2564 10.1624 29.924 11.2033 30.6117L 15.5972 33.5121C 16.144 33.8739 16.2948 34.6103 15.9335 35.1577C 15.7051 35.5033 15.327 35.6911 14.9414 35.6911Z"/>
<path id="path15_fill" d="M 1.18818 7.16885C 0.741683 7.16885 0.313829 6.91603 0.112069 6.48402C -0.165685 5.89027 0.0905749 5.18346 0.684923 4.90571L 10.9376 0.111653C 11.5301 -0.164916 12.2387 0.0895652 12.5159 0.684502C 12.7936 1.27825 12.5372 1.98505 11.943 2.26281L 1.69038 7.05687C 1.52793 7.13286 1.35693 7.16885 1.18818 7.16885Z"/>
<path id="path16_fill" d="M 59.1699 20.5435C 58.9983 20.5435 58.8243 20.5063 58.6597 20.4275L 22.3945 3.11598C 20.3442 2.13903 16.8762 2.12454 14.8196 3.08642L 1.69035 9.2246C 1.10017 9.50177 0.390395 9.24717 0.112052 8.65163C -0.165711 8.05788 0.0906749 7.35109 0.685014 7.07333L 13.8135 0.935261C 16.5087 -0.325864 20.7281 -0.309715 23.4173 0.972312L 59.6825 18.2845C 60.2751 18.5668 60.5255 19.276 60.2427 19.8675C 60.0385 20.2941 59.6141 20.5435 59.1699 20.5435Z"/>
<path id="path17_fill" d="M 9.00504 4.73554C 8.81836 4.73554 8.62932 4.69148 8.4531 4.59874L 4.83953 2.69803C 4.03013 2.27349 2.55098 2.27349 1.74027 2.69803C 1.15994 3.00298 0.441503 2.78032 0.136556 2.19927C -0.168514 1.61954 0.0547356 0.901694 0.635186 0.596629C 2.14853 -0.198876 4.43246 -0.198876 5.94473 0.596629L 9.55937 2.49734C 10.1392 2.80241 10.3631 3.52013 10.0569 4.10117C 9.84461 4.50469 9.43183 4.73554 9.00504 4.73554Z"/>
<path id="path18_fill" d="M 8.16305 13.944C 7.85454 13.944 7.54614 13.824 7.31304 13.5858C 6.8549 13.1161 6.86428 12.364 7.33394 11.9065L 10.2354 9.07755L 6.22636 8.49531C 4.53334 8.24891 2.68595 6.90656 1.92986 5.37243L 0.123081 1.71362C -0.167371 1.12569 0.073804 0.413663 0.661738 0.123085C 1.24907 -0.16738 1.96229 0.0738036 2.25227 0.66185L 4.06013 4.32173C 4.46601 5.14455 5.66051 6.01308 6.56741 6.14466L 10.6076 6.73152C 11.6885 6.88863 12.4607 7.44877 12.7276 8.26862C 12.9931 9.08799 12.6974 9.99477 11.9146 10.7567L 8.99217 13.6066C 8.76144 13.8322 8.4623 13.944 8.16305 13.944Z"/>
<path id="path19_fill" d="M 4.74892 9.55332C 2.13013 9.55332 0 7.41118 0 4.77779C 0 2.14332 2.13013 1.56555e-08 4.74892 1.56555e-08C 7.36867 1.56555e-08 9.5 2.14332 9.5 4.77779C 9.5 7.41118 7.36867 9.55332 4.74892 9.55332ZM 4.74892 2.23606C 3.35599 2.23606 2.22359 3.37582 2.22359 4.77779C 2.22359 6.17856 3.35599 7.31738 4.74892 7.31738C 6.14305 7.31738 7.2764 6.17856 7.2764 4.77779C 7.2764 3.37582 6.14305 2.23606 4.74892 2.23606Z"/>
<path id="path20_fill" d="M 4.74893 9.5C 2.13013 9.5 0 7.36986 0 4.75107C 0 2.13132 2.13013 0 4.74893 0C 7.36867 0 9.5 2.13132 9.5 4.75107C 9.5 7.36986 7.36867 9.5 4.74893 9.5ZM 4.74893 2.22359C 3.35658 2.22359 2.22359 3.35707 2.22359 4.75107C 2.22359 6.144 3.35658 7.27653 4.74893 7.27653C 6.14246 7.27653 7.2764 6.144 7.2764 4.75107C 7.2764 3.35707 6.14246 2.22359 4.74893 2.22359Z"/>
<path id="path21_fill" d="M 4.74893 9.5C 2.13013 9.5 0 7.36986 0 4.75107C 0 2.13132 2.13013 0 4.74893 0C 7.36867 0 9.5 2.13132 9.5 4.75107C 9.5 7.36986 7.36867 9.5 4.74893 9.5ZM 4.74893 2.22359C 3.35599 2.22359 2.22359 3.35766 2.22359 4.75107C 2.22359 6.14365 3.35599 7.27652 4.74893 7.27652C 6.14305 7.27652 7.2764 6.14365 7.2764 4.75107C 7.2764 3.35766 6.14305 2.22359 4.74893 2.22359Z"/>
<path id="path22_fill" d="M 10.8437 5.42082C 10.8437 5.00792 10.3729 4.598 9.79889 4.51036L 7.83132 4.21289C 7.25729 4.12526 6.71531 3.58328 6.62862 3.00936L 6.33127 1.04476C 6.24459 0.470726 5.83478 -2.4469e-08 5.42177 -2.4469e-08C 5.00887 -2.4469e-08 4.59907 0.470726 4.51226 1.04476L 4.21503 3.00936C 4.12834 3.58328 3.58637 4.12526 3.01233 4.21289L 1.04476 4.51036C 0.470725 4.598 1.16953e-07 5.00792 1.16953e-07 5.42082C 1.16953e-07 5.83371 0.470725 6.24352 1.04476 6.33032L 3.01233 6.62756C 3.58637 6.71436 4.12834 7.25634 4.21503 7.83025L 4.51226 9.79581C 4.59907 10.3698 5.00887 10.8406 5.42177 10.8406C 5.83478 10.8406 6.23936 10.3698 6.32095 9.79379L 6.63896 7.52566C 6.72042 6.94972 7.26038 6.44278 7.84059 6.39944L 9.78963 6.25195C 10.3697 6.20849 10.8437 5.83371 10.8437 5.42082Z"/>
<path id="path23_fill" d="M 12.1811 6.08938C 12.1811 5.62554 11.6523 5.16515 11.0075 5.06658L 8.79724 4.73254C 8.15243 4.63398 7.54359 4.02515 7.44622 3.38045L 7.11218 1.17361C 7.0148 0.52879 6.55441 -2.4469e-08 6.09058 -2.4469e-08C 5.62674 -2.4469e-08 5.16634 0.52879 5.06885 1.17361L 4.73492 3.38045C 4.63755 4.02515 4.02871 4.63398 3.3839 4.73254L 1.17361 5.06658C 0.528799 5.16515 -1.92505e-08 5.62554 -1.92505e-08 6.08938C -1.92505e-08 6.55322 0.5288 7.01361 1.17361 7.11111L 3.3839 7.44503C 4.02871 7.54252 4.63755 8.15136 4.73492 8.79605L 5.06885 11.0041C 5.16634 11.6489 5.62674 12.1777 6.09058 12.1777C 6.55441 12.1777 7.00898 11.6489 7.10066 11.0017L 7.45786 8.45393C 7.54941 7.80686 8.15587 7.23746 8.80769 7.18877L 10.9971 7.02299C 11.6488 6.97418 12.1811 6.55322 12.1811 6.08938Z"/>
<path id="path24_fill" d="M 12.1811 6.08938C 12.1811 5.62554 11.6523 5.16515 11.0075 5.06659L 8.79724 4.73254C 8.15243 4.63398 7.54359 4.02514 7.44622 3.38045L 7.11218 1.1736C 7.0148 0.52879 6.55441 -2.4469e-08 6.09058 -2.4469e-08C 5.62674 -2.4469e-08 5.16634 0.52879 5.06885 1.1736L 4.73492 3.38045C 4.63755 4.02514 4.02871 4.63398 3.3839 4.73254L 1.17361 5.06659C 0.528799 5.16515 -1.38001e-07 5.62554 -1.38001e-07 6.08938C -1.38001e-07 6.55322 0.528799 7.01361 1.17361 7.1111L 3.3839 7.44503C 4.02871 7.54253 4.63755 8.15135 4.73492 8.79605L 5.06885 11.0041C 5.16634 11.6489 5.62674 12.1777 6.09058 12.1777C 6.55441 12.1777 7.00898 11.6489 7.10066 11.0017L 7.45786 8.45393C 7.54941 7.80686 8.15587 7.23745 8.80769 7.18876L 10.9971 7.02299C 11.6488 6.97419 12.1811 6.55322 12.1811 6.08938Z"/>
<path id="path25_fill" d="M 20.6363 10.3176C 20.6363 9.8154 20.1098 9.31095 19.4673 9.1973L 13.8198 8.19304C 13.1773 8.07939 12.5569 7.45904 12.4432 6.81649L 11.4378 1.16897C 11.3241 0.526535 10.8197 5.41565e-08 10.3176 5.41565e-08C 9.81659 5.41565e-08 9.31213 0.526535 9.1985 1.16897L 8.1953 6.81649C 8.08165 7.45904 7.4613 8.07939 6.81887 8.19304L 1.16897 9.1973C 0.526426 9.31095 5.49683e-08 9.8154 5.49683e-08 10.3176C 5.49683e-08 10.8186 0.529986 11.301 1.17705 11.3891L 6.81068 12.1545C 7.45786 12.2426 8.07701 12.841 8.18722 13.4847L 9.20657 19.465C 9.31677 20.1086 9.81659 20.6352 10.3176 20.6352C 10.8197 20.6352 11.3195 20.1086 11.4297 19.4638L 12.4513 13.4475C 12.5615 12.8028 13.1808 12.2067 13.8278 12.122L 19.4592 11.3833C 20.1063 11.2987 20.6363 10.8186 20.6363 10.3176Z"/>
</defs>
</svg>
