<svg width="34" height="34" viewBox="0 0 34 34" version="1.1" xmlns="http://www.w3.org/2000/svg" xmlns:xlink="http://www.w3.org/1999/xlink">
<title>Hippopotamus</title>
<desc>Created using Figma</desc>
<g id="Canvas" transform="translate(-6088 -331)">
<g id="Hippopotamus">
<g id="Shape 2">
<use xlink:href="#path0_stroke" transform="translate(6089 332)" fill="#FFFFFF"/>
</g>
<g id="Shape">
<use xlink:href="#path1_stroke" transform="translate(6095.97 361.884)" fill="#FFFFFF"/>
</g>
<g id="Shape 1">
<use xlink:href="#path2_stroke" transform="translate(6098.79 352.372)" fill="#FFFFFF"/>
</g>
<g id="Oval">
<use xlink:href="#path3_stroke" transform="translate(6108.45 352.415)" fill="#FFFFFF"/>
</g>
<g id="Oval 1">
<use xlink:href="#path4_fill" transform="translate(6095.37 342.881)" fill="#FFFFFF"/>
</g>
<g id="Oval 2">
<use xlink:href="#path5_fill" transform="translate(6112.45 342.881)" fill="#FFFFFF"/>
</g>
<g id="Shape 3">
<use xlink:href="#path6_stroke" transform="translate(6110.85 351.822)" fill="#FFFFFF"/>
</g>
<g id="Shape 4">
<use xlink:href="#path7_stroke" transform="translate(6093.75 351.863)" fill="#FFFFFF"/>
</g>
<g id="Shape 5">
<use xlink:href="#path8_stroke" transform="translate(6093.87 356.503)" fill="#FFFFFF"/>
</g>
<g id="Shape 6">
<use xlink:href="#path8_stroke" transform="translate(6097.07 355.958)" fill="#FFFFFF"/>
</g>
<g id="Shape 7">
<use xlink:href="#path8_stroke" transform="translate(6098.67 358.683)" fill="#FFFFFF"/>
</g>
<g id="Shape 8">
<use xlink:href="#path8_stroke" transform="translate(6095.47 358.138)" fill="#FFFFFF"/>
</g>
<g id="Shape 9">
<use xlink:href="#path9_stroke" transform="translate(6115.22 356.503)" fill="#FFFFFF"/>
</g>
<g id="Shape 10">
<use xlink:href="#path9_stroke" transform="translate(6112.02 355.958)" fill="#FFFFFF"/>
</g>
<g id="Shape 11">
<use xlink:href="#path9_stroke" transform="translate(6110.42 358.683)" fill="#FFFFFF"/>
</g>
<g id="Shape 12">
<use xlink:href="#path9_stroke" transform="translate(6113.62 358.138)" fill="#FFFFFF"/>
</g>
</g>
</g>
<defs>
<path id="path0_stroke" d="M 26.548 3.59465L 25.6386 4.01055L 25.9973 4.79499L 26.8259 4.55525L 26.548 3.59465ZM 6.30043 3.6317L 6.08798 4.60887L 6.81059 4.76598L 7.17249 4.1211L 6.30043 3.6317ZM 3.16563 10.3818L 4.11416 10.6985L 4.15951 10.5627L 4.16492 10.4196L 3.16563 10.3818ZM 4.74478 21.2115L 5.21071 22.0964L 5.76111 21.8065L 5.74442 21.1847L 4.74478 21.2115ZM 27.1892 21.2115L 26.1896 21.1832L 26.167 21.9806L 26.9394 22.1799L 27.1892 21.2115ZM 29.2915 10.3818L 28.2916 10.3992L 28.2946 10.5695L 28.3538 10.7293L 29.2915 10.3818ZM 30.1846 9.7443L 30.1846 10.7443L 30.1848 10.7443L 30.1846 9.7443ZM 27.9574 2.26499C 27.2276 2.26499 26.495 2.56897 26.2701 2.63405L 26.8259 4.55525C 27.068 4.48435 27.2852 4.40191 27.4805 4.34625C 27.6789 4.28811 27.791 4.25957 27.9574 4.26499L 27.9574 2.26499ZM 27.4574 3.17875C 27.3459 2.93485 27.1571 2.71673 26.9975 2.55327C 26.8317 2.38433 26.5861 2.16724 26.3161 1.96073C 25.7962 1.56597 25.0174 1.0799 24.0748 0.643157C 22.2323 -0.202979 19.4505 -0.990345 15.9568 -1L 15.9568 1C 19.1732 0.990345 21.537 1.67228 23.2375 2.45946C 24.0665 2.83937 24.6586 3.21096 25.1042 3.5517C 25.317 3.71294 25.4528 3.83306 25.5664 3.9504C 25.6863 4.07322 25.6751 4.09043 25.6386 4.01055L 27.4574 3.17875ZM 15.9568 -1C 12.4314 -1 9.89755 -0.133299 8.19756 0.814782C 7.35747 1.28654 6.69263 1.79913 6.27201 2.18229C 5.85507 2.5632 5.55419 2.91811 5.42837 3.1423L 7.17249 4.1211C 7.12176 4.21893 7.77631 3.31909 9.17171 2.5615C 10.575 1.77887 12.7738 1 15.9568 1L 15.9568 -1ZM 6.51289 2.65453C 6.35986 2.62413 6.15965 2.54546 5.87082 2.45604C 5.58457 2.36845 5.16322 2.27267 4.74905 2.26554L 4.74905 4.26554C 4.92479 4.2584 5.05358 4.29667 5.28276 4.36764C 5.50937 4.43679 5.7899 4.5412 6.08798 4.60887L 6.51289 2.65453ZM 4.74905 2.26554C 1.7267 2.26554 -0.168774 4.22827 -0.778923 6.21077C -1.07904 7.18591 -1.09842 8.26326 -0.682033 9.15506C -0.234096 10.1144 0.67352 10.7443 1.89559 10.7443L 1.89559 8.7443C 1.45042 8.7443 1.24942 8.56433 1.13016 8.30892C 0.979365 7.98595 0.934223 7.44362 1.13259 6.79907C 1.51942 5.54219 2.71791 4.26554 4.74905 4.26554L 4.74905 2.26554ZM 1.89559 10.7443C 1.85121 10.7443 1.87061 10.738 1.96816 10.769C 2.066 10.7991 2.13839 10.8297 2.23877 10.8812C 2.33461 10.9297 2.38931 10.9675 2.40337 10.9788C 2.41262 10.9862 2.3794 10.962 2.33516 10.904C 2.3119 10.8735 2.27212 10.8162 2.23686 10.7332C 2.20169 10.6505 2.15986 10.5155 2.16634 10.3441L 4.16492 10.4196C 4.17902 10.0464 3.99754 9.78571 3.92554 9.69128C 3.85378 9.6019 3.73303 9.48279 3.65488 9.41875C 3.51857 9.31193 3.31086 9.18315 3.14155 9.09656C 2.83981 8.94392 2.34699 8.7443 1.89559 8.7443L 1.89559 10.7443ZM 2.2171 10.0651C 0.593711 14.9273 0.901113 17.7406 1.88592 19.5043C 2.37376 20.349 3.00266 20.9242 3.41889 21.2569C 3.63246 21.4271 3.77678 21.5316 3.85884 21.6102C 3.96858 21.7123 3.754 21.5685 3.74514 21.2384L 5.74442 21.1847C 5.72955 20.6309 5.36218 20.2772 5.22152 20.1463C 5.05318 19.9918 4.84947 19.84 4.66654 19.6937C 4.28977 19.3934 3.9318 19.095 3.63215 18.5293C 3.04194 17.4722 2.57178 15.318 4.11416 10.6985L 2.2171 10.0651ZM 4.27885 20.3267C 3.01371 20.9929 2.31296 21.8681 1.97296 22.8811C 1.68128 23.7952 1.68199 24.7738 1.68196 25.5936L 3.68196 25.5936C 3.68193 24.7585 3.65754 24.1024 3.86902 23.5174C 4.03218 23.0313 4.36284 22.5428 5.21071 22.0964L 4.27885 20.3267ZM 1.68196 25.5936C 1.68196 26.5151 1.83692 27.9102 2.87576 29.0685C 3.9292 30.243 5.70048 30.9669 8.46949 30.9669L 8.46949 28.9669C 6.0238 28.9669 4.90131 28.3315 4.36466 27.7331C 3.8134 27.1185 3.68196 26.3269 3.68196 25.5936L 1.68196 25.5936ZM 8.46949 30.9669C 10.5341 30.9537 11.9207 30.4998 13.0048 30.0847C 14.0937 29.6672 14.8395 29.3132 15.9558 29.3349L 15.9558 27.3349C 14.4252 27.3566 13.3305 27.8186 12.2893 28.2171C 11.2433 28.618 10.2102 28.9801 8.46949 28.9669L 8.46949 30.9669ZM 15.9558 29.3349C 17.0969 29.3181 18.0001 29.6833 19.2224 30.0979C 20.4411 30.511 21.9458 30.9561 23.986 30.9669L 23.986 28.9669C 22.2391 28.9777 21.0524 28.6067 19.8646 28.2039C 18.6803 27.8025 17.462 27.3517 15.9558 27.3349L 15.9558 29.3349ZM 23.986 30.9669C 26.827 30.9669 28.6485 30.4055 29.7146 29.2744C 30.7849 28.1387 30.8504 26.6721 30.8504 25.593L 28.8504 25.593C 28.8504 26.67 28.7419 27.3904 28.2591 27.9026C 27.7721 28.4194 26.6614 28.9669 23.986 28.9669L 23.986 30.9669ZM 30.8504 25.593C 30.8504 24.4182 30.6556 23.2609 30.1209 22.2963C 29.5678 21.2985 28.6796 20.5632 27.4389 20.2432L 26.9394 22.1799C 27.6361 22.3595 28.0785 22.737 28.3717 23.2659C 28.6833 23.8281 28.8504 24.6117 28.8504 25.593L 30.8504 25.593ZM 28.1888 21.2399C 28.1783 21.6096 27.9194 21.7576 28.0771 21.6226C 28.1809 21.5317 28.3533 21.4151 28.5982 21.2358C 29.0791 20.883 29.7918 20.2975 30.3624 19.4494C 31.5489 17.6386 31.9921 14.7921 30.2292 10.0344L 28.3538 10.7293C 29.9937 15.1552 29.3985 17.2713 28.6895 18.3533C 28.3124 18.9516 27.8632 19.2951 27.4158 19.6227C 27.1966 19.7836 26.9632 19.9451 26.7758 20.1038C 26.6421 20.2183 26.2064 20.5873 26.1896 21.1832L 28.1888 21.2399ZM 30.2913 10.3644C 30.2944 10.5429 30.2276 10.6644 30.192 10.715C 30.1578 10.7636 30.1339 10.776 30.1456 10.7682C 30.1542 10.7624 30.1713 10.7535 30.1907 10.7471C 30.2119 10.7402 30.2112 10.7443 30.1846 10.7443L 30.1846 8.7443C 29.7651 8.7443 29.3502 8.89453 29.0355 9.10455C 28.7609 9.28779 28.2798 9.71597 28.2916 10.3992L 30.2913 10.3644ZM 30.1848 10.7443C 31.4491 10.7441 32.3771 10.1247 32.7804 9.09706C 33.1388 8.18403 33.0203 7.10974 32.7003 6.17925C 32.078 4.36956 30.3621 2.26499 27.9574 2.26499L 27.9574 4.26499C 29.13 4.26499 30.3173 5.39981 30.809 6.82964C 31.046 7.5189 31.0372 8.06441 30.9187 8.36629C 30.8452 8.55362 30.7097 8.74422 30.1845 8.7443L 30.1848 10.7443Z"/>
<path id="path1_stroke" d="M 8.99067 1.10667L 9.40789 0.197869L 8.98965 0.00585614L 8.57176 0.19865L 8.99067 1.10667ZM 18.1148 0C 17.325 -0.61339 17.3254 -0.613885 17.3258 -0.614365C 17.3259 -0.614506 17.3263 -0.614972 17.3265 -0.615254C 17.3263 -0.615031 17.328 -0.617222 17.3277 -0.616773C 17.3275 -0.616558 17.3296 -0.61924 17.3293 -0.618795C 17.3296 -0.619272 17.33 -0.61973 17.3293 -0.618875C 17.3257 -0.614412 17.3239 -0.612236 17.3169 -0.604031C 17.2983 -0.582043 17.2788 -0.55964 17.2426 -0.521105C 17.16 -0.432634 17.0587 -0.330944 16.8985 -0.195949C 16.5545 0.0976438 16.1159 0.412428 15.4563 0.677639C 14.1993 1.19576 12.2074 1.48307 9.40789 0.197869L 8.57345 2.01548C 11.8664 3.52721 14.4365 3.26118 16.2185 2.52673C 17.0783 2.16566 17.7785 1.67935 18.1933 1.32842C 18.4125 1.14116 18.5957 0.959728 18.7027 0.845645C 18.7613 0.782904 18.8128 0.724172 18.8416 0.690344C 18.8583 0.670641 18.8743 0.651238 18.8825 0.6411C 18.8878 0.634654 18.8933 0.627686 18.8959 0.624432C 18.8977 0.622122 18.8999 0.619351 18.9008 0.618193C 18.9016 0.617273 18.9025 0.61607 18.9029 0.61561C 18.9032 0.61521 18.9036 0.614655 18.9038 0.614455C 18.9042 0.613915 18.9046 0.61339 18.1148 0ZM 8.57176 0.19865C 5.78599 1.48387 3.83098 1.19382 2.60943 0.680324C 1.96632 0.416953 1.54339 0.105388 1.2098 -0.187178C 1.05491 -0.321295 0.957895 -0.421686 0.878187 -0.509759C 0.843355 -0.547933 0.824943 -0.569804 0.807058 -0.591624C 0.800412 -0.599668 0.798898 -0.601605 0.795467 -0.605991C 0.794847 -0.606771 0.79536 -0.606127 0.795695 -0.605687C 0.795328 -0.606168 0.797497 -0.603323 0.797319 -0.603556C 0.796966 -0.604022 0.798684 -0.601751 0.798509 -0.601982C 0.798728 -0.601692 0.79909 -0.601212 0.799199 -0.601067C 0.799569 -0.600574 0.799951 -0.600065 1.38482e-07 0C -0.799951 0.600065 -0.799547 0.600604 -0.799131 0.601156C -0.798978 0.601361 -0.798549 0.60193 -0.798241 0.602339C -0.797887 0.602807 -0.796957 0.604037 -0.796247 0.604975C -0.795354 0.606151 -0.793202 0.608977 -0.791404 0.611324C -0.788879 0.614615 -0.783402 0.621695 -0.778296 0.628217C -0.770276 0.638432 -0.754608 0.658073 -0.738328 0.677936C -0.710358 0.711933 -0.659939 0.771197 -0.602863 0.834299C -0.498753 0.94878 -0.319636 1.13151 -0.105289 1.31965C 0.299618 1.67161 0.987636 2.16113 1.83439 2.52405C 3.59256 3.26312 6.13289 3.52641 9.40959 2.0147L 8.57176 0.19865Z"/>
<path id="path2_stroke" d="M 2.2579 1.408C 2.2579 1.91806 1.85606 2.31437 1.37788 2.31437L 1.37788 3.31437C 2.42654 3.31437 3.2579 2.45197 3.2579 1.408L 2.2579 1.408ZM 1.37788 2.31437C 0.902341 2.31437 0.5 1.91857 0.5 1.408L -0.5 1.408C -0.5 2.45146 0.330866 3.31437 1.37788 3.31437L 1.37788 2.31437ZM 0.5 1.408C 0.5 0.895416 0.902715 0.5 1.37788 0.5L 1.37788 -0.5C 0.330492 -0.5 -0.5 0.363283 -0.5 1.408L 0.5 1.408ZM 1.37788 0.5C 1.85568 0.5 2.2579 0.895926 2.2579 1.408L 3.2579 1.408C 3.2579 0.362773 2.42691 -0.5 1.37788 -0.5L 1.37788 0.5Z"/>
<path id="path3_stroke" d="M 1.34585 3.22609C 2.34315 3.22609 3.1917 2.48208 3.1917 1.40691L 2.1917 1.40691C 2.1917 1.88686 1.8348 2.22609 1.34585 2.22609L 1.34585 3.22609ZM 3.1917 1.40691C 3.1917 0.37431 2.38629 -0.499999 1.34585 -0.499999L 1.34585 0.500001C 1.79273 0.500001 2.1917 0.884392 2.1917 1.40691L 3.1917 1.40691ZM 1.34585 -0.499999C 0.305284 -0.499999 -0.500001 0.374984 -0.500001 1.40691L 0.499999 1.40691C 0.499999 0.884808 0.899094 0.500001 1.34585 0.500001L 1.34585 -0.499999ZM -0.500001 1.40691C -0.500001 2.48276 0.34869 3.22609 1.34585 3.22609L 1.34585 2.22609C 0.856757 2.22609 0.499999 1.88727 0.499999 1.40691L -0.500001 1.40691Z"/>
<path id="path4_fill" d="M 1.32503 2.72446C 2.05683 2.72446 2.65006 2.11457 2.65006 1.36223C 2.65006 0.609891 2.05683 0 1.32503 0C 0.593237 0 0 0.609891 0 1.36223C 0 2.11457 0.593237 2.72446 1.32503 2.72446Z"/>
<path id="path5_fill" d="M 1.32557 2.66452C 2.05766 2.66452 2.65113 2.06805 2.65113 1.33226C 2.65113 0.596473 2.05766 0 1.32557 0C 0.593477 0 0 0.596473 0 1.33226C 0 2.06805 0.593477 2.66452 1.32557 2.66452Z"/>
<path id="path6_stroke" d="M 5.33803 1.38867C 5.758 1.11734 5.75782 1.11706 5.75763 1.11677C 5.75756 1.11666 5.75737 1.11635 5.75722 1.11613C 5.75705 1.11587 5.75662 1.11521 5.75628 1.11468C 5.75583 1.114 5.7548 1.11243 5.7539 1.11106C 5.75258 1.10906 5.74983 1.10495 5.74716 1.10099C 5.74279 1.09455 5.73459 1.08264 5.72573 1.07013C 5.71008 1.04812 5.68267 1.01086 5.65071 0.970144C 5.59137 0.894881 5.49109 0.777184 5.36853 0.654284C 5.13438 0.421501 4.73875 0.101906 4.24397 -0.132991C 3.20908 -0.61531 1.7072 -0.760749 -0.23966 0.302519L 0.23966 1.18016C 1.92943 0.257298 3.09656 0.435524 3.82153 0.773403C 4.20668 0.948605 4.46369 1.16324 4.6622 1.36217C 4.75597 1.45512 4.81702 1.52765 4.86493 1.58864C 4.88659 1.61605 4.89928 1.63344 4.91033 1.64903C 4.91482 1.65533 4.91662 1.65796 4.91892 1.66136C 4.91957 1.66233 4.92001 1.66299 4.91967 1.66248C 4.91973 1.66258 4.91912 1.66165 4.91916 1.6617C 4.91929 1.6619 4.91861 1.66087 4.91868 1.66097C 4.91859 1.66083 4.91843 1.66059 4.91839 1.66051C 4.91822 1.66026 4.91805 1.66 5.33803 1.38867Z"/>
<path id="path7_stroke" d="M 9.7752e-08 1.34806C 0.357912 1.6972 0.357744 1.69738 0.357585 1.69754C 0.357545 1.69758 0.357395 1.69773 0.357314 1.69781C 0.357356 1.69777 0.356859 1.69828 0.356944 1.69819C 0.356874 1.69826 0.356751 1.69839 0.356885 1.69825C 0.357637 1.69749 0.358001 1.69713 0.359472 1.69567C 0.363401 1.69177 0.36764 1.68761 0.3753 1.68029C 0.392677 1.66366 0.414788 1.64298 0.448255 1.61342C 0.519623 1.55018 0.614991 1.47024 0.748538 1.37288C 1.02576 1.16967 1.39183 0.940121 1.87569 0.761345C 2.81229 0.410291 4.1186 0.281432 5.62839 1.23225L 6.16129 0.386075C 4.34516 -0.757666 2.70405 -0.617076 1.52471 -0.175041C 0.950598 0.0427278 0.466567 0.340634 0.158184 0.565739C -0.00107268 0.682543 -0.132386 0.791973 -0.214497 0.864577C -0.257769 0.902933 -0.294097 0.936786 -0.315975 0.957703C -0.327942 0.969164 -0.338535 0.979533 -0.34453 0.985472C -0.348022 0.988937 -0.351393 0.992315 -0.353136 0.994071C -0.354249 0.995195 -0.35545 0.996411 -0.356005 0.996976C -0.356402 0.99738 -0.356881 0.997868 -0.357079 0.99807C -0.357238 0.998232 -0.357447 0.998445 -0.357526 0.998526C -0.357724 0.998729 -0.357912 0.998922 9.7752e-08 1.34806Z"/>
<path id="path8_stroke" d="M -1.46628e-07 1L 0.866983 1L 0.866983 -1L -1.46628e-07 -1L -1.46628e-07 1Z"/>
<path id="path9_stroke" d="M 0.866983 -1L -1.46628e-07 -1L -1.46628e-07 1L 0.866983 1L 0.866983 -1Z"/>
</defs>
</svg>
