<svg width="15" height="34" viewBox="0 0 15 34" version="1.1" xmlns="http://www.w3.org/2000/svg" xmlns:xlink="http://www.w3.org/1999/xlink">
<title>Milk bottle</title>
<desc>Created using Figma</desc>
<g id="Canvas" transform="translate(-5836 -330)">
<g id="Milk bottle">
<g id="Shape">
<use xlink:href="#path0_stroke" transform="translate(5837 331)" fill="#FFFFFF"/>
</g>
<g id="Shape 1">
<use xlink:href="#path1_stroke" transform="translate(5837.27 347.481)" fill="#FFFFFF"/>
</g>
<g id="Shape 2">
<use xlink:href="#path2_stroke" transform="translate(5837.27 352.295)" fill="#FFFFFF"/>
</g>
<g id="Shape 3">
<use xlink:href="#path3_stroke" transform="translate(5837.27 356.977)" fill="#FFFFFF"/>
</g>
<g id="Shape 4">
<use xlink:href="#path4_stroke" transform="translate(5838.07 340.698)" fill="#FFFFFF"/>
</g>
<g id="Shape 5">
<use xlink:href="#path5_stroke" transform="translate(5839.32 338.598)" fill="#FFFFFF"/>
</g>
</g>
</g>
<defs>
<path id="path0_stroke" d="M 11.5921 9.97699L 11.5921 8.97699C 11.1331 8.97699 10.733 9.28943 10.6218 9.73472C 10.5107 10.18 10.7169 10.6438 11.122 10.8596L 11.5921 9.97699ZM 10.7868 7.3382L 9.80219 7.51289C 9.8869 7.99033 10.3019 8.3382 10.7868 8.3382L 10.7868 7.3382ZM 7.34976 2.81839L 6.73769 2.02759C 6.493 2.21697 6.34976 2.50897 6.34976 2.81839L 7.34976 2.81839ZM 5.6839 2.81786L 6.6839 2.81786C 6.6839 2.50844 6.54067 2.21645 6.29598 2.02706L 5.6839 2.81786ZM 2.24739 7.33768L 2.24739 8.33768C 2.73118 8.33768 3.14559 7.99135 3.2315 7.51525L 2.24739 7.33768ZM 1.4074 9.97699L 1.8775 10.8596C 2.2826 10.6438 2.4888 10.18 2.37761 9.73472C 2.26642 9.28943 1.86637 8.97699 1.4074 8.97699L 1.4074 9.97699ZM 13 13.0942L 14 13.0942L 14 13.0938L 13 13.0942ZM 11.5921 10.977L 11.9678 10.977L 11.9678 8.97699L 11.5921 8.97699L 11.5921 10.977ZM 11.9678 10.977C 12.6381 10.977 13.1523 10.5223 13.4274 10.1767C 13.7399 9.78417 13.9973 9.22813 13.9973 8.60587L 11.9973 8.60587C 11.9973 8.68361 11.9566 8.81314 11.8626 8.93114C 11.8194 8.98542 11.7852 9.0108 11.7771 9.01593C 11.7605 9.02642 11.827 8.97699 11.9678 8.97699L 11.9678 10.977ZM 13.9973 8.60587C 13.9973 7.87244 13.5928 7.30091 13.1851 6.95081C 12.7839 6.60643 12.2233 6.3382 11.6453 6.3382L 11.6453 8.3382C 11.6268 8.3382 11.6501 8.3355 11.7094 8.36031C 11.7651 8.38362 11.827 8.42087 11.8822 8.46826C 12.0089 8.57699 11.9973 8.63931 11.9973 8.60587L 13.9973 8.60587ZM 11.6453 6.3382L 10.7868 6.3382L 10.7868 8.3382L 11.6453 8.3382L 11.6453 6.3382ZM 11.7714 7.16352C 11.5089 5.68394 10.3355 4.70282 9.56803 4.0604C 9.15568 3.71528 8.81466 3.44336 8.57727 3.17452C 8.34728 2.91861 8.34976 2.81909 8.34976 2.81839L 6.34976 2.81839C 6.34976 3.55103 6.7345 4.11613 7.08974 4.5114C 7.43758 4.89375 7.88477 5.25956 8.2843 5.59404C 9.14059 6.31079 9.68569 6.85622 9.80219 7.51289L 11.7714 7.16352ZM 7.96184 3.60919C 8.35487 3.30498 9.14468 2.57687 9.14468 1.54914L 7.14468 1.54914C 7.14468 1.53285 7.14938 1.58008 7.06705 1.69664C 6.98735 1.80948 6.86726 1.9273 6.73769 2.02759L 7.96184 3.60919ZM 9.14468 1.54914C 9.14468 0.784802 8.77443 0.143043 8.30102 -0.287447C 7.83246 -0.713527 7.19212 -1 6.51683 -1L 6.51683 1C 6.63484 1 6.80843 1.05854 6.95547 1.19225C 7.09766 1.32155 7.14468 1.45436 7.14468 1.54914L 9.14468 1.54914ZM 6.51683 -1C 5.8393 -1 5.19819 -0.710355 4.73023 -0.28328C 4.25756 0.148095 3.88681 0.790858 3.88681 1.55544L 5.88681 1.55544C 5.88681 1.46039 5.93442 1.32543 6.07844 1.19399C 6.22717 1.05826 6.40107 1 6.51683 1L 6.51683 -1ZM 3.88681 1.55544C 3.88681 2.58846 4.68714 3.31091 5.07183 3.60866L 6.29598 2.02706C 6.16257 1.92381 6.04191 1.8064 5.9624 1.69512C 5.88063 1.58068 5.88681 1.53658 5.88681 1.55544L 3.88681 1.55544ZM 4.6839 2.81786C 4.6839 2.90793 4.65127 3.04462 4.44433 3.28373C 4.21503 3.55511 3.8879 3.81099 3.47992 4.14061C 2.7292 4.74716 1.53061 5.67856 1.26328 7.16011L 3.2315 7.51525C 3.3448 6.88734 3.86446 6.40114 4.73684 5.6963C 5.14041 5.37023 5.60105 4.99697 5.95661 4.59255C 6.33455 4.15586 6.6839 3.57011 6.6839 2.81786L 4.6839 2.81786ZM 2.24739 6.33768L 1.39165 6.33768L 1.39165 8.33768L 2.24739 8.33768L 2.24739 6.33768ZM 1.39165 6.33768C 0.813233 6.33768 0.252377 6.60558 -0.149113 6.95037C -0.557194 7.30082 -0.960906 7.87237 -0.960906 8.60535L 1.03909 8.60535C 1.03909 8.63833 1.02769 8.57604 1.1539 8.46766C 1.20895 8.42038 1.2708 8.38319 1.3265 8.3599C 1.38569 8.33515 1.4094 8.33768 1.39165 8.33768L 1.39165 6.33768ZM -0.960906 8.60535C -0.960906 9.23966 -0.687337 9.79763 -0.375947 10.1826C -0.108985 10.5126 0.404997 10.977 1.06858 10.977L 1.06858 8.97699C 1.15369 8.97699 1.21307 8.99408 1.24053 9.00377C 1.26892 9.01378 1.28006 9.0218 1.27518 9.01868C 1.26341 9.01115 1.22542 8.98213 1.17901 8.92476C 1.13416 8.86931 1.0961 8.80535 1.07087 8.74249C 1.04565 8.67966 1.03909 8.63294 1.03909 8.60535L -0.960906 8.60535ZM 1.06858 10.977L 1.4074 10.977L 1.4074 8.97699L 1.06858 8.97699L 1.06858 10.977ZM 0.937301 9.09438C -0.747142 9.99155 -1 11.6276 -1 13.0942L 1 13.0942C 1 11.7754 1.23908 11.1996 1.8775 10.8596L 0.937301 9.09438ZM -1 13.0942L -1 29.3911L 1 29.3911L 1 13.0942L -1 13.0942ZM -1 29.3911C -1 30.7365 -0.413427 31.7242 0.576633 32.3129C 1.48066 32.8504 2.62703 33 3.71398 33L 3.71398 31C 2.74955 31 2.03893 30.8555 1.59881 30.5938C 1.24473 30.3833 1 30.0664 1 29.3911L -1 29.3911ZM 3.71398 33L 9.28548 33L 9.28548 31L 3.71398 31L 3.71398 33ZM 9.28548 33C 10.3724 33 11.5189 32.8504 12.423 32.3129C 13.4132 31.7243 14 30.7367 14 29.3911L 12 29.3911C 12 30.0663 11.7553 30.3832 11.401 30.5938C 10.9607 30.8555 10.2499 31 9.28548 31L 9.28548 33ZM 14 29.3911L 14 13.0942L 12 13.0942L 12 29.3911L 14 29.3911ZM 14 13.0938C 13.9994 11.6275 13.7465 9.99151 12.0622 9.09438L 11.122 10.8596C 11.7605 11.1997 11.9995 11.7755 12 13.0946L 14 13.0938Z"/>
<path id="path1_stroke" d="M 0 0.5L 4.03868 0.5L 4.03868 -0.5L 0 -0.5L 0 0.5Z"/>
<path id="path2_stroke" d="M 0 0.500001L 4.03868 0.500001L 4.03868 -0.499999L 0 -0.499999L 0 0.500001Z"/>
<path id="path3_stroke" d="M 0 0.500002L 4.03868 0.500002L 4.03868 -0.499998L 0 -0.499998L 0 0.500002Z"/>
<path id="path4_stroke" d="M 2.9516e-08 0.5L 10.6283 0.5L 10.6283 -0.5L 2.9516e-08 -0.5L 2.9516e-08 0.5Z"/>
<path id="path5_stroke" d="M 7.45668e-08 0.5L 8.80657 0.5L 8.80657 -0.5L 7.45668e-08 -0.5L 7.45668e-08 0.5Z"/>
</defs>
</svg>
