<svg width="43" height="34" viewBox="0 0 43 34" version="1.1" xmlns="http://www.w3.org/2000/svg" xmlns:xlink="http://www.w3.org/1999/xlink">
<title>Person friend</title>
<desc>Created using Figma</desc>
<g id="Canvas" transform="translate(-5297 -330)">
<g id="Person friend">
<g id="Shape 5">
<use xlink:href="#path0_stroke" transform="translate(5298 331)" fill="#FFFFFF"/>
</g>
<g id="Shape">
<use xlink:href="#path1_stroke" transform="translate(5306.25 337.886)" fill="#FFFFFF"/>
</g>
<g id="Shape 1">
<use xlink:href="#path2_stroke" transform="translate(5313.98 343.981)" fill="#FFFFFF"/>
</g>
<g id="Shape 2">
<use xlink:href="#path3_stroke" transform="translate(5320.14 331.389)" fill="#FFFFFF"/>
</g>
<g id="Shape 3">
<use xlink:href="#path4_stroke" transform="translate(5304.31 357.705)" fill="#FFFFFF"/>
</g>
<g id="Shape 4">
<use xlink:href="#path5_stroke" transform="translate(5319.6 357.716)" fill="#FFFFFF"/>
</g>
<g id="Shape 6">
<use xlink:href="#path6_stroke" transform="translate(5318.86 349.66)" fill="#FFFFFF"/>
</g>
<g id="Shape 7">
<use xlink:href="#path7_stroke" transform="translate(5333.42 349.736)" fill="#FFFFFF"/>
</g>
</g>
</g>
<defs>
<path id="path0_stroke" d="M 30.6093 12.8833L 29.9737 12.1113L 28.1963 13.5747L 30.479 13.8748L 30.6093 12.8833ZM 24.9541 12.8726L 25.0732 13.8655L 27.3853 13.588L 25.592 12.1025L 24.9541 12.8726ZM 19.685 14.2002L 18.7016 14.0184L 18.3617 15.8575L 20.0799 15.1189L 19.685 14.2002ZM 11.8336 20.0627L 11.9255 21.0585L 15.0485 20.7703L 12.3351 19.1975L 11.8336 20.0627ZM 25.823 24.0599L 25.8459 23.0602L 23.3591 23.003L 25.1144 24.7655L 25.823 24.0599ZM 42 20.6498C 42 18.3249 40.6399 16.3121 38.626 14.8269C 36.6567 13.3859 33.8246 12.3043 30.7397 11.8918L 30.479 13.8748C 33.3349 14.2434 35.6982 15.1413 37.439 16.4365C 39.1353 17.6875 40 19.1674 40 20.6498L 42 20.6498ZM 31.2449 13.6553C 33.3491 11.9229 34.7167 8.79239 34.7167 6.03847L 32.7167 6.03847C 32.7167 8.24806 31.5767 10.7915 29.9737 12.1113L 31.2449 13.6553ZM 34.7167 6.03847C 34.7167 2.00485 31.7925 -1 27.7883 -1L 27.7883 1C 30.6535 1 32.7167 3.07463 32.7167 6.03847L 34.7167 6.03847ZM 27.7883 -1C 23.7841 -1 20.8599 2.00485 20.8599 6.03847L 22.8599 6.03847C 22.8599 3.07463 24.9231 1 27.7883 1L 27.7883 -1ZM 20.8599 6.03847C 20.8599 8.78627 22.222 11.9081 24.3161 13.6428L 25.592 12.1025C 23.9948 10.7796 22.8599 8.24219 22.8599 6.03847L 20.8599 6.03847ZM 24.8349 11.8798C 22.8364 12.1216 20.8482 12.6152 19.29 13.2815L 20.0799 15.1189C 21.4856 14.5109 23.1966 14.0889 25.0732 13.8655L 24.8349 11.8798ZM 20.6683 14.3819C 20.7681 13.8376 20.8285 13.2428 20.8298 12.7027L 18.8298 12.7027C 18.8311 13.1409 18.7883 13.5538 18.7016 14.0184L 20.6683 14.3819ZM 20.8298 12.7027C 20.8298 8.66909 17.9056 5.66424 13.9014 5.66424L 13.9014 7.66424C 16.7666 7.66424 18.8298 9.73886 18.8298 12.7027L 20.8298 12.7027ZM 13.9014 5.66424C 9.89721 5.66424 6.97305 8.66909 6.97305 12.7027L 8.97305 12.7027C 8.97305 9.73886 11.0363 7.66424 13.9014 7.66424L 13.9014 5.66424ZM 6.97305 12.7027C 6.97305 15.7876 8.70649 19.406 11.3321 20.9279L 12.3351 19.1975C 10.4468 18.103 8.97305 15.2251 8.97305 12.7027L 6.97305 12.7027ZM 11.7417 19.0669C 8.25559 19.3886 5.12165 20.4699 2.83081 22.0807C 0.546865 23.6867 -1 25.9038 -1 28.4723L 1 28.4723C 1 26.773 2.02221 25.0942 3.98119 23.7168C 5.93329 22.3441 8.71616 21.3546 11.9255 21.0585L 11.7417 19.0669ZM -1 28.4723C -1 29.6141 -0.154194 30.389 0.695188 30.881C 1.54504 31.3675 2.77507 31.7869 4.13076 32.0936C 6.80848 32.6944 10.3991 32.9991 13.9216 33C 17.4441 32.9991 21.0347 32.6944 23.7124 32.0936C 25.0681 31.7869 26.2981 31.3675 27.148 30.881C 27.9974 30.389 28.8432 29.6141 28.8432 28.4723L 26.8432 28.4723C 26.8432 28.5064 26.8189 28.7604 26.1456 29.1503C 25.4728 29.5458 24.5276 29.8613 23.2729 30.1425C 20.7301 30.7177 17.3599 31.0009 13.9216 31C 10.4833 31.0009 7.11311 30.7177 4.57023 30.1425C 3.31563 29.8613 2.37041 29.5458 1.69758 29.1503C 1.02429 28.7604 1 28.5064 1 28.4723L -1 28.4723ZM 28.8432 28.4723C 28.8432 26.5297 27.9514 24.78 26.5315 23.3542L 25.1144 24.7655C 26.2563 25.9122 26.8432 27.18 26.8432 28.4723L 28.8432 28.4723ZM 25.8 25.0596C 29.3837 25.1409 33.2872 24.8687 36.2596 24.2798C 37.7602 23.9804 39.1246 23.5704 40.0771 23.0903C 40.9805 22.6306 42 21.863 42 20.6498L 40 20.6498C 40.0059 20.6881 40.0182 20.628 39.9925 20.6739C 39.9712 20.7321 39.9699 20.7315 39.8988 20.8058C 39.7429 20.9861 39.5444 21.12 39.17 21.3078C 38.3822 21.7133 37.2789 22.0392 35.8696 22.3182C 33.0223 22.8863 29.3373 23.1415 25.8459 23.0602L 25.8 25.0596Z"/>
<path id="path1_stroke" d="M 5.65262 12.9398C 4.31939 12.9398 3.03881 12.043 2.06362 10.6328C 1.07813 9.21673 0.493661 7.44989 0.5 5.79855L -0.5 5.79855C -0.493661 7.60862 0.18293 9.66239 1.24113 11.2016C 2.30962 12.7467 3.85535 13.9398 5.65262 13.9398L 5.65262 12.9398ZM 0.5 5.79855C 0.5 2.70251 2.66537 0.5 5.65262 0.5L 5.65262 -0.5C 2.08923 -0.5 -0.5 2.17438 -0.5 5.79855L 0.5 5.79855ZM 5.65262 0.5C 8.63987 0.5 10.8052 2.70251 10.8052 5.79855L 11.8052 5.79855C 11.8052 2.17438 9.216 -0.5 5.65262 -0.5L 5.65262 0.5ZM 10.8052 5.79855C 10.8116 7.44991 10.2273 9.21675 9.24186 10.6328C 8.26677 12.0429 6.98619 12.9398 5.65262 12.9398L 5.65262 13.9398C 7.4502 13.9398 8.99594 12.7467 10.0644 11.2016C 11.1225 9.66236 11.7989 7.6086 11.8052 5.79855L 10.8052 5.79855Z"/>
<path id="path2_stroke" d="M 5.54968e-07 7.22737L -0.253433 6.79635L -1.59252 7.58373L -0.0455615 7.72528L 5.54968e-07 7.22737ZM 12.038 15.4917C 12.038 13.1761 10.6559 11.1248 8.50521 9.60035C 6.35145 8.07375 3.37851 7.03443 0.0455626 6.72944L -0.0455615 7.72528C 3.147 8.01742 5.94307 9.01002 7.92693 10.4162C 9.91383 11.8245 11.038 13.6068 11.038 15.4917L 12.038 15.4917ZM 0.253435 7.65838C 2.6278 6.26226 4.24747 2.89 4.24747 4.2709e-07L 3.24747 4.2709e-07C 3.24747 2.61333 1.75384 5.61608 -0.253433 6.79635L 0.253435 7.65838Z"/>
<path id="path3_stroke" d="M 11.3052 5.70325L 11.8052 5.70325L 11.3052 5.70325ZM 5.65262 12.7185C 4.3156 12.7185 3.03493 11.8343 2.0614 10.4496C 1.0767 9.0581 0.493462 7.32437 0.500001 5.70325L -0.499999 5.70325C -0.493461 7.48556 0.18436 9.50946 1.24335 11.0247C 2.3135 12.5468 3.85914 13.7185 5.65262 13.7185L 5.65262 12.7185ZM 0.500001 5.70325C 0.500001 2.6704 2.65763 0.5 5.65262 0.5L 5.65262 -0.5C 2.09697 -0.5 -0.499999 2.12652 -0.499999 5.70325L 0.500001 5.70325ZM 5.65262 0.5C 8.64761 0.5 10.8052 2.6704 10.8052 5.70325L 11.8052 5.70325C 11.8052 2.12652 9.20827 -0.5 5.65262 -0.5L 5.65262 0.5ZM 10.8052 5.70325C 10.8118 7.32439 10.2287 9.05813 9.24408 10.4496C 8.27065 11.8342 6.98999 12.7185 5.65262 12.7185L 5.65262 13.7185C 7.44641 13.7185 8.99206 12.5469 10.0621 11.0247C 11.1211 9.50944 11.7987 7.48554 11.8052 5.70325L 10.8052 5.70325Z"/>
<path id="path4_stroke" d="M 0.5 4.2891L 0.5 -9.35531e-07L -0.5 -9.35531e-07L -0.5 4.2891L 0.5 4.2891Z"/>
<path id="path5_stroke" d="M 0.500001 4.27777L 0.500001 4.67766e-07L -0.499999 4.67766e-07L -0.499999 4.27777L 0.500001 4.27777Z"/>
<path id="path6_stroke" d="M 0.500001 2.62438L 0.500001 0L -0.499999 0L -0.499999 2.62438L 0.500001 2.62438Z"/>
<path id="path7_stroke" d="M 0.500001 4.41372L 0.500001 -1.52532e-07L -0.499999 -1.52532e-07L -0.499999 4.41372L 0.500001 4.41372Z"/>
</defs>
</svg>
