<svg width="171" height="175" viewBox="0 0 171 175" version="1.1" xmlns="http://www.w3.org/2000/svg" xmlns:xlink="http://www.w3.org/1999/xlink">
<title>Vector</title>
<desc>Created using Figma</desc>
<g id="Canvas" transform="translate(-4990 -632)">
<g id="Vector">
<use xlink:href="#path0_fill" transform="translate(4887 632)" fill="#F9F6EF"/>
</g>
</g>
<defs>
<path id="path0_fill" d="M 160.907 115.792C 166.227 116.015 169.42 119.246 170.969 124.073C 171.342 125.242 173.303 125.112 173.209 123.775C 172.799 118.094 166.47 113.527 160.907 114.251C 159.955 114.381 159.899 115.737 160.907 115.792ZM 172.575 131.981C 171.118 123.553 161.635 117.426 153.458 117.649C 152.413 117.686 152.45 119.153 153.458 119.246C 161.971 119.914 167.161 125.075 170.26 132.613C 170.838 134.024 172.836 133.504 172.575 131.981ZM 113.601 2.97047C 91.8524 21.313 109.382 55.1021 136.937 53.6539C 148.492 53.0413 160.533 46.4877 165.219 35.5899C 170.54 23.2068 164.547 10.1182 155.344 1.46661C 177.839 2.85894 200.615 2.04206 223.147 1.8751C 224.025 1.85653 224.902 1.8751 225.78 1.85653C 224.585 24.4877 223.315 47.3788 225.724 69.9544C 225.481 70.4371 225.593 70.9568 225.91 71.3096C 226.452 73.4448 229.887 73.4448 229.737 71.0312C 229.7 70.6228 229.681 70.2143 229.663 69.8059C 237.13 63.3822 245.624 57.9055 256.004 60.7275C 266.178 63.4936 274 72.9434 274 83.5628C 274 93.5138 268.362 103.261 259.663 108.199C 254.622 111.058 248.648 112.413 242.861 112.209C 240.192 112.116 237.466 111.764 234.89 111.114C 233.564 110.817 232.276 110.39 231.063 109.814C 230.297 109.164 229.681 108.812 229.215 108.756C 229.177 108.645 229.177 108.533 229.121 108.422C 229.028 108.236 228.934 108.069 228.86 107.884C 228.505 107.141 227.329 106.64 226.545 106.955C 226.302 107.048 226.06 107.141 225.817 107.234C 224.958 107.568 224.118 108.441 224.249 109.424C 224.062 109.591 223.95 109.833 223.931 110.167C 223.894 110.891 223.857 111.615 223.838 112.339C 222.942 133.058 223.035 153.907 223.483 174.793C 202.481 174.218 181.311 173.234 160.31 173.828C 168.001 164.452 171.492 150.528 165.294 139.463C 158.293 126.987 141.38 125.651 128.405 126.635C 117.26 127.47 106.47 133.392 104.398 145.089C 102.381 156.376 108.99 166.884 117.671 173.679C 95.026 173.624 72.2693 173.215 49.5312 173.104C 49.2698 152.385 50.4273 130.106 46.0774 110.056C 46.0589 109.926 45.9281 109.852 45.7975 109.814C 46.0215 109.666 46.2642 109.499 46.4882 109.35C 47.7017 108.478 46.6749 106.714 45.3121 107.345C 35.9033 111.745 25.8223 117.89 14.9759 115.291C 1.6841 112.116 -0.910764 95.983 0.24651 84.454C 1.21732 74.6701 5.94047 65.1644 14.9199 60.3375C 25.4302 54.6937 37.8447 58.5924 42.9413 69.3047C 43.2772 69.973 43.7627 70.2885 44.3041 70.3442C 44.5654 70.6599 44.8454 70.9568 45.1441 71.2169C 45.8535 71.7739 46.8242 72.0523 47.6642 71.5324C 47.9258 71.3655 48.1871 71.1982 48.4485 71.0312C 49.1764 70.5855 49.6619 69.6387 49.3818 68.7848C 49.2884 68.5434 49.2139 68.3021 49.1205 68.0606C 48.8031 67.1139 48.0938 66.724 47.3657 66.7055C 46.955 64.8489 46.6189 62.9738 46.3761 61.0801C 45.8909 57.7754 45.5548 54.5079 45.3868 51.1661C 45.1255 46.0049 45.2001 40.8439 45.3308 35.7012C 45.5922 24.3763 46.0028 13.0328 46.3388 1.70805C 46.3388 1.13241 46.3576 0.575444 46.3761 -4.69316e-07C 68.797 0.798308 91.199 1.65233 113.601 2.97047ZM 115.617 51.816C 107.777 47.88 101.821 43.1645 98.9092 34.5873C 98.573 33.5847 97.0237 33.9932 97.285 35.0329C 99.4505 43.276 106.041 51.7788 114.665 54.0438C 115.972 54.3779 116.887 52.4471 115.617 51.816ZM 111.865 58.1468C 104.006 54.7865 97.6957 50.1266 91.8712 43.9072C 91.2551 43.2573 90.0416 44.1298 90.6017 44.891C 95.474 51.7603 102.661 57.3299 110.39 60.6531C 112.108 61.3958 113.582 58.8893 111.865 58.1468Z"/>
</defs>
</svg>
