<svg width="91" height="266" viewBox="0 0 91 266" version="1.1" xmlns="http://www.w3.org/2000/svg" xmlns:xlink="http://www.w3.org/1999/xlink">
<title>Vector</title>
<desc>Created using Figma</desc>
<g id="Canvas" transform="translate(-6259 -1281)">
<g id="Vector">
<use xlink:href="#path0_fill" transform="translate(6259 1281)" fill="#F9F6EF"/>
</g>
</g>
<defs>
<path id="path0_fill" d="M 126.59 92.9124C 125.887 93.4592 126.784 94.4819 127.505 94.1116C 133.364 91.0609 139.17 89.4208 145.786 90.4611C 147.633 90.761 148.002 88.151 146.137 87.9218C 139.311 87.1283 132.062 88.5918 126.59 92.9124ZM 142.619 93.7061C 136.144 94.3409 127.699 96.7393 122.72 101.236C 121.576 102.259 119.676 106.403 122.684 106.033C 123.142 105.98 123.494 105.292 122.948 105.045C 120.907 104.128 126.625 101.077 127.277 100.76C 129.054 99.8429 130.883 99.0494 132.766 98.3793C 136.074 97.2154 139.469 96.5804 142.918 96.0163C 144.22 95.8046 143.921 93.5825 142.619 93.7061ZM 100.41 214.24C 100.639 214.258 100.885 214.275 101.114 214.293C 100.234 215.051 99.9703 216.674 101.219 217.538C 111.899 224.909 116.738 239.229 110.298 251.079C 103.612 263.388 90.7861 265.91 77.8543 265.046C 71.2212 264.605 63.9724 263.371 59.0109 258.451C 51.4982 250.973 55.8617 240.128 59.6619 231.963C 62.0548 226.814 68.1423 220.712 66.9284 214.857C 67.3506 214.381 67.5794 213.729 67.3859 213.076C 67.2979 212.812 67.2274 212.565 67.1571 212.3C 66.9284 211.542 66.1542 210.837 65.3096 210.89C 65.0985 210.907 64.8874 210.925 64.6587 210.942C 63.7966 210.995 63.2335 211.524 62.9872 212.177C 61.5269 212.142 60.0665 212.106 58.6239 212.053C 55.6857 211.983 52.765 211.895 49.8267 211.824C 44.5485 211.683 39.2878 211.542 34.0096 211.401C 23.5763 211.136 13.1604 210.872 2.72707 210.607C 2.37524 190.751 1.6187 170.911 -9.8708e-08 151.249C 5.91167 157.068 22.2743 155.234 28.2563 153.118C 39.6925 149.097 48.0673 138.516 48.9998 126.313C 49.862 114.85 43.2818 104.128 32.6899 99.6665C 21.5352 94.9757 11.2779 99.6313 3.1317 107.197C 2.02324 86.8284 2.44556 66.6013 3.37802 46.2155C 22.7844 46.1977 42.3668 46.6386 61.7028 45.4042C 63.6031 45.2985 63.9021 42.9353 62.5474 42.1594C 61.65 36.4634 57.7442 32.0194 55.2105 26.9054C 48.1377 12.5857 60.7704 2.55158 74.0539 0.823385C 83.6781 -0.411128 96.9968 -1.52215 103.12 7.48926C 110.351 18.0879 105.477 30.4322 100.815 40.9779C 100.727 41.1719 100.692 41.3834 100.674 41.5774C 100.076 42.2476 100.375 43.6054 101.554 43.6936C 102.574 43.7643 103.577 43.8347 104.598 43.8876C 126.326 45.369 148.143 45.9862 169.978 46.092C 170.189 67.6594 168.834 89.1915 168.869 110.724C 159.597 103.634 144.097 95.8751 132.502 101.871C 121.664 107.496 116.632 122.204 116.861 133.72C 117.089 144.777 122.033 156.204 133.663 158.796C 146.366 161.635 157.89 153.7 166.459 145.129L 167.215 145.835C 166.881 145.958 166.617 146.24 166.617 146.716C 166.318 168.601 166.23 190.468 165.913 212.336C 145.152 212.406 124.18 211.401 103.472 212.441C 102.451 212.477 101.431 212.547 100.41 212.6C 99.337 212.653 99.3898 214.117 100.41 214.24ZM 27.6581 196.006C 34.2559 196.2 40.7481 196.447 47.2931 197.381C 48.9118 197.61 49.2462 195.318 47.5924 195.159C 40.9945 194.471 34.2734 194.119 27.6581 194.701C 26.8135 194.771 26.796 195.988 27.6581 196.006ZM 41.751 200.89C 33.7105 200.697 25.1245 200.538 17.1191 201.508C 16.5034 201.578 16.5034 202.389 17.1191 202.46C 25.1245 203.43 33.7105 203.271 41.751 203.077C 43.1585 203.042 43.1585 200.926 41.751 200.89Z"/>
</defs>
</svg>
