<svg width="143" height="226" viewBox="0 0 143 226" version="1.1" xmlns="http://www.w3.org/2000/svg" xmlns:xlink="http://www.w3.org/1999/xlink">
<title>Vector</title>
<desc>Created using Figma</desc>
<g id="Canvas" transform="translate(-6207 -2301)">
<g id="Vector">
<use xlink:href="#path0_fill" transform="translate(6207 2301)" fill="#F9F6EF"/>
</g>
</g>
<defs>
<path id="path0_fill" d="M 49.6051 73.863C 49.6795 73.9004 49.7354 73.919 49.8284 73.9564C 51.0932 74.5166 52.7301 73.9004 52.7114 72.3134C 52.4139 48.3397 52.4882 24.1604 52.0976 1.60205e-08C 53.1951 0.0372593 54.2739 0.0560335 55.3714 0.0746149C 67.7596 0.410815 80.1479 0.765501 92.5359 1.06415C 98.7301 1.23225 104.924 1.38167 111.118 1.531C 113.109 1.58703 115.359 2.03521 117.368 1.64307C 116.234 6.2921 111.658 11.3707 109.686 15.1796C 107.882 18.6151 106.282 22.2186 105.036 25.8968C 102.748 32.7118 101.874 39.6575 105.929 45.9497C 113.704 57.9739 131.84 58.982 144.563 57.3577C 173.785 53.6235 182.155 16.8973 158.644 0.0560334C 180.351 2.2966 202.672 1.81107 224.491 1.62429C 224.137 24.0297 223.561 46.4539 222.333 68.8966C 222.221 70.8195 224.416 71.2865 225.588 70.3342L 225.793 70.5956C 225.663 70.689 225.551 70.7824 225.439 70.8758C 223.375 72.5 226.276 75.3567 228.304 73.7697C 237.567 66.5066 250.681 56.7416 262.734 64.0047C 270.9 68.8966 274.23 80.0432 273.988 89.0053C 273.727 99.2372 268.315 109.637 258.27 113.203C 247.574 116.993 236.433 110.757 227.076 106.239C 226.072 105.753 225.253 106.836 225.718 107.62C 225.291 107.676 224.863 107.957 224.77 108.405C 224.751 108.479 224.751 108.573 224.751 108.647C 225.291 131.781 226.146 154.821 226.76 177.861C 226.276 177.861 225.811 177.861 225.346 177.88C 202.951 177.992 180.462 177.395 158.086 178.478C 157.565 178.496 157.044 178.534 156.523 178.552C 155.947 178.571 155.649 178.982 155.593 179.392C 154.589 179.822 153.845 181.054 154.551 182.156C 160.541 191.473 169.153 202.209 164.149 213.878C 159.871 223.848 147.781 225.324 138.164 225.174C 127.599 225.025 113.89 222.803 108.756 212.086C 103.827 201.854 111.36 189.792 116.847 180.177C 117.126 179.691 117.405 179.206 117.684 178.72C 118.428 178.384 118.763 177.581 118.726 176.797C 118.8 176.685 118.856 176.573 118.912 176.461C 119.377 175.602 118.335 174.575 117.591 175.098C 117.368 175.005 117.126 174.949 116.847 174.949C 94.7495 175.21 72.5958 175.21 50.4422 175.416C 47.931 152.469 50.1073 129.279 48.1171 106.276C 48.0798 105.94 47.9124 105.735 47.6893 105.641C 47.6148 105.604 47.5217 105.585 47.4474 105.585C 47.5963 105.473 47.745 105.361 47.8939 105.249C 48.5078 104.745 47.8194 103.737 47.1313 103.942C 36.9194 106.892 26.6702 115.892 15.5842 113.763C 4.92581 111.728 1.05679 96.4179 0.163917 87.2689C -1.0637 74.6285 4.59087 63.6314 17.5744 61.148C 29.5905 58.8327 39.2444 65.9651 47.745 73.4522C 48.3589 73.9938 49.0285 74.0498 49.6051 73.863Z"/>
</defs>
</svg>
