<svg width="103" height="265" viewBox="0 0 103 265" version="1.1" xmlns="http://www.w3.org/2000/svg" xmlns:xlink="http://www.w3.org/1999/xlink">
<title>Vector</title>
<desc>Created using Figma</desc>
<g id="Canvas" transform="translate(-4990 -1664)">
<g id="Vector">
<use xlink:href="#path0_fill" transform="translate(4881 1664)" fill="#F9F6EF"/>
</g>
</g>
<defs>
<path id="path0_fill" d="M 4.98199 265C 6.88045 239.885 6.14337 213.271 2.72616 188.423C 2.70393 188.334 2.68147 188.267 2.6369 188.2C 12.7322 196.363 25.5303 201.865 38.574 198.152C 53.583 193.881 58.5414 179.12 58.7649 164.762C 58.9657 150.113 53.1364 134.726 39.3109 128.039C 24.9942 121.084 12.9109 128.531 2.94959 138.506C 1.11804 111.534 -0.0433321 84.5621 0.00123866 57.5009C 28.2774 58.3507 56.5982 60.7438 84.852 61.0345C 87.3313 61.0792 87.4206 57.8363 85.455 57.076L 85.5445 56.8522C 85.9465 56.9641 86.4378 56.6959 86.2815 56.2038C 83.4226 46.5869 77.8388 38.1777 75.516 28.248C 73.7739 20.8006 71.5628 11.4969 77.9952 5.45838C 82.373 1.36569 95.7293 0.515767 100.665 0.202781C 113.887 -0.624889 134.86 0.426276 138.724 16.0817C 142.186 30.0593 132.202 42.5837 123.961 52.6924C 122.933 53.945 123.358 55.5104 124.296 56.3825C 124.363 56.4498 124.452 56.5169 124.541 56.584C 123.268 57.0982 123.425 59.2453 125.055 59.2901C 153.108 60.1847 181.228 60.0729 209.37 59.6479C 211.246 74.1179 213.033 87.8721 211.291 102.498C 209.66 116.096 207.002 129.358 210.04 142.956C 198.537 134.145 183.662 126.272 169.077 131.215C 155.007 136.001 150.696 151.656 150.919 165.164C 151.098 177.577 155.811 191.13 168.162 196.162C 182.992 202.2 198.56 193.813 210.062 184.487C 208.588 211.101 209.236 237.894 209.303 264.553C 141.203 264.709 73.0816 264.866 4.98199 265ZM 173.88 110.863C 175.823 111.221 176.627 108.515 174.706 107.866C 165.75 104.869 155.386 107.754 148.328 113.658C 147.546 114.329 148.552 115.627 149.4 115.067C 157.24 110.013 164.878 109.23 173.88 110.863ZM 171.534 119.809C 172.74 119.339 172.696 117.326 171.199 117.371C 161.618 117.662 151.522 125.266 146.139 132.78C 145.514 133.653 146.921 134.704 147.658 133.921C 150.919 130.454 154.336 127.368 158.468 124.93C 162.645 122.47 167.112 121.553 171.534 119.809Z"/>
</defs>
</svg>
