<svg width="16" height="26" viewBox="0 0 16 26" version="1.1" xmlns="http://www.w3.org/2000/svg" xmlns:xlink="http://www.w3.org/1999/xlink">
<title>Page 1</title>
<desc>Created using Figma</desc>
<g id="Canvas" transform="translate(-5327 -3236)">
<g id="Page 1">
<g id="Rabbit">
<g id="Shape 1">
<use xlink:href="#path0_stroke" transform="translate(5328 3237.96)" fill="#333333"/>
</g>
<g id="Oval">
<use xlink:href="#path1_fill" transform="translate(5331.14 3252.07)" fill="#333333"/>
</g>
<g id="Oval 1">
<use xlink:href="#path1_fill" transform="translate(5336.58 3252.07)" fill="#333333"/>
</g>
<g id="Shape 2">
<use xlink:href="#path2_stroke" transform="translate(5335.03 3258.19)" fill="#333333"/>
</g>
<g id="Shape 3">
<use xlink:href="#path3_stroke" transform="translate(5333.49 3257.04)" fill="#333333"/>
</g>
</g>
</g>
</g>
<defs>
<path id="path0_stroke" d="M 13.183 15.6007L 14.045 15.0937L 14.0448 15.0935L 13.183 15.6007ZM 12.867 14.3938L 13.8657 14.4444C 13.8666 14.4275 13.867 14.4107 13.867 14.3938L 12.867 14.3938ZM 9.76071 7.67495L 9.48069 8.63494C 9.83966 8.73965 10.2271 8.63534 10.4849 8.36454C 10.7428 8.09374 10.828 7.70171 10.7059 7.3483L 9.76071 7.67495ZM 4.2899 7.67495L 3.34328 7.35259C 3.22316 7.70533 3.30914 8.0956 3.56635 8.36522C 3.82357 8.63484 4.20937 8.73908 4.56737 8.63568L 4.2899 7.67495ZM 4.2899 -4.32921e-10L 4.2899 -1L 4.2899 -4.32921e-10ZM 1.18169 14.14L 2.18119 14.1713C 2.18152 14.1609 2.18168 14.1504 2.18168 14.14L 1.18169 14.14ZM 0.779683 15.6007L -0.0892336 15.1057L -0.0893405 15.1059L 0.779683 15.6007ZM 14.0448 15.0935C 13.9333 14.904 13.9005 14.824 13.8846 14.7676C 13.8715 14.7208 13.8558 14.6397 13.8657 14.4444L 11.8683 14.3433C 11.8537 14.6771 11.8868 15.0348 11.9593 15.3089C 12.0416 15.5841 12.1817 15.8699 12.3211 16.1078L 14.0448 15.0935ZM 13.867 14.3938C 13.867 8.02425 13.5665 4.30194 12.9871 2.15392C 12.6966 1.07676 12.3028 0.262149 11.7233 -0.276745C 11.101 -0.855343 10.3938 -1 9.76071 -1L 9.76071 1C 10.0713 1 10.2242 1.06039 10.3614 1.1879C 10.5412 1.35512 10.8061 1.74768 11.0561 2.67479C 11.558 4.53532 11.867 8.00992 11.867 14.3938L 13.867 14.3938ZM 9.76071 -1C 9.15387 -1 8.62351 -0.765011 8.24247 -0.324001C 7.89505 0.0780983 7.73412 0.578472 7.65628 1.02893C 7.50143 1.92505 7.61082 3.02514 7.78062 4.00775C 7.95426 5.00762 8.21591 6.02007 8.42676 6.75249C 8.53335 7.1224 8.63103 7.4366 8.69974 7.65074C 8.73467 7.75953 8.76372 7.84762 8.7831 7.90563C 8.79306 7.93544 8.8012 7.95952 8.80642 7.97486C 8.80916 7.98293 8.81145 7.98963 8.81285 7.99372C 8.81362 7.99595 8.8143 7.99793 8.81468 7.99905C 8.81491 7.99971 8.81513 8.00035 8.81524 8.00067C 8.81532 8.00089 8.8154 8.00112 8.81543 8.00122C 8.8155 8.00143 8.81556 8.0016 9.76071 7.67495C 10.7059 7.3483 10.7059 7.34841 10.7059 7.3485C 10.7059 7.34849 10.7059 7.34854 10.7059 7.34852C 10.7059 7.34838 10.7059 7.34832 10.7058 7.34805C 10.7055 7.34732 10.7052 7.34651 10.7047 7.34506C 10.7036 7.34176 10.7021 7.33746 10.6999 7.331C 10.6953 7.3173 10.6889 7.29829 10.68 7.27189C 10.6619 7.21746 10.6365 7.14066 10.6041 7.0396C 10.5381 6.83401 10.4493 6.5486 10.3486 6.19898C 10.145 5.49235 9.90933 4.58607 9.75141 3.66719C 9.58965 2.73107 9.53325 1.91243 9.62708 1.36949C 9.67357 1.10042 9.7406 1.00119 9.75583 0.983567C 9.776 0.952274 9.75206 0.99764 9.73026 0.999766C 9.70435 1.01762 9.69665 0.994812 9.76071 1L 9.76071 -1ZM 9.76071 7.67495C 10.0407 6.71495 10.0406 6.71492 10.0405 6.71488C 10.0404 6.71487 10.0403 6.71483 10.0402 6.7148C 10.0401 6.71476 10.0398 6.71468 10.0395 6.71461C 10.0392 6.71451 10.0385 6.7143 10.0378 6.71411C 10.0368 6.71381 10.0348 6.71324 10.0328 6.71266C 10.0294 6.71167 10.0233 6.70993 10.0165 6.70802C 10.0042 6.70455 9.98392 6.69886 9.96006 6.69232C 9.91498 6.67998 9.84396 6.66102 9.75941 6.63959C 9.59595 6.59824 9.34932 6.5398 9.06853 6.4834C 8.51894 6.37361 7.729 6.25578 6.993 6.25292L 6.993 8.25292C 7.57782 8.25006 8.17173 8.34324 8.67579 8.44446C 8.92182 8.49358 9.11946 8.54065 9.26857 8.57842C 9.34031 8.59656 9.39265 8.61057 9.43185 8.62131C 9.45013 8.62631 9.46219 8.62969 9.47177 8.6324C 9.47592 8.63358 9.47812 8.63421 9.48025 8.63482C 9.48101 8.63504 9.48111 8.63507 9.4815 8.63518C 9.48154 8.63519 9.48138 8.63514 9.48135 8.63514C 9.48142 8.63516 9.48106 8.63505 9.48109 8.63506C 9.48103 8.63504 9.48094 8.63502 9.48091 8.63501C 9.4808 8.63498 9.48069 8.63494 9.76071 7.67495ZM 6.993 6.25292C 6.29474 6.25591 5.51983 6.37412 4.97713 6.48386C 4.70029 6.54012 4.45554 6.5983 4.29238 6.63955C 4.20819 6.66087 4.13753 6.67966 4.0924 6.69194C 4.06862 6.69842 4.04848 6.70402 4.03623 6.70746C 4.02951 6.70934 4.02353 6.71104 4.02013 6.71201C 4.01815 6.71257 4.01621 6.71313 4.01522 6.71341C 4.01457 6.7136 4.01388 6.7138 4.01356 6.71389C 4.01332 6.71396 4.01304 6.71404 4.01293 6.71407C 4.01283 6.7141 4.01271 6.71413 4.01266 6.71415C 4.01255 6.71418 4.01244 6.71421 4.2899 7.67495C 4.56737 8.63568 4.56727 8.63571 4.56717 8.63574C 4.56715 8.63575 4.56706 8.63577 4.56701 8.63579C 4.56704 8.63578 4.56673 8.63587 4.56678 8.63585C 4.56675 8.63586 4.56665 8.63589 4.56672 8.63587C 4.56713 8.63575 4.56732 8.6357 4.56813 8.63547C 4.57034 8.63484 4.57272 8.63416 4.57701 8.63296C 4.58677 8.63022 4.59924 8.62675 4.61783 8.62169C 4.65747 8.61089 4.71068 8.59671 4.78288 8.57847C 4.93252 8.54059 5.13071 8.49325 5.37442 8.444C 5.87282 8.34273 6.44946 8.24992 6.993 8.25292L 6.993 6.25292ZM 4.2899 7.67495C 5.23652 7.99731 5.23658 7.99714 5.23665 7.99694C 5.23668 7.99683 5.23676 7.9966 5.23683 7.99639C 5.23694 7.99606 5.23716 7.99543 5.23738 7.99477C 5.23776 7.99365 5.23843 7.99168 5.23918 7.98945C 5.24056 7.98537 5.24282 7.97868 5.24552 7.97062C 5.25065 7.95528 5.25867 7.93123 5.26848 7.90143C 5.28756 7.84345 5.31617 7.75542 5.35057 7.64666C 5.41826 7.43257 5.51446 7.11853 5.61945 6.74874C 5.82717 6.01646 6.08482 5.00467 6.25581 4.00533C 6.42307 3.02299 6.53048 1.92496 6.37833 1.03136C 6.30196 0.582858 6.14408 0.0836786 5.80173 -0.318458C 5.42511 -0.760838 4.8972 -1 4.2899 -1L 4.2899 1C 4.35006 0.994661 4.33195 1.01441 4.3089 0.997508C 4.28936 0.996379 4.25953 0.947296 4.27885 0.978023C 4.29383 0.995611 4.36055 1.09604 4.4067 1.36706C 4.49957 1.91252 4.44363 2.73322 4.28419 3.66962C 4.12849 4.58902 3.89609 5.49596 3.69543 6.20274C 3.59623 6.55247 3.50867 6.83804 3.44363 7.04367C 3.41167 7.14478 3.38668 7.22163 3.36876 7.27608C 3.36006 7.30249 3.35372 7.32154 3.34912 7.33525C 3.34696 7.34171 3.3455 7.34603 3.34439 7.34932C 3.3439 7.35078 3.34362 7.35159 3.34337 7.35233C 3.34328 7.35261 3.34326 7.35267 3.34321 7.35281C 3.3432 7.35283 3.34322 7.35278 3.34322 7.35279C 3.34325 7.3527 3.34328 7.35259 4.2899 7.67495ZM 4.2899 -1C 3.85648 -0.998214 3.15703 -0.879997 2.56378 -0.468569C 1.97198 -0.0131609 1.54623 0.718725 1.22214 1.73957C 0.580005 3.76218 0.181685 7.43878 0.181685 14.14L 2.18168 14.14C 2.18168 7.43366 2.59009 4.04026 3.12838 2.34476C 3.39449 1.50655 3.65237 1.21735 3.7835 1.11644C 3.91318 0.971552 3.97595 0.998214 4.2899 1L 4.2899 -1ZM 0.182176 14.1087C 0.173093 14.5371 0.137275 14.7307 -0.0892336 15.1057L 1.6486 16.0956C 2.0035 15.4499 2.15759 14.7857 2.18119 14.1713L 0.182176 14.1087ZM -0.0893405 15.1059C -0.875225 16.4862 -1.14556 17.7953 -0.927385 18.9955C -0.701585 20.1132 0.00559479 21.1642 0.827273 21.8637C 2.50409 23.2667 5.00887 23.9044 6.99339 23.9044L 6.99339 21.9044C 5.33111 21.9044 3.32903 21.3492 2.11069 20.3298C 1.48479 19.8181 1.14732 19.3506 1.04037 18.6378C 0.925782 18.0075 1.03459 17.1741 1.64871 16.0954L -0.0893405 15.1059ZM 6.99339 23.9044C 8.97596 23.9044 11.4974 23.2674 13.1801 21.865C 14.0055 21.1649 14.7146 20.11 14.9338 18.9887C 15.1443 17.7833 14.8557 16.4724 14.045 15.0937L 12.321 16.1076C 12.9563 17.188 13.0728 18.0195 12.9636 18.6446C 12.863 19.3538 12.5275 19.8174 11.8997 20.3286C 10.6759 21.3485 8.65648 21.9044 6.99339 21.9044L 6.99339 23.9044Z"/>
<path id="path1_fill" d="M 1.16748 2.29365C 1.81226 2.29365 2.33496 1.7802 2.33496 1.14683C 2.33496 0.513452 1.81226 0 1.16748 0C 0.522698 0 0 0.513452 0 1.14683C 0 1.7802 0.522698 2.29365 1.16748 2.29365Z"/>
<path id="path2_stroke" d="M 1 0C 1 -0.552285 0.552285 -1 0 -1C -0.552285 -1 -1 -0.552285 -1 0L 1 0ZM -1 2.7715C -1 3.32378 -0.552285 3.7715 0 3.7715C 0.552285 3.7715 1 3.32378 1 2.7715L -1 2.7715ZM -1 0L -1 2.7715L 1 2.7715L 1 0L -1 0Z"/>
<path id="path3_stroke" d="M 0.599243 -0.800567C 0.157102 -1.13152 -0.469615 -1.04138 -0.800567 -0.599243C -1.13152 -0.157101 -1.04138 0.469615 -0.599243 0.800567L 0.599243 -0.800567ZM 1.53212 1.14683L 0.932879 1.94739C 1.28584 2.21159 1.77018 2.21346 2.12517 1.952L 1.53212 1.14683ZM 3.68219 0.805169C 4.12688 0.477638 4.22185 -0.148364 3.89432 -0.593046C 3.56679 -1.03773 2.94078 -1.1327 2.4961 -0.805169L 3.68219 0.805169ZM -0.599243 0.800567L 0.932879 1.94739L 2.13136 0.34626L 0.599243 -0.800567L -0.599243 0.800567ZM 2.12517 1.952L 3.68219 0.805169L 2.4961 -0.805169L 0.939075 0.341659L 2.12517 1.952Z"/>
</defs>
</svg>
