<svg width="41" height="34" viewBox="0 0 41 34" version="1.1" xmlns="http://www.w3.org/2000/svg" xmlns:xlink="http://www.w3.org/1999/xlink">
<title>Shake hand</title>
<desc>Created using Figma</desc>
<g id="Canvas" transform="translate(-5534 -331)">
<g id="Shake hand">
<g id="Shape">
<use xlink:href="#path0_stroke" transform="translate(5535 332)" fill="#FFFFFF"/>
</g>
<g id="Shape 1">
<use xlink:href="#path1_stroke" transform="translate(5550.38 350.64)" fill="#FFFFFF"/>
</g>
<g id="Shape 2">
<use xlink:href="#path2_stroke" transform="translate(5554.5 346.57)" fill="#FFFFFF"/>
</g>
<g id="Shape 3">
<use xlink:href="#path3_stroke" transform="translate(5547.67 336.274)" fill="#FFFFFF"/>
</g>
<g id="Shape 4">
<use xlink:href="#path4_stroke" transform="translate(5541.19 349.421)" fill="#FFFFFF"/>
</g>
<g id="Shape 5">
<use xlink:href="#path5_stroke" transform="translate(5543.7 352.496)" fill="#FFFFFF"/>
</g>
<g id="Shape 6">
<use xlink:href="#path6_stroke" transform="translate(5546.22 355.571)" fill="#FFFFFF"/>
</g>
<g id="Shape 7">
<use xlink:href="#path7_stroke" transform="translate(5549.33 358.647)" fill="#FFFFFF"/>
</g>
</g>
</g>
<defs>
<path id="path0_stroke" d="M 19.4969 4.05731L 18.7495 4.7217L 19.4751 5.53795L 20.2244 4.74339L 19.4969 4.05731ZM 19.5013 32L 19.5013 33L 19.5013 32ZM 20.2442 3.39291C 17.5003 0.306202 12.2824 -1.48428 7.74401 -0.88459C 5.4846 -0.576533 3.20383 0.417922 1.60909 2.11308C -0.0302492 3.88881 -1 6.41493 -1 9.7386L 1 9.7386C 1 6.81728 1.84288 4.80827 3.07861 3.46973C 4.35895 2.05062 6.01568 1.35167 8.00601 1.09818C 11.9671 0.574772 16.4977 2.18863 18.7495 4.7217L 20.2442 3.39291ZM -1 9.7386C -1 12.4404 0.0981237 15.2381 1.69895 17.8608C 3.29592 20.4712 5.48255 23.0441 7.73212 25.2485C 9.9862 27.4542 12.3874 29.3798 14.4173 30.729C 15.4405 31.4079 16.4186 31.971 17.2311 32.3507C 18.0275 32.7218 18.8301 33 19.5013 33L 19.5013 31C 19.2932 31 18.827 30.8879 18.076 30.5379C 17.3412 30.1965 16.4935 29.7075 15.5237 29.0629C 13.5674 27.765 11.3131 25.9577 9.13145 23.8196C 6.94532 21.6802 4.91606 19.2985 3.40606 16.8188C 1.89992 14.3512 1 11.9231 1 9.7386L -1 9.7386ZM 19.5013 33C 20.1723 33 20.9746 32.7217 21.7707 32.3506C 22.5829 31.9709 23.5608 31.4078 24.5838 30.7288C 26.6134 29.3797 29.0143 27.4539 31.2682 25.2483C 33.5176 23.0438 35.7042 20.4709 37.3011 17.8605C 38.9019 15.2379 40 12.4403 40 9.7386L 38 9.7386C 38 11.9229 37.1001 14.351 35.594 16.8185C 34.084 19.2983 32.0548 21.6799 29.8688 23.8194C 27.6874 25.9575 25.4333 27.7649 23.4773 29.0628C 22.5076 29.7075 21.6601 30.1965 20.9255 30.5379C 20.1748 30.888 19.7089 31 19.5013 31L 19.5013 33ZM 40 9.7386C 40 6.42035 39.05 3.89751 37.433 2.12297C 35.8588 0.42839 33.6007 -0.565636 31.3561 -0.872344C 26.8417 -1.46962 21.6395 0.327675 18.7693 3.37123L 20.2244 4.74339C 22.6249 2.19791 27.1742 0.59179 31.0938 1.11038C 33.0661 1.3616 34.6956 2.05533 35.9547 3.47005C 37.1709 4.8048 38 6.81278 38 9.7386L 40 9.7386Z"/>
<path id="path1_stroke" d="M 11.068 9.50685L 0.338598 -0.367902L -0.338597 0.367902L 10.3908 10.2427L 11.068 9.50685Z"/>
<path id="path2_stroke" d="M 11.0674 9.50811L 0.338631 -0.367872L -0.33863 0.367871L 10.3901 10.2439L 11.0674 9.50811Z"/>
<path id="path3_stroke" d="M 10.0229 5.42235L 10.3702 5.06267L 10.0379 4.74178L 9.69174 5.04771L 10.0229 5.42235ZM 4.98684 9.87352L 4.65571 9.49889L 4.64628 9.50722L 4.63728 9.51602L 4.98684 9.87352ZM 21.7003 16.0033L 10.3702 5.06267L 9.67555 5.78203L 21.0057 16.7227L 21.7003 16.0033ZM 9.69174 5.04771L 4.65571 9.49889L 5.31797 10.2482L 10.354 5.79699L 9.69174 5.04771ZM 4.63728 9.51602C 3.71398 10.4188 2.37672 10.1938 1.41322 9.365C 0.941399 8.95913 0.622927 8.45155 0.529137 7.96468C 0.439778 7.5008 0.545995 7.02997 0.977206 6.60833L 0.278086 5.89333C -0.402832 6.55912 -0.603111 7.3736 -0.452809 8.15384C -0.306937 8.91107 0.160409 9.60639 0.761086 10.1231C 1.94259 11.1395 3.89705 11.6384 5.3364 10.231L 4.63728 9.51602ZM 0.977206 6.60833C 2.08934 5.5209 3.68741 3.95818 5.00744 2.66733C 5.66745 2.0219 6.25796 1.44444 6.68346 1.02833C 6.89621 0.82028 7.06771 0.652565 7.18602 0.536865C 7.24518 0.479014 7.29104 0.434167 7.32211 0.403782C 7.33764 0.38859 7.34948 0.377014 7.35743 0.369235C 7.36141 0.365346 7.36442 0.362406 7.36643 0.360438C 7.36744 0.359455 7.36819 0.358714 7.3687 0.358219C 7.36895 0.357972 7.36914 0.357786 7.36927 0.357662C 7.36933 0.3576 7.36938 0.357553 7.36941 0.357522C 7.36944 0.357491 7.36946 0.357476 7.01987 -7.2734e-08C 6.67028 -0.357476 6.67027 -0.35746 6.67024 -0.357429C 6.67021 -0.357398 6.67016 -0.357352 6.67009 -0.35729C 6.66997 -0.357166 6.66978 -0.35698 6.66952 -0.356732C 6.66902 -0.356238 6.66826 -0.355497 6.66726 -0.354513C 6.66524 -0.352546 6.66224 -0.349606 6.65826 -0.345717C 6.65031 -0.337939 6.63847 -0.326362 6.62293 -0.31117C 6.59186 -0.280786 6.54601 -0.235939 6.48685 -0.178089C 6.36854 -0.0623887 6.19704 0.105324 5.98429 0.313377C 5.55879 0.729482 4.96829 1.30694 4.30827 1.95237C 2.98825 3.24322 1.39021 4.80592 0.278086 5.89333L 0.977206 6.60833Z"/>
<path id="path4_stroke" d="M 5.92234 3.67548L 5.57278 3.31797L 5.92234 3.67548ZM 3.62511 0.286508L 3.27555 -0.0709945L 3.27555 -0.0709945L 3.62511 0.286508ZM 2.62118 6.9033C 2.97074 7.2608 2.97075 7.26079 2.97076 7.26078C 2.97078 7.26076 2.97081 7.26073 2.97084 7.2607C 2.97091 7.26063 2.97101 7.26053 2.97115 7.2604C 2.97142 7.26013 2.97183 7.25974 2.97237 7.25921C 2.97345 7.25815 2.97507 7.25657 2.97721 7.25447C 2.98149 7.25029 2.98786 7.24406 2.99621 7.2359C 3.01291 7.21957 3.03754 7.19548 3.06927 7.16446C 3.13272 7.10242 3.22454 7.01264 3.33802 6.90167C 3.565 6.67974 3.87863 6.37308 4.22526 6.03415C 4.91854 5.35627 5.74383 4.54932 6.2719 4.03298L 5.57278 3.31797C 5.04471 3.83431 4.21942 4.64127 3.52614 5.31914C 3.17951 5.65808 2.86588 5.96474 2.6389 6.18667C 2.52542 6.29764 2.4336 6.38742 2.37015 6.44946C 2.33842 6.48048 2.31379 6.50456 2.29709 6.52089C 2.28874 6.52906 2.28237 6.53528 2.27809 6.53947C 2.27595 6.54156 2.27433 6.54314 2.27325 6.5442C 2.27271 6.54473 2.2723 6.54513 2.27203 6.5454C 2.27189 6.54553 2.27179 6.54563 2.27172 6.5457C 2.27169 6.54573 2.27166 6.54576 2.27164 6.54577C 2.27163 6.54579 2.27162 6.5458 2.62118 6.9033ZM 6.2719 4.03298C 6.70221 3.61222 6.76359 2.99033 6.69661 2.46026C 6.62666 1.93329 6.39878 1.31867 6.10834 0.83506C 5.81458 0.350215 5.40798 -0.108264 4.9247 -0.341513C 4.6876 -0.451845 4.35922 -0.517014 4.09156 -0.488244C 3.78767 -0.447303 3.51169 -0.301887 3.27555 -0.0709945L 3.97467 0.64401C 4.07916 0.541848 4.16343 0.511108 4.22508 0.502803C 4.32296 0.482328 4.3654 0.494824 4.49004 0.559082C 4.73025 0.675013 5.01082 0.953412 5.25308 1.35325C 5.49866 1.75432 5.65562 2.17219 5.7045 2.58562C 5.75635 2.99596 5.67054 3.22239 5.57278 3.31797L 6.2719 4.03298ZM 3.27555 -0.0709945L -0.34956 3.47358L 0.34956 4.18859L 3.97467 0.64401L 3.27555 -0.0709945Z"/>
<path id="path5_stroke" d="M 5.92234 3.67548L 5.57278 3.31797L 5.92234 3.67548ZM 3.62511 0.286508L 3.27555 -0.0709945L 3.62511 0.286508ZM 2.62118 6.9033C 2.97074 7.2608 2.97075 7.26079 2.97076 7.26078C 2.97078 7.26076 2.97081 7.26073 2.97084 7.2607C 2.97091 7.26063 2.97101 7.26053 2.97115 7.2604C 2.97142 7.26013 2.97183 7.25974 2.97237 7.25921C 2.97345 7.25815 2.97507 7.25657 2.97721 7.25447C 2.98149 7.25029 2.98786 7.24406 2.99621 7.2359C 3.01291 7.21957 3.03754 7.19548 3.06927 7.16446C 3.13272 7.10242 3.22454 7.01264 3.33802 6.90167C 3.565 6.67974 3.87863 6.37308 4.22526 6.03415C 4.91854 5.35627 5.74383 4.54932 6.2719 4.03298L 5.57278 3.31797C 5.04471 3.83431 4.21942 4.64127 3.52614 5.31914C 3.17951 5.65808 2.86588 5.96474 2.6389 6.18667C 2.52542 6.29764 2.4336 6.38742 2.37015 6.44946C 2.33842 6.48048 2.31379 6.50456 2.29709 6.52089C 2.28874 6.52906 2.28237 6.53528 2.27809 6.53947C 2.27595 6.54156 2.27433 6.54314 2.27325 6.5442C 2.27271 6.54473 2.2723 6.54513 2.27203 6.5454C 2.27189 6.54553 2.27179 6.54563 2.27172 6.5457C 2.27169 6.54573 2.27166 6.54576 2.27164 6.54577C 2.27163 6.54579 2.27162 6.5458 2.62118 6.9033ZM 6.2719 4.03298C 6.70221 3.61222 6.76359 2.99033 6.69661 2.46026C 6.62666 1.93329 6.39878 1.31867 6.10834 0.83506C 5.81459 0.350215 5.40799 -0.108264 4.9247 -0.341513C 4.6876 -0.451845 4.35922 -0.517014 4.09157 -0.488244C 3.78767 -0.447303 3.51169 -0.301887 3.27555 -0.0709945L 3.97467 0.64401C 4.07916 0.541848 4.16343 0.511108 4.22508 0.502803C 4.32296 0.482328 4.3654 0.494824 4.49004 0.559082C 4.73025 0.675013 5.01082 0.953412 5.25308 1.35325C 5.49866 1.75432 5.65562 2.17219 5.7045 2.58562C 5.75635 2.99596 5.67054 3.22239 5.57278 3.31797L 6.2719 4.03298ZM 3.27555 -0.0709945L -0.34956 3.47358L 0.34956 4.18859L 3.97467 0.64401L 3.27555 -0.0709945Z"/>
<path id="path6_stroke" d="M 5.92234 3.67547L 5.57278 3.31797L 5.5726 3.31815L 5.92234 3.67547ZM 3.62511 0.286508L 3.27555 -0.0709945L 3.62511 0.286508ZM 3.8344 6.41633C 4.58226 5.68507 5.64039 4.65108 6.27208 4.0328L 5.5726 3.31815C 4.94119 3.93614 3.88325 4.96997 3.13528 5.70132L 3.8344 6.41633ZM 6.2719 4.03298C 6.70221 3.61222 6.76359 2.99033 6.69661 2.46026C 6.62666 1.93329 6.39878 1.31867 6.10834 0.83506C 5.81459 0.350215 5.40799 -0.108264 4.9247 -0.341513C 4.6876 -0.451845 4.35922 -0.517014 4.09157 -0.488244C 3.78767 -0.447303 3.51169 -0.301887 3.27555 -0.0709945L 3.97467 0.64401C 4.07916 0.541848 4.16343 0.511108 4.22508 0.502803C 4.32296 0.482328 4.3654 0.494824 4.49004 0.559082C 4.73025 0.675013 5.01082 0.953412 5.25308 1.35325C 5.49866 1.75432 5.65562 2.17219 5.7045 2.58562C 5.75635 2.99596 5.67054 3.22239 5.57278 3.31797L 6.2719 4.03298ZM 3.27555 -0.0709945L -0.34956 3.47358L 0.34956 4.18859L 3.97467 0.64401L 3.27555 -0.0709945Z"/>
<path id="path7_stroke" d="M 5.32224 3.67547L 4.97268 3.31797L 4.97238 3.31827L 5.32224 3.67547ZM 3.02502 0.286508L 3.37458 0.64401L 3.37458 0.64401L 3.02502 0.286508ZM 4.26403 5.40948C 4.78098 4.904 5.30009 4.39705 5.6721 4.03268L 4.97238 3.31827C 4.60088 3.68213 4.08208 4.18879 3.56491 4.69447L 4.26403 5.40948ZM 5.6718 4.03298C 6.10212 3.61222 6.16349 2.99033 6.09652 2.46026C 6.02657 1.93329 5.79868 1.31867 5.50825 0.83506C 5.21449 0.350215 4.80789 -0.108264 4.32461 -0.341513C 4.08751 -0.451845 3.75913 -0.517014 3.49147 -0.488244C 3.18758 -0.447303 2.91159 -0.301887 2.67546 -0.0709946L 3.37458 0.64401C 3.47906 0.541848 3.56334 0.511108 3.62498 0.502803C 3.72286 0.482328 3.7653 0.494824 3.88995 0.559082C 4.13015 0.675013 4.41073 0.953412 4.65298 1.35325C 4.89856 1.75432 5.05553 2.17219 5.1044 2.58562C 5.15625 2.99596 5.07044 3.22239 4.97268 3.31797L 5.6718 4.03298ZM 2.67546 -0.0709946L -0.34956 2.88682L 0.34956 3.60182L 3.37458 0.64401L 2.67546 -0.0709946Z"/>
</defs>
</svg>
