<svg width="152" height="152" viewBox="0 0 152 152" version="1.1" xmlns="http://www.w3.org/2000/svg" xmlns:xlink="http://www.w3.org/1999/xlink">
<title>Group</title>
<desc>Created using Figma</desc>
<g id="Canvas" transform="translate(-5074 -1511)">
<g id="Group">
<g id="Vector">
<use xlink:href="#path0_fill" transform="translate(5074 1511)" fill="#C2CE49"/>
</g>
<g id="Vector">
<use xlink:href="#path1_fill" transform="translate(5108.52 1533.82)" fill="#EAEAEA"/>
</g>
<g id="Vector">
<use xlink:href="#path2_fill" transform="translate(5108.52 1535.67)" fill="#D4D6D6"/>
</g>
<g id="Vector">
<use xlink:href="#path3_fill" transform="translate(5113.85 1619.48)" fill="#FBD000"/>
</g>
<g id="Vector">
<use xlink:href="#path4_fill" transform="translate(5170.85 1619.48)" fill="#FBD000"/>
</g>
<g id="Vector">
<use xlink:href="#path5_fill" transform="translate(5112 1618.29)" fill="#7C4119"/>
</g>
<g id="Vector">
<use xlink:href="#path6_fill" transform="translate(5169 1618.29)" fill="#7C4119"/>
</g>
<g id="Vector">
<use xlink:href="#path7_fill" transform="translate(5107.25 1532.38)" fill="#7C4119"/>
</g>
<g id="Vector">
<use xlink:href="#path8_fill" transform="translate(5164.06 1533.82)" fill="#EAEAEA"/>
</g>
<g id="Vector">
<use xlink:href="#path9_fill" transform="translate(5164.06 1533.82)" fill="#D4D6D6"/>
</g>
<g id="Vector">
<use xlink:href="#path10_fill" transform="translate(5163.06 1532.38)" fill="#7C4119"/>
</g>
<g id="Vector">
<use xlink:href="#path11_fill" transform="translate(5102.36 1540.85)" fill="#FBD000"/>
</g>
<g id="Vector">
<use xlink:href="#path12_fill" transform="translate(5112.21 1550.69)" fill="#FFFFFF"/>
</g>
<g id="Vector">
<use xlink:href="#path13_fill" transform="translate(5112.21 1550.69)" fill="#EAEAEA"/>
</g>
<g id="Vector">
<use xlink:href="#path14_fill" transform="translate(5148.19 1578.35)" fill="#EAEAEA"/>
</g>
<g id="Vector">
<use xlink:href="#path15_fill" transform="translate(5145.42 1585.09)" fill="#EAEAEA"/>
</g>
<g id="Vector">
<use xlink:href="#path16_fill" transform="translate(5148.81 1554.94)" fill="#7C4119"/>
</g>
<g id="Vector">
<use xlink:href="#path17_fill" transform="translate(5148.81 1616.69)" fill="#7C4119"/>
</g>
<g id="Vector">
<use xlink:href="#path18_fill" transform="translate(5176.12 1588.19)" fill="#7C4119"/>
</g>
<g id="Vector">
<use xlink:href="#path19_fill" transform="translate(5119.12 1588.19)" fill="#7C4119"/>
</g>
<g id="Vector">
<use xlink:href="#path20_fill" transform="translate(5086.13 1635.69)" fill="#7C4119"/>
</g>
<g id="Vector">
<use xlink:href="#path21_fill" transform="translate(5102.36 1584.88)" fill="#F4B10B"/>
</g>
<g id="Vector">
<use xlink:href="#path22_fill" transform="translate(5147.62 1577.5)" fill="#7C4119"/>
</g>
<g id="Vector">
<use xlink:href="#path23_fill" transform="translate(5101.31 1539.5)" fill="#7C4119"/>
</g>
<g id="Vector">
<use xlink:href="#path24_fill" transform="translate(5144.06 1583.44)" fill="#7C4119"/>
</g>
<g id="Vector">
<use xlink:href="#path25_fill" transform="translate(5110.81 1549)" fill="#7C4119"/>
</g>
<g id="Vector">
<use xlink:href="#path26_fill" transform="translate(5160.5 1545.27)" fill="#FFFFFF"/>
</g>
<g id="Vector">
<use xlink:href="#path27_fill" transform="translate(5122.71 1543.67)" fill="#FFFFFF"/>
</g>
<g id="Vector" opacity="0.5">
<use xlink:href="#path28_fill" transform="translate(5203.44 1570.38)" fill="#FFFFFF"/>
</g>
<g id="Vector" opacity="0.5">
<use xlink:href="#path29_fill" transform="translate(5088.25 1597.69)" fill="#FFFFFF"/>
</g>
<g id="Vector" opacity="0.5">
<use xlink:href="#path30_fill" transform="translate(5147.22 1519.41)" fill="#FFFFFF"/>
</g>
<g id="Vector">
<use xlink:href="#path31_fill" transform="translate(5134.41 1588.34)" fill="#7C4119"/>
</g>
<g id="Vector">
<use xlink:href="#path32_fill" transform="translate(5181.41 1537.81)" fill="#FFFFFF"/>
</g>
<g id="Vector">
<use xlink:href="#path33_fill" transform="translate(5116.4 1536.2)" fill="#FFFFFF"/>
</g>
</g>
</g>
<defs>
<path id="path0_fill" d="M 76 152C 117.974 152 152 117.974 152 76C 152 34.0264 117.974 0 76 0C 34.0264 0 0 34.0264 0 76C 0 117.974 34.0264 152 76 152Z"/>
<path id="path1_fill" d="M 2.32832 22.378C -1.96413 15.8213 -0.179443 6.71213 6.51129 2.33322C 13.2014 -2.04687 22.2636 -0.0407113 26.5556 6.51607L 2.32832 22.378Z"/>
<path id="path2_fill" d="M 7.33411 1.47568e-08C 7.05801 0.154256 6.77978 0.30495 6.51129 0.480107C -0.179443 4.85901 -1.96413 13.9682 2.32832 20.5249L 6.86789 17.5527C 3.80284 12.013 4.10731 5.244 7.33411 1.47568e-08Z"/>
<path id="path3_fill" d="M 15.0416 0.904346C 16.3195 2.18221 16.232 4.36127 14.8461 5.74708L 5.7474 14.8458C 4.36159 16.2316 2.18193 16.3186 0.904066 15.0407C -0.373919 13.7627 -0.286401 11.5836 1.09941 10.1978L 10.1982 1.09909C 11.584 -0.286724 13.7636 -0.373645 15.0416 0.904346Z"/>
<path id="path4_fill" d="M 0.903863 0.904346C -0.374118 2.18221 -0.285892 4.36127 1.09873 5.74708L 10.1997 14.8458C 11.5845 16.2316 13.7646 16.3186 15.0426 15.0407C 16.3205 13.7627 16.2324 11.5836 14.8477 10.1978L 5.74661 1.09909C 4.36198 -0.286724 2.18185 -0.373645 0.903863 0.904346Z"/>
<path id="path5_fill" d="M 4.49208 18.5814C 3.2692 18.5814 2.13478 18.1298 1.2983 17.3111C -0.508953 15.5421 -0.418347 12.5747 1.50089 10.6963L 10.9296 1.46799C 11.8826 0.535205 13.1823 -1.00311e-07 14.4952 -1.00311e-07C 15.7179 -1.00311e-07 16.8524 0.451609 17.6888 1.27027C 19.4961 3.03929 19.4054 6.00673 17.4863 7.88512L 8.05756 17.1134C 7.10458 18.0462 5.80499 18.5814 4.49208 18.5814ZM 14.4952 2.40884C 13.83 2.40884 13.1649 2.68648 12.6698 3.1711L 3.24106 12.3994C 2.28143 13.3391 2.19059 14.7776 3.03847 15.6079C 3.84787 16.3984 5.40171 16.3066 6.31752 15.4104L 15.7463 6.18213C 16.7059 5.24233 16.7965 3.8038 15.9486 2.9735C 15.5768 2.61 15.0606 2.40884 14.4952 2.40884Z"/>
<path id="path6_fill" d="M 14.4944 18.5814C 13.181 18.5814 11.882 18.0462 10.9304 17.1134L 1.49994 7.88512C -0.41775 6.00566 -0.509192 3.03929 1.29819 1.27027C 2.13454 0.451609 3.26873 -1.00311e-07 4.49208 -1.00311e-07C 5.80546 -1.00311e-07 7.10435 0.535205 8.05612 1.46799L 17.4864 10.6963C 19.4042 12.5757 19.4956 15.5421 17.6883 17.3111C 16.8519 18.1298 15.7176 18.5814 14.4944 18.5814ZM 4.49208 2.40884C 3.926 2.40884 3.41063 2.61 3.03799 2.9735C 2.19096 3.80273 2.28108 5.24233 3.23999 6.18213L 12.6704 15.4104C 13.5871 16.3078 15.1384 16.3972 15.9484 15.6079C 16.7955 14.7787 16.7054 13.3391 15.7465 12.3994L 6.31609 3.1711C 5.82115 2.68648 5.15649 2.40884 4.49208 2.40884Z"/>
<path id="path7_fill" d="M 3.46796 25.0093C 3.38804 25.0093 3.30813 25.0012 3.22928 24.9843C 2.92551 24.9192 2.65928 24.7329 2.4897 24.4669C 0.264809 20.9811 -0.503987 16.7731 0.325245 12.6178C 1.16018 8.43374 3.5119 4.85949 6.9471 2.55312C 9.4342 0.882906 12.3309 0 15.3229 0C 20.6067 0 25.4614 2.6638 28.309 7.12619C 28.6626 7.68099 28.5113 8.42436 27.9708 8.78702L 4.10886 24.8132C 3.91684 24.942 3.69359 25.0093 3.46796 25.0093ZM 15.3229 2.39958C 12.7871 2.39958 10.3338 3.14723 8.22877 4.56083C 5.31904 6.51451 3.32582 9.54691 2.61712 13.0987C 1.99285 16.2265 2.43151 19.3859 3.8501 22.119L 25.6665 7.46652C 23.2005 4.2731 19.4148 2.39958 15.3229 2.39958Z"/>
<path id="path8_fill" d="M 24.2267 22.378C 28.5197 15.8213 26.7338 6.71213 20.0437 2.33322C 13.3547 -2.04687 4.29199 -0.0407113 -6.45935e-08 6.51607L 24.2267 22.378Z"/>
<path id="path9_fill" d="M 17.5748 1.04313C 11.272 -1.50584 3.78278 0.730104 5.41565e-08 6.51097L 3.87672 9.04949C 7.25717 4.58592 12.2495 1.80741 17.5748 1.04313Z"/>
<path id="path10_fill" d="M 25.0311 25.0093C 24.8117 25.0093 24.5891 24.9462 24.3914 24.8132L 0.528795 8.78702C -0.0115195 8.42436 -0.162213 7.68099 0.190716 7.12619C 3.03834 2.6638 7.89284 0 13.178 0C 16.1695 0 19.0663 0.882906 21.553 2.5536C 24.9877 4.86008 27.3395 8.43434 28.1745 12.6178C 29.0039 16.7731 28.2361 20.9811 26.0111 24.4669C 25.7861 24.8185 25.4126 25.0093 25.0311 25.0093ZM 2.83278 7.46652L 24.6507 22.119C 26.0682 19.3859 26.508 16.2271 25.8832 13.0987C 25.1739 9.54691 23.1818 6.51451 20.2715 4.56143C 18.1661 3.14723 15.7138 2.39958 13.178 2.39958C 9.08545 2.39958 5.29993 4.2731 2.83278 7.46652Z"/>
<path id="path11_fill" d="M 47.5918 95.1835C 73.876 95.1835 95.1835 73.876 95.1835 47.5918C 95.1835 21.3076 73.876 0 47.5918 0C 21.3076 0 0 21.3076 0 47.5918C 0 73.876 21.3076 95.1835 47.5918 95.1835Z"/>
<path id="path12_fill" d="M 37.7479 75.4958C 58.5955 75.4958 75.4959 58.5955 75.4959 37.7479C 75.4959 16.9003 58.5955 0 37.7479 0C 16.9003 0 0 16.9003 0 37.7479C 0 58.5955 16.9003 75.4958 37.7479 75.4958Z"/>
<path id="path13_fill" d="M 37.7478 11.6987C 56.6052 11.6987 72.2317 25.5277 75.0427 43.5976C 75.3408 41.69 75.4973 39.736 75.4973 37.7472C 75.4973 16.8986 58.5964 -3.06732e-08 37.7478 -3.06732e-08C 16.9011 -3.06732e-08 8.00171e-08 16.8986 8.00171e-08 37.7472C 8.00171e-08 39.736 0.156034 41.69 0.452909 43.5976C 3.26515 25.5277 18.8916 11.6987 37.7478 11.6987Z"/>
<path id="path14_fill" d="M 3.37067 13.1966C 2.17283 13.7172 0.766712 13.1629 0.246587 11.965L 0.195526 11.8479C -0.324599 10.6499 0.229143 9.24382 1.42767 8.7238L 21.0534 0.195537C 22.2513 -0.324587 23.6579 0.229141 24.1786 1.42709L 24.2297 1.54311C 24.7504 2.74106 24.1972 4.14706 22.9992 4.66719L 3.37067 13.1966Z"/>
<path id="path15_fill" d="M 4.53779 9.07558C 7.04395 9.07558 9.07559 7.04395 9.07559 4.53779C 9.07559 2.03164 7.04395 0 4.53779 0C 2.03164 0 0 2.03164 0 4.53779C 0 7.04395 2.03164 9.07558 4.53779 9.07558Z"/>
<path id="path16_fill" d="M 1.1875 5.9375C 0.531753 5.9375 0 5.40574 0 4.75L 0 1.1875C 0 0.531762 0.531753 0 1.1875 0C 1.84323 0 2.375 0.531762 2.375 1.1875L 2.375 4.75C 2.375 5.40574 1.84323 5.9375 1.1875 5.9375Z"/>
<path id="path17_fill" d="M 1.1875 5.9375C 0.531753 5.9375 0 5.40633 0 4.75L 0 1.1875C 0 0.531173 0.531753 0 1.1875 0C 1.84323 0 2.375 0.531173 2.375 1.1875L 2.375 4.75C 2.375 5.40633 1.84323 5.9375 1.1875 5.9375Z"/>
<path id="path18_fill" d="M 4.75 2.375L 1.1875 2.375C 0.531155 2.375 0 1.84383 0 1.1875C 0 0.531173 0.531155 0 1.1875 0L 4.75 0C 5.40632 0 5.9375 0.531173 5.9375 1.1875C 5.9375 1.84383 5.40632 2.375 4.75 2.375Z"/>
<path id="path19_fill" d="M 4.75 2.375L 1.1875 2.375C 0.531753 2.375 0 1.84383 0 1.1875C 0 0.531173 0.531753 0 1.1875 0L 4.75 0C 5.40573 0 5.9375 0.531173 5.9375 1.1875C 5.9375 1.84383 5.40573 2.375 4.75 2.375Z"/>
<path id="path20_fill" d="M 128.927 2.375L 1.1875 2.375C 0.531643 2.375 1.34956e-08 1.84383 1.34956e-08 1.1875C 1.34956e-08 0.531173 0.531643 0 1.1875 0L 128.927 0C 129.583 0 130.114 0.531173 130.114 1.1875C 130.114 1.84383 129.583 2.375 128.927 2.375Z"/>
<path id="path21_fill" d="M 47.591 44.0291C 22.508 44.0291 1.9703 24.6185 0.146062 -9.52667e-08C 0.0591386 1.17705 1.17416e-08 2.36218 1.17416e-08 3.5625C 1.17416e-08 29.8464 21.3077 51.1541 47.591 51.1541C 73.876 51.1541 95.1838 29.8464 95.1838 3.5625C 95.1838 2.36218 95.1235 1.17705 95.0377 -9.52667e-08C 93.2123 24.6185 72.6747 44.0291 47.591 44.0291Z"/>
<path id="path22_fill" d="M 3.53475 15.4329C 2.14467 15.4329 0.889824 14.6099 0.337759 13.3365L 0.288477 13.2228C -0.0807093 12.3694 -0.0960385 11.4227 0.24537 10.5549C 0.586893 9.68608 1.24322 9.00434 2.09371 8.63443L 21.2588 0.287611C 21.6971 0.0964243 22.1614 0 22.6382 0C 24.0289 0 25.2848 0.822345 25.8362 2.09582L 25.8838 2.20424C 26.2553 3.06066 26.2712 4.00781 25.9303 4.87623C 25.5893 5.74441 24.9325 6.42675 24.0832 6.79666L 4.91474 15.1445C 4.47643 15.3353 4.01212 15.4329 3.53475 15.4329ZM 22.6382 2.32465C 22.4807 2.32465 22.3278 2.35635 22.1829 2.41989L 3.01724 10.7666C 2.7352 10.8891 2.51717 11.1174 2.40282 11.4068C 2.28894 11.6974 2.29298 12.0129 2.41588 12.2956L 2.46516 12.409C 2.71145 12.9789 3.41529 13.265 3.9905 13.013L 23.159 4.6645C 23.441 4.54195 23.6586 4.3143 23.7718 4.02432C 23.8862 3.73374 23.8816 3.41822 23.7593 3.13559L 23.7118 3.02717C 23.526 2.59813 23.1046 2.32465 22.6382 2.32465Z"/>
<path id="path23_fill" d="M 48.6865 97.375C 21.8405 97.375 0 75.5344 0 48.6875C 0 21.8413 21.8405 0 48.6865 0C 75.5332 0 97.375 21.8413 97.375 48.6875C 97.375 75.5344 75.5332 97.375 48.6865 97.375ZM 48.6865 2.37049C 23.1479 2.37049 2.37048 23.1481 2.37048 48.6875C 2.37048 74.2263 23.1479 95.0045 48.6865 95.0045C 74.2265 95.0045 95.0045 74.2263 95.0045 48.6875C 95.0045 23.1481 74.2265 2.37049 48.6865 2.37049Z"/>
<path id="path24_fill" d="M 5.9375 11.875C 9.21669 11.875 11.875 9.21669 11.875 5.9375C 11.875 2.65831 9.21669 0 5.9375 0C 2.65831 0 0 2.65831 0 5.9375C 0 9.21669 2.65831 11.875 5.9375 11.875Z"/>
<path id="path25_fill" d="M 39.1865 78.3762C 17.579 78.3762 0 60.7968 0 39.1881C 0 17.5794 17.579 0 39.1865 0C 60.7954 0 78.375 17.5794 78.375 39.1881C 78.375 60.7968 60.7954 78.3762 39.1865 78.3762ZM 39.1865 2.39044C 18.8969 2.39044 2.39031 18.8978 2.39031 39.1881C 2.39031 59.4778 18.8969 75.9857 39.1865 75.9857C 59.4776 75.9857 75.9847 59.4778 75.9847 39.1881C 75.9847 18.8978 59.4776 2.39044 39.1865 2.39044Z"/>
<path id="path26_fill" d="M 32.611 50.5239C 32.5565 50.5239 32.5008 50.5204 32.4439 50.5124C 31.7946 50.4207 31.3423 49.8211 31.4338 49.1706C 31.7122 47.1888 31.8537 45.1721 31.8537 43.1752C 31.8537 24.2134 19.1125 7.41788 0.868528 2.33217C 0.236545 2.15595 -0.132293 1.50128 0.0440582 0.869292C 0.220273 0.237305 0.873157 -0.13272 1.50634 0.0442178C 20.7731 5.41516 34.2287 23.1518 34.2287 43.1752C 34.2287 45.2823 34.0791 47.4103 33.7857 49.5023C 33.7022 50.0948 33.1943 50.5239 32.611 50.5239Z"/>
<path id="path27_fill" d="M 1.18883 11.0145C 0.826528 11.0145 0.469337 10.8498 0.236221 10.5374C -0.156367 10.0121 -0.0485408 9.26808 0.477405 8.8755C 8.2541 3.0691 17.5083 9.086e-08 27.239 9.086e-08C 27.8949 9.086e-08 28.4265 0.531762 28.4265 1.1875C 28.4265 1.84336 27.8949 2.375 27.239 2.375C 18.0244 2.375 9.26194 5.28117 1.89801 10.7786C 1.68521 10.9381 1.43583 11.0145 1.18883 11.0145Z"/>
<path id="path28_fill" d="M 4.74892 9.5C 2.13013 9.5 0 7.36986 0 4.75107C 0 2.13121 2.13013 0 4.74892 0C 7.36878 0 9.5 2.13121 9.5 4.75107C 9.5 7.36986 7.36878 9.5 4.74892 9.5ZM 4.74892 2.2236C 3.35598 2.2236 2.22358 3.35754 2.22358 4.75107C 2.22358 6.14341 3.35598 7.2764 4.74892 7.2764C 6.14293 7.2764 7.27639 6.14341 7.27639 4.75107C 7.27639 3.35754 6.14293 2.2236 4.74892 2.2236Z"/>
<path id="path29_fill" d="M 4.74892 9.5C 2.13025 9.5 0 7.36986 0 4.75107C 0 2.13132 2.13025 0 4.74892 0C 7.36878 0 9.5 2.13132 9.5 4.75107C 9.5 7.36986 7.36878 9.5 4.74892 9.5ZM 4.74892 2.22359C 3.35646 2.22359 2.22347 3.35694 2.22347 4.75107C 2.22347 6.14413 3.35646 7.27641 4.74892 7.27641C 6.14245 7.27641 7.27652 6.14413 7.27652 4.75107C 7.27652 3.35694 6.14245 2.22359 4.74892 2.22359Z"/>
<path id="path30_fill" d="M 12.1811 6.08938C 12.1811 5.62554 11.6523 5.16515 11.0075 5.06659L 8.79724 4.73254C 8.15242 4.63398 7.5436 4.02515 7.44622 3.38034L 7.11229 1.17468C 7.0148 0.528794 6.55441 -1.54018e-08 6.09058 -1.54018e-08C 5.62673 -1.54018e-08 5.16633 0.528794 5.06897 1.17468L 4.73492 3.38034C 4.63754 4.02515 4.02872 4.63398 3.3839 4.73254L 1.17361 5.06659C 0.528795 5.16515 -1.16953e-07 5.62554 -1.16953e-07 6.08938C -1.16953e-07 6.55322 0.528795 7.01361 1.17361 7.11099L 3.3839 7.44503C 4.02872 7.54241 4.63754 8.15124 4.73492 8.79605L 5.06897 11.0041C 5.16633 11.6488 5.62673 12.1776 6.09058 12.1776C 6.55441 12.1776 7.0091 11.6488 7.10066 11.0017L 7.45786 8.45393C 7.54942 7.80686 8.15717 7.23746 8.80769 7.18877L 10.9972 7.02288C 11.6477 6.97419 12.1811 6.55322 12.1811 6.08938Z"/>
<path id="path31_fill" d="M 1.18637 25.8286C 0.97997 25.8286 0.770614 25.7753 0.580496 25.6616C 0.0169066 25.3264 -0.168106 24.5971 0.167007 24.0335L 14.1201 0.580338C 14.4548 0.0178271 15.1853 -0.168852 15.7477 0.167451C 16.3113 0.502677 16.4963 1.23204 16.1612 1.79563L 2.20808 25.2488C 1.98602 25.621 1.59106 25.8286 1.18637 25.8286Z"/>
<path id="path32_fill" d="M 5.10453 13.4756C 5.06048 13.4756 5.01522 13.4734 4.96879 13.4682C 4.3171 13.3939 3.84969 12.806 3.92391 12.1542C 4.6522 5.73658 0.596887 2.24426 0.424114 2.09879C -0.0757115 1.67782 -0.144232 0.929817 0.274481 0.427624C 0.693076 -0.0738573 1.43645 -0.145227 1.9421 0.271706C 2.15548 0.448523 7.16175 4.68766 6.28276 12.4221C 6.21424 13.0281 5.70054 13.4756 5.10453 13.4756Z"/>
<path id="path33_fill" d="M 13.7579 4.47183C 13.5393 4.47183 13.3179 4.41151 13.1195 4.28516C 7.79895 0.884987 1.65684 3.07094 1.59592 3.0935C 0.980672 3.31675 0.297623 3.00254 0.0727112 2.3867C -0.152794 1.77039 0.163795 1.08852 0.779511 0.863492C 1.07639 0.756262 8.09879 -1.74058 14.3987 2.28351C 14.9513 2.63667 15.113 3.37066 14.76 3.92392C 14.5331 4.27815 14.1499 4.47183 13.7579 4.47183Z"/>
</defs>
</svg>
